<?xml version="1.0" encoding="UTF-8" standalone="no"?>
<svg
   width="460.8pt"
   height="345.6pt"
   viewBox="0 0 460.8 345.6"
   version="1.1"
   id="svg97"
   sodipodi:docname="boxplot_trat.svg"
   inkscape:version="1.3.1 (9b9bdc1480, 2023-11-25, custom)"
   xmlns:inkscape="http://www.inkscape.org/namespaces/inkscape"
   xmlns:sodipodi="http://sodipodi.sourceforge.net/DTD/sodipodi-0.dtd"
   xmlns:xlink="http://www.w3.org/1999/xlink"
   xmlns="http://www.w3.org/2000/svg"
   xmlns:svg="http://www.w3.org/2000/svg"
   xmlns:rdf="http://www.w3.org/1999/02/22-rdf-syntax-ns#"
   xmlns:cc="http://creativecommons.org/ns#"
   xmlns:dc="http://purl.org/dc/elements/1.1/">
  <sodipodi:namedview
     id="namedview97"
     pagecolor="#505050"
     bordercolor="#eeeeee"
     borderopacity="1"
     inkscape:showpageshadow="0"
     inkscape:pageopacity="0"
     inkscape:pagecheckerboard="0"
     inkscape:deskcolor="#d1d1d1"
     inkscape:document-units="pt"
     showgrid="false"
     inkscape:zoom="0.80101939"
     inkscape:cx="516.84142"
     inkscape:cy="247.18503"
     inkscape:window-width="1320"
     inkscape:window-height="704"
     inkscape:window-x="0"
     inkscape:window-y="0"
     inkscape:window-maximized="1"
     inkscape:current-layer="matplotlib.axis_1" />
  <metadata
     id="metadata1">
    <rdf:RDF>
      <cc:Work>
        <dc:type
           rdf:resource="http://purl.org/dc/dcmitype/StillImage" />
        <dc:date>2024-05-30T19:50:21.213373</dc:date>
        <dc:format>image/svg+xml</dc:format>
        <dc:creator>
          <cc:Agent>
            <dc:title>Matplotlib v3.9.0, https://matplotlib.org/</dc:title>
          </cc:Agent>
        </dc:creator>
      </cc:Work>
    </rdf:RDF>
  </metadata>
  <defs
     id="defs1">
    <style
       type="text/css"
       id="style1">*{stroke-linejoin: round; stroke-linecap: butt}</style>
  </defs>
  <g
     id="figure_1">
    <g
       id="patch_1">
      <path
         d="M 0 345.6  L 460.8 345.6  L 460.8 0  L 0 0  z "
         style="fill: #ffffff"
         id="path1" />
    </g>
    <g
       id="axes_1">
      <g
         id="patch_2">
        <path
           d="M 57.6 307.584  L 414.72 307.584  L 414.72 41.472  L 57.6 41.472  z "
           style="fill: #ffffff"
           id="path2" />
      </g>
      <g
         id="matplotlib.axis_1">
        <g
           id="xtick_1">
          <g
             id="line2d_1">
            <defs
               id="defs2">
              <path
                 id="m07d7ca1c7d"
                 d="M 0 0  L 0 3.5  "
                 style="stroke: #000000; stroke-width: 0.8" />
            </defs>
            <g
               id="g2">
              <use
                 xlink:href="#m07d7ca1c7d"
                 x="117.12"
                 y="307.584"
                 style="stroke: #000000; stroke-width: 0.8"
                 id="use2" />
            </g>
          </g>
          <g
             id="text_1">
            <!-- Original -->
            <g
               transform="translate(97.554375 322.182437) scale(0.1 -0.1)"
               id="g10">
              <defs
                 id="defs3">
                <path
                   id="DejaVuSans-4f"
                   d="M 2522 4238  Q 1834 4238 1429 3725  Q 1025 3213 1025 2328  Q 1025 1447 1429 934  Q 1834 422 2522 422  Q 3209 422 3611 934  Q 4013 1447 4013 2328  Q 4013 3213 3611 3725  Q 3209 4238 2522 4238  z M 2522 4750  Q 3503 4750 4090 4092  Q 4678 3434 4678 2328  Q 4678 1225 4090 567  Q 3503 -91 2522 -91  Q 1538 -91 948 565  Q 359 1222 359 2328  Q 359 3434 948 4092  Q 1538 4750 2522 4750  z "
                   transform="scale(0.015625)" />
                <path
                   id="DejaVuSans-72"
                   d="M 2631 2963  Q 2534 3019 2420 3045  Q 2306 3072 2169 3072  Q 1681 3072 1420 2755  Q 1159 2438 1159 1844  L 1159 0  L 581 0  L 581 3500  L 1159 3500  L 1159 2956  Q 1341 3275 1631 3429  Q 1922 3584 2338 3584  Q 2397 3584 2469 3576  Q 2541 3569 2628 3553  L 2631 2963  z "
                   transform="scale(0.015625)" />
                <path
                   id="DejaVuSans-69"
                   d="M 603 3500  L 1178 3500  L 1178 0  L 603 0  L 603 3500  z M 603 4863  L 1178 4863  L 1178 4134  L 603 4134  L 603 4863  z "
                   transform="scale(0.015625)" />
                <path
                   id="DejaVuSans-67"
                   d="M 2906 1791  Q 2906 2416 2648 2759  Q 2391 3103 1925 3103  Q 1463 3103 1205 2759  Q 947 2416 947 1791  Q 947 1169 1205 825  Q 1463 481 1925 481  Q 2391 481 2648 825  Q 2906 1169 2906 1791  z M 3481 434  Q 3481 -459 3084 -895  Q 2688 -1331 1869 -1331  Q 1566 -1331 1297 -1286  Q 1028 -1241 775 -1147  L 775 -588  Q 1028 -725 1275 -790  Q 1522 -856 1778 -856  Q 2344 -856 2625 -561  Q 2906 -266 2906 331  L 2906 616  Q 2728 306 2450 153  Q 2172 0 1784 0  Q 1141 0 747 490  Q 353 981 353 1791  Q 353 2603 747 3093  Q 1141 3584 1784 3584  Q 2172 3584 2450 3431  Q 2728 3278 2906 2969  L 2906 3500  L 3481 3500  L 3481 434  z "
                   transform="scale(0.015625)" />
                <path
                   id="DejaVuSans-6e"
                   d="M 3513 2113  L 3513 0  L 2938 0  L 2938 2094  Q 2938 2591 2744 2837  Q 2550 3084 2163 3084  Q 1697 3084 1428 2787  Q 1159 2491 1159 1978  L 1159 0  L 581 0  L 581 3500  L 1159 3500  L 1159 2956  Q 1366 3272 1645 3428  Q 1925 3584 2291 3584  Q 2894 3584 3203 3211  Q 3513 2838 3513 2113  z "
                   transform="scale(0.015625)" />
                <path
                   id="DejaVuSans-61"
                   d="M 2194 1759  Q 1497 1759 1228 1600  Q 959 1441 959 1056  Q 959 750 1161 570  Q 1363 391 1709 391  Q 2188 391 2477 730  Q 2766 1069 2766 1631  L 2766 1759  L 2194 1759  z M 3341 1997  L 3341 0  L 2766 0  L 2766 531  Q 2569 213 2275 61  Q 1981 -91 1556 -91  Q 1019 -91 701 211  Q 384 513 384 1019  Q 384 1609 779 1909  Q 1175 2209 1959 2209  L 2766 2209  L 2766 2266  Q 2766 2663 2505 2880  Q 2244 3097 1772 3097  Q 1472 3097 1187 3025  Q 903 2953 641 2809  L 641 3341  Q 956 3463 1253 3523  Q 1550 3584 1831 3584  Q 2591 3584 2966 3190  Q 3341 2797 3341 1997  z "
                   transform="scale(0.015625)" />
                <path
                   id="DejaVuSans-6c"
                   d="M 603 4863  L 1178 4863  L 1178 0  L 603 0  L 603 4863  z "
                   transform="scale(0.015625)" />
              </defs>
              <use
                 xlink:href="#DejaVuSans-4f"
                 id="use3" />
              <use
                 xlink:href="#DejaVuSans-72"
                 x="78.710938"
                 id="use4" />
              <use
                 xlink:href="#DejaVuSans-69"
                 x="119.824219"
                 id="use5" />
              <use
                 xlink:href="#DejaVuSans-67"
                 x="147.607422"
                 id="use6" />
              <use
                 xlink:href="#DejaVuSans-69"
                 x="211.083984"
                 id="use7" />
              <use
                 xlink:href="#DejaVuSans-6e"
                 x="238.867188"
                 id="use8" />
              <use
                 xlink:href="#DejaVuSans-61"
                 x="302.246094"
                 id="use9" />
              <use
                 xlink:href="#DejaVuSans-6c"
                 x="363.525391"
                 id="use10" />
            </g>
          </g>
        </g>
        <g
           id="xtick_2">
          <g
             id="line2d_2">
            <g
               id="g11">
              <use
                 xlink:href="#m07d7ca1c7d"
                 x="236.16"
                 y="307.584"
                 style="stroke: #000000; stroke-width: 0.8"
                 id="use11" />
            </g>
          </g>
          <g
             id="text_2">
            <!-- Rarefada -->
            <g
               transform="translate(213.652187 322.182437) scale(0.1 -0.1)"
               id="g19">
              <defs
                 id="defs11">
                <path
                   id="DejaVuSans-52"
                   d="M 2841 2188  Q 3044 2119 3236 1894  Q 3428 1669 3622 1275  L 4263 0  L 3584 0  L 2988 1197  Q 2756 1666 2539 1819  Q 2322 1972 1947 1972  L 1259 1972  L 1259 0  L 628 0  L 628 4666  L 2053 4666  Q 2853 4666 3247 4331  Q 3641 3997 3641 3322  Q 3641 2881 3436 2590  Q 3231 2300 2841 2188  z M 1259 4147  L 1259 2491  L 2053 2491  Q 2509 2491 2742 2702  Q 2975 2913 2975 3322  Q 2975 3731 2742 3939  Q 2509 4147 2053 4147  L 1259 4147  z "
                   transform="scale(0.015625)" />
                <path
                   id="DejaVuSans-65"
                   d="M 3597 1894  L 3597 1613  L 953 1613  Q 991 1019 1311 708  Q 1631 397 2203 397  Q 2534 397 2845 478  Q 3156 559 3463 722  L 3463 178  Q 3153 47 2828 -22  Q 2503 -91 2169 -91  Q 1331 -91 842 396  Q 353 884 353 1716  Q 353 2575 817 3079  Q 1281 3584 2069 3584  Q 2775 3584 3186 3129  Q 3597 2675 3597 1894  z M 3022 2063  Q 3016 2534 2758 2815  Q 2500 3097 2075 3097  Q 1594 3097 1305 2825  Q 1016 2553 972 2059  L 3022 2063  z "
                   transform="scale(0.015625)" />
                <path
                   id="DejaVuSans-66"
                   d="M 2375 4863  L 2375 4384  L 1825 4384  Q 1516 4384 1395 4259  Q 1275 4134 1275 3809  L 1275 3500  L 2222 3500  L 2222 3053  L 1275 3053  L 1275 0  L 697 0  L 697 3053  L 147 3053  L 147 3500  L 697 3500  L 697 3744  Q 697 4328 969 4595  Q 1241 4863 1831 4863  L 2375 4863  z "
                   transform="scale(0.015625)" />
                <path
                   id="DejaVuSans-64"
                   d="M 2906 2969  L 2906 4863  L 3481 4863  L 3481 0  L 2906 0  L 2906 525  Q 2725 213 2448 61  Q 2172 -91 1784 -91  Q 1150 -91 751 415  Q 353 922 353 1747  Q 353 2572 751 3078  Q 1150 3584 1784 3584  Q 2172 3584 2448 3432  Q 2725 3281 2906 2969  z M 947 1747  Q 947 1113 1208 752  Q 1469 391 1925 391  Q 2381 391 2643 752  Q 2906 1113 2906 1747  Q 2906 2381 2643 2742  Q 2381 3103 1925 3103  Q 1469 3103 1208 2742  Q 947 2381 947 1747  z "
                   transform="scale(0.015625)" />
              </defs>
              <use
                 xlink:href="#DejaVuSans-52"
                 id="use12" />
              <use
                 xlink:href="#DejaVuSans-61"
                 x="67.232422"
                 id="use13" />
              <use
                 xlink:href="#DejaVuSans-72"
                 x="128.511719"
                 id="use14" />
              <use
                 xlink:href="#DejaVuSans-65"
                 x="167.375"
                 id="use15" />
              <use
                 xlink:href="#DejaVuSans-66"
                 x="228.898438"
                 id="use16" />
              <use
                 xlink:href="#DejaVuSans-61"
                 x="388.859375"
                 id="use19" />
            </g>
          </g>
        </g>
        <g
           id="xtick_3">
          <g
             id="line2d_3">
            <g
               id="g20">
              <use
                 xlink:href="#m07d7ca1c7d"
                 x="355.2"
                 y="307.584"
                 style="stroke: #000000; stroke-width: 0.8"
                 id="use20" />
            </g>
          </g>
          <g
             id="text_3">
            <!-- Normalizada -->
            <g
               transform="translate(323.792969 322.182437) scale(0.1 -0.1)"
               id="g31">
              <defs
                 id="defs20">
                <path
                   id="DejaVuSans-4e"
                   d="M 628 4666  L 1478 4666  L 3547 763  L 3547 4666  L 4159 4666  L 4159 0  L 3309 0  L 1241 3903  L 1241 0  L 628 0  L 628 4666  z "
                   transform="scale(0.015625)" />
                <path
                   id="DejaVuSans-6f"
                   d="M 1959 3097  Q 1497 3097 1228 2736  Q 959 2375 959 1747  Q 959 1119 1226 758  Q 1494 397 1959 397  Q 2419 397 2687 759  Q 2956 1122 2956 1747  Q 2956 2369 2687 2733  Q 2419 3097 1959 3097  z M 1959 3584  Q 2709 3584 3137 3096  Q 3566 2609 3566 1747  Q 3566 888 3137 398  Q 2709 -91 1959 -91  Q 1206 -91 779 398  Q 353 888 353 1747  Q 353 2609 779 3096  Q 1206 3584 1959 3584  z "
                   transform="scale(0.015625)" />
                <path
                   id="DejaVuSans-6d"
                   d="M 3328 2828  Q 3544 3216 3844 3400  Q 4144 3584 4550 3584  Q 5097 3584 5394 3201  Q 5691 2819 5691 2113  L 5691 0  L 5113 0  L 5113 2094  Q 5113 2597 4934 2840  Q 4756 3084 4391 3084  Q 3944 3084 3684 2787  Q 3425 2491 3425 1978  L 3425 0  L 2847 0  L 2847 2094  Q 2847 2600 2669 2842  Q 2491 3084 2119 3084  Q 1678 3084 1418 2786  Q 1159 2488 1159 1978  L 1159 0  L 581 0  L 581 3500  L 1159 3500  L 1159 2956  Q 1356 3278 1631 3431  Q 1906 3584 2284 3584  Q 2666 3584 2933 3390  Q 3200 3197 3328 2828  z "
                   transform="scale(0.015625)" />
                <path
                   id="DejaVuSans-7a"
                   d="M 353 3500  L 3084 3500  L 3084 2975  L 922 459  L 3084 459  L 3084 0  L 275 0  L 275 525  L 2438 3041  L 353 3041  L 353 3500  z "
                   transform="scale(0.015625)" />
              </defs>
              <use
                 xlink:href="#DejaVuSans-4e"
                 id="use21" />
              <use
                 xlink:href="#DejaVuSans-6f"
                 x="74.804688"
                 id="use22" />
              <use
                 xlink:href="#DejaVuSans-72"
                 x="135.986328"
                 id="use23" />
              <use
                 xlink:href="#DejaVuSans-6d"
                 x="175.349609"
                 id="use24" />
              <use
                 xlink:href="#DejaVuSans-61"
                 x="272.761719"
                 id="use25" />
              <use
                 xlink:href="#DejaVuSans-6c"
                 x="334.041016"
                 id="use26" />
              <use
                 xlink:href="#DejaVuSans-69"
                 x="361.824219"
                 id="use27" />
              <use
                 xlink:href="#DejaVuSans-69"
                 x="361.82422"
                 id="use27-3"
                 style="stroke-linecap:butt;stroke-linejoin:round"
                 transform="translate(9.9999988e-6,2e-5)" />
              <use
                 xlink:href="#DejaVuSans-69"
                 x="361.82422"
                 id="use27-3-2"
                 style="stroke-linecap:butt;stroke-linejoin:round"
                 transform="translate(-1139.3954,0.39990305)" />
              <use
                 xlink:href="#DejaVuSans-7a"
                 x="389.607422"
                 id="use28" />
              <use
                 xlink:href="#DejaVuSans-61"
                 x="442.097656"
                 id="use29" />
              <use
                 xlink:href="#DejaVuSans-64"
                 x="503.376953"
                 id="use30" />
              <use
                 xlink:href="#DejaVuSans-61"
                 x="566.853516"
                 id="use31" />
            </g>
          </g>
        </g>
        <g
           id="text_4"
           transform="translate(0.25344828,3.8379311)">
          <!-- Tratamento -->
          <g
             transform="matrix(0.1,0,0,-0.1,207.56469,335.86056)"
             id="g41">
            <defs
               id="defs31">
              <path
                 id="DejaVuSans-54"
                 d="M -19,4666 H 3928 V 4134 H 2272 V 0 H 1638 V 4134 H -19 Z"
                 transform="scale(0.015625)" />
              <path
                 id="DejaVuSans-74"
                 d="M 1172,4494 V 3500 H 2356 V 3053 H 1172 V 1153 q 0,-428 117,-550 117,-122 477,-122 h 590 V 0 H 1766 Q 1100,0 847,248 594,497 594,1153 V 3053 H 172 v 447 h 422 v 994 z"
                 transform="scale(0.015625)" />
            </defs>
            <use
               xlink:href="#DejaVuSans-54"
               id="use32" />
            <use
               xlink:href="#DejaVuSans-72"
               x="46.333984"
               id="use33" />
            <use
               xlink:href="#DejaVuSans-61"
               x="87.447266"
               id="use34" />
            <use
               xlink:href="#DejaVuSans-74"
               x="148.72656"
               id="use35" />
            <use
               xlink:href="#DejaVuSans-61"
               x="187.93555"
               id="use36" />
            <use
               xlink:href="#DejaVuSans-6d"
               x="249.21484"
               id="use37" />
            <use
               xlink:href="#DejaVuSans-65"
               x="346.62695"
               id="use38" />
            <use
               xlink:href="#DejaVuSans-65"
               x="346.62695"
               id="use38-6"
               style="stroke-linecap:butt;stroke-linejoin:round"
               transform="translate(-23.57975,176.06575)" />
            <use
               xlink:href="#DejaVuSans-6e"
               x="408.15039"
               id="use39" />
            <use
               xlink:href="#DejaVuSans-74"
               x="471.5293"
               id="use40" />
            <use
               xlink:href="#DejaVuSans-74"
               x="471.5293"
               id="use40-2"
               style="stroke-linecap:butt;stroke-linejoin:round"
               transform="translate(-62.276459,174.94331)" />
            <use
               xlink:href="#DejaVuSans-6f"
               x="510.73828"
               id="use41" />
          </g>
        </g>
      </g>
      <g
         id="matplotlib.axis_2">
        <g
           id="ytick_1">
          <g
             id="line2d_4">
            <defs
               id="defs41">
              <path
                 id="m8f6d85b2a4"
                 d="M 0 0  L -3.5 0  "
                 style="stroke: #000000; stroke-width: 0.8" />
            </defs>
            <g
               id="g42">
              <use
                 xlink:href="#m8f6d85b2a4"
                 x="57.6"
                 y="280.845474"
                 style="stroke: #000000; stroke-width: 0.8"
                 id="use42" />
            </g>
          </g>
          <g
             id="text_5">
            <!-- 60000 -->
            <g
               transform="translate(18.7875 284.644692) scale(0.1 -0.1)"
               id="g47">
              <defs
                 id="defs42">
                <path
                   id="DejaVuSans-36"
                   d="M 2113 2584  Q 1688 2584 1439 2293  Q 1191 2003 1191 1497  Q 1191 994 1439 701  Q 1688 409 2113 409  Q 2538 409 2786 701  Q 3034 994 3034 1497  Q 3034 2003 2786 2293  Q 2538 2584 2113 2584  z M 3366 4563  L 3366 3988  Q 3128 4100 2886 4159  Q 2644 4219 2406 4219  Q 1781 4219 1451 3797  Q 1122 3375 1075 2522  Q 1259 2794 1537 2939  Q 1816 3084 2150 3084  Q 2853 3084 3261 2657  Q 3669 2231 3669 1497  Q 3669 778 3244 343  Q 2819 -91 2113 -91  Q 1303 -91 875 529  Q 447 1150 447 2328  Q 447 3434 972 4092  Q 1497 4750 2381 4750  Q 2619 4750 2861 4703  Q 3103 4656 3366 4563  z "
                   transform="scale(0.015625)" />
                <path
                   id="DejaVuSans-30"
                   d="M 2034 4250  Q 1547 4250 1301 3770  Q 1056 3291 1056 2328  Q 1056 1369 1301 889  Q 1547 409 2034 409  Q 2525 409 2770 889  Q 3016 1369 3016 2328  Q 3016 3291 2770 3770  Q 2525 4250 2034 4250  z M 2034 4750  Q 2819 4750 3233 4129  Q 3647 3509 3647 2328  Q 3647 1150 3233 529  Q 2819 -91 2034 -91  Q 1250 -91 836 529  Q 422 1150 422 2328  Q 422 3509 836 4129  Q 1250 4750 2034 4750  z "
                   transform="scale(0.015625)" />
              </defs>
              <use
                 xlink:href="#DejaVuSans-36"
                 id="use43" />
              <use
                 xlink:href="#DejaVuSans-30"
                 x="63.623047"
                 id="use44" />
              <use
                 xlink:href="#DejaVuSans-30"
                 x="127.246094"
                 id="use45" />
              <use
                 xlink:href="#DejaVuSans-30"
                 x="190.869141"
                 id="use46" />
              <use
                 xlink:href="#DejaVuSans-30"
                 x="254.492188"
                 id="use47" />
            </g>
          </g>
        </g>
        <g
           id="ytick_2">
          <g
             id="line2d_5">
            <g
               id="g48">
              <use
                 xlink:href="#m8f6d85b2a4"
                 x="57.6"
                 y="224.003368"
                 style="stroke: #000000; stroke-width: 0.8"
                 id="use48" />
            </g>
          </g>
          <g
             id="text_6">
            <!-- 70000 -->
            <g
               transform="translate(18.7875 227.802587) scale(0.1 -0.1)"
               id="g53">
              <defs
                 id="defs48">
                <path
                   id="DejaVuSans-37"
                   d="M 525 4666  L 3525 4666  L 3525 4397  L 1831 0  L 1172 0  L 2766 4134  L 525 4134  L 525 4666  z "
                   transform="scale(0.015625)" />
              </defs>
              <use
                 xlink:href="#DejaVuSans-37"
                 id="use49" />
              <use
                 xlink:href="#DejaVuSans-30"
                 x="63.623047"
                 id="use50" />
              <use
                 xlink:href="#DejaVuSans-30"
                 x="127.246094"
                 id="use51" />
              <use
                 xlink:href="#DejaVuSans-30"
                 x="190.869141"
                 id="use52" />
              <use
                 xlink:href="#DejaVuSans-30"
                 x="254.492188"
                 id="use53" />
            </g>
          </g>
        </g>
        <g
           id="ytick_3">
          <g
             id="line2d_6">
            <g
               id="g54">
              <use
                 xlink:href="#m8f6d85b2a4"
                 x="57.6"
                 y="167.161263"
                 style="stroke: #000000; stroke-width: 0.8"
                 id="use54" />
            </g>
          </g>
          <g
             id="text_7">
            <!-- 80000 -->
            <g
               transform="translate(18.7875 170.960482) scale(0.1 -0.1)"
               id="g59">
              <defs
                 id="defs54">
                <path
                   id="DejaVuSans-38"
                   d="M 2034 2216  Q 1584 2216 1326 1975  Q 1069 1734 1069 1313  Q 1069 891 1326 650  Q 1584 409 2034 409  Q 2484 409 2743 651  Q 3003 894 3003 1313  Q 3003 1734 2745 1975  Q 2488 2216 2034 2216  z M 1403 2484  Q 997 2584 770 2862  Q 544 3141 544 3541  Q 544 4100 942 4425  Q 1341 4750 2034 4750  Q 2731 4750 3128 4425  Q 3525 4100 3525 3541  Q 3525 3141 3298 2862  Q 3072 2584 2669 2484  Q 3125 2378 3379 2068  Q 3634 1759 3634 1313  Q 3634 634 3220 271  Q 2806 -91 2034 -91  Q 1263 -91 848 271  Q 434 634 434 1313  Q 434 1759 690 2068  Q 947 2378 1403 2484  z M 1172 3481  Q 1172 3119 1398 2916  Q 1625 2713 2034 2713  Q 2441 2713 2670 2916  Q 2900 3119 2900 3481  Q 2900 3844 2670 4047  Q 2441 4250 2034 4250  Q 1625 4250 1398 4047  Q 1172 3844 1172 3481  z "
                   transform="scale(0.015625)" />
              </defs>
              <use
                 xlink:href="#DejaVuSans-38"
                 id="use55" />
              <use
                 xlink:href="#DejaVuSans-30"
                 x="63.623047"
                 id="use56" />
              <use
                 xlink:href="#DejaVuSans-30"
                 x="127.246094"
                 id="use57" />
              <use
                 xlink:href="#DejaVuSans-30"
                 x="190.869141"
                 id="use58" />
              <use
                 xlink:href="#DejaVuSans-30"
                 x="254.492188"
                 id="use59" />
            </g>
          </g>
        </g>
        <g
           id="ytick_4">
          <g
             id="line2d_7">
            <g
               id="g60">
              <use
                 xlink:href="#m8f6d85b2a4"
                 x="57.6"
                 y="110.319158"
                 style="stroke: #000000; stroke-width: 0.8"
                 id="use60" />
            </g>
          </g>
          <g
             id="text_8">
            <!-- 90000 -->
            <g
               transform="translate(18.7875 114.118377) scale(0.1 -0.1)"
               id="g65">
              <defs
                 id="defs60">
                <path
                   id="DejaVuSans-39"
                   d="M 703 97  L 703 672  Q 941 559 1184 500  Q 1428 441 1663 441  Q 2288 441 2617 861  Q 2947 1281 2994 2138  Q 2813 1869 2534 1725  Q 2256 1581 1919 1581  Q 1219 1581 811 2004  Q 403 2428 403 3163  Q 403 3881 828 4315  Q 1253 4750 1959 4750  Q 2769 4750 3195 4129  Q 3622 3509 3622 2328  Q 3622 1225 3098 567  Q 2575 -91 1691 -91  Q 1453 -91 1209 -44  Q 966 3 703 97  z M 1959 2075  Q 2384 2075 2632 2365  Q 2881 2656 2881 3163  Q 2881 3666 2632 3958  Q 2384 4250 1959 4250  Q 1534 4250 1286 3958  Q 1038 3666 1038 3163  Q 1038 2656 1286 2365  Q 1534 2075 1959 2075  z "
                   transform="scale(0.015625)" />
              </defs>
              <use
                 xlink:href="#DejaVuSans-39"
                 id="use61" />
              <use
                 xlink:href="#DejaVuSans-30"
                 x="63.623047"
                 id="use62" />
              <use
                 xlink:href="#DejaVuSans-30"
                 x="127.246094"
                 id="use63" />
              <use
                 xlink:href="#DejaVuSans-30"
                 x="190.869141"
                 id="use64" />
              <use
                 xlink:href="#DejaVuSans-30"
                 x="254.492188"
                 id="use65" />
            </g>
          </g>
        </g>
        <g
           id="ytick_5">
          <g
             id="line2d_8">
            <g
               id="g66">
              <use
                 xlink:href="#m8f6d85b2a4"
                 x="57.6"
                 y="53.477053"
                 style="stroke: #000000; stroke-width: 0.8"
                 id="use66" />
            </g>
          </g>
          <g
             id="text_9">
            <!-- 100000 -->
            <g
               transform="translate(12.425 57.276271) scale(0.1 -0.1)"
               id="g72">
              <defs
                 id="defs66">
                <path
                   id="DejaVuSans-31"
                   d="M 794 531  L 1825 531  L 1825 4091  L 703 3866  L 703 4441  L 1819 4666  L 2450 4666  L 2450 531  L 3481 531  L 3481 0  L 794 0  L 794 531  z "
                   transform="scale(0.015625)" />
              </defs>
              <use
                 xlink:href="#DejaVuSans-31"
                 id="use67" />
              <use
                 xlink:href="#DejaVuSans-30"
                 x="63.623047"
                 id="use68" />
              <use
                 xlink:href="#DejaVuSans-30"
                 x="127.246094"
                 id="use69" />
              <use
                 xlink:href="#DejaVuSans-30"
                 x="190.869141"
                 id="use70" />
              <use
                 xlink:href="#DejaVuSans-30"
                 x="254.492188"
                 id="use71" />
              <use
                 xlink:href="#DejaVuSans-30"
                 x="318.115234"
                 id="use72" />
            </g>
          </g>
        </g>
        <g
           id="text_10"
           transform="translate(4.8077587,-0.89741381)">
          <!-- Soma -->
          <g
             transform="matrix(0,-0.1,-0.1,0,6.345312,188.69597)"
             id="g76">
            <defs
               id="defs72">
              <path
                 id="DejaVuSans-53"
                 d="m 3425,4513 v -616 q -359,172 -678,256 -319,85 -616,85 -515,0 -795,-200 -280,-200 -280,-569 0,-310 186,-468 186,-157 705,-254 l 381,-78 q 706,-135 1042,-474 336,-339 336,-907 0,-679 -455,-1029 -454,-350 -1332,-350 -331,0 -705,75 -373,75 -773,222 v 650 q 384,-215 753,-325 369,-109 725,-109 540,0 834,212 294,213 294,607 0,343 -211,537 -211,194 -692,291 l -385,75 q -706,140 -1022,440 -315,300 -315,835 0,619 436,975 436,356 1201,356 329,0 669,-60 341,-59 697,-177 z"
                 transform="scale(0.015625)" />
            </defs>
            <use
               xlink:href="#DejaVuSans-53"
               id="use73" />
            <use
               xlink:href="#DejaVuSans-6f"
               x="63.476562"
               id="use74" />
            <use
               xlink:href="#DejaVuSans-6d"
               x="124.6582"
               id="use75" />
            <use
               xlink:href="#DejaVuSans-61"
               x="222.07031"
               id="use76" />
          </g>
        </g>
      </g>
      <g
         id="patch_3">
        <path
           d="M 69.504 198.560842  L 164.736 198.560842  L 164.736 119.611421  L 69.504 119.611421  L 69.504 198.560842  z "
           clip-path="url(#pe42b9266fb)"
           style="fill: #808080; stroke: #4d4d4d; stroke-linejoin: miter"
           id="path76" />
      </g>
      <g
         id="line2d_9">
        <path
           d="M 117.12 198.560842  L 117.12 295.488  "
           clip-path="url(#pe42b9266fb)"
           style="fill: none; stroke: #4d4d4d"
           id="path77" />
      </g>
      <g
         id="line2d_10">
        <path
           d="M 117.12 119.611421  L 117.12 53.931789  "
           clip-path="url(#pe42b9266fb)"
           style="fill: none; stroke: #4d4d4d"
           id="path78" />
      </g>
      <g
         id="line2d_11">
        <path
           d="M 93.312 295.488  L 140.928 295.488  "
           clip-path="url(#pe42b9266fb)"
           style="fill: none; stroke: #4d4d4d; stroke-linecap: square"
           id="path79" />
      </g>
      <g
         id="line2d_12">
        <path
           d="M 93.312 53.931789  L 140.928 53.931789  "
           clip-path="url(#pe42b9266fb)"
           style="fill: none; stroke: #4d4d4d; stroke-linecap: square"
           id="path80" />
      </g>
      <g
         id="line2d_13" />
      <g
         id="patch_4">
        <path
           d="M 188.544 295.488  L 283.776 295.488  L 283.776 295.488  L 188.544 295.488  L 188.544 295.488  z "
           clip-path="url(#pe42b9266fb)"
           style="fill: #808080; stroke: #4d4d4d; stroke-linejoin: miter"
           id="path81" />
      </g>
      <g
         id="line2d_14">
        <path
           d="M 236.16 295.488  L 236.16 295.488  "
           clip-path="url(#pe42b9266fb)"
           style="fill: none; stroke: #4d4d4d"
           id="path82" />
      </g>
      <g
         id="line2d_15">
        <path
           d="M 236.16 295.488  L 236.16 295.488  "
           clip-path="url(#pe42b9266fb)"
           style="fill: none; stroke: #4d4d4d"
           id="path83" />
      </g>
      <g
         id="line2d_16">
        <path
           d="M 212.352 295.488  L 259.968 295.488  "
           clip-path="url(#pe42b9266fb)"
           style="fill: none; stroke: #4d4d4d; stroke-linecap: square"
           id="path84" />
      </g>
      <g
         id="line2d_17">
        <path
           d="M 212.352 295.488  L 259.968 295.488  "
           clip-path="url(#pe42b9266fb)"
           style="fill: none; stroke: #4d4d4d; stroke-linecap: square"
           id="path85" />
      </g>
      <g
         id="line2d_18" />
      <g
         id="patch_5">
        <path
           d="M 307.584 53.602105  L 402.816 53.602105  L 402.816 53.579368  L 307.584 53.579368  L 307.584 53.602105  z "
           clip-path="url(#pe42b9266fb)"
           style="fill: #808080; stroke: #4d4d4d; stroke-linejoin: miter"
           id="path86" />
      </g>
      <g
         id="line2d_19">
        <path
           d="M 355.2 53.602105  L 355.2 53.624842  "
           clip-path="url(#pe42b9266fb)"
           style="fill: none; stroke: #4d4d4d"
           id="path87" />
      </g>
      <g
         id="line2d_20">
        <path
           d="M 355.2 53.579368  L 355.2 53.568  "
           clip-path="url(#pe42b9266fb)"
           style="fill: none; stroke: #4d4d4d"
           id="path88" />
      </g>
      <g
         id="line2d_21">
        <path
           d="M 331.392 53.624842  L 379.008 53.624842  "
           clip-path="url(#pe42b9266fb)"
           style="fill: none; stroke: #4d4d4d; stroke-linecap: square"
           id="path89" />
      </g>
      <g
         id="line2d_22">
        <path
           d="M 331.392 53.568  L 379.008 53.568  "
           clip-path="url(#pe42b9266fb)"
           style="fill: none; stroke: #4d4d4d; stroke-linecap: square"
           id="path90" />
      </g>
      <g
         id="line2d_23" />
      <g
         id="line2d_24">
        <path
           d="M 69.504 179.524421  L 164.736 179.524421  "
           clip-path="url(#pe42b9266fb)"
           style="fill: none; stroke: #4d4d4d"
           id="path91" />
      </g>
      <g
         id="line2d_25">
        <path
           d="M 188.544 295.488  L 283.776 295.488  "
           clip-path="url(#pe42b9266fb)"
           style="fill: none; stroke: #4d4d4d"
           id="path92" />
      </g>
      <g
         id="line2d_26">
        <path
           d="M 307.584 53.596421  L 402.816 53.596421  "
           clip-path="url(#pe42b9266fb)"
           style="fill: none; stroke: #4d4d4d"
           id="path93" />
      </g>
      <g
         id="patch_6">
        <path
           d="M 57.6 307.584  L 57.6 41.472  "
           style="fill: none; stroke: #000000; stroke-width: 0.8; stroke-linejoin: miter; stroke-linecap: square"
           id="path94" />
      </g>
      <g
         id="patch_7">
        <path
           d="M 414.72 307.584  L 414.72 41.472  "
           style="fill: none; stroke: #000000; stroke-width: 0.8; stroke-linejoin: miter; stroke-linecap: square"
           id="path95" />
      </g>
      <g
         id="patch_8">
        <path
           d="M 57.6 307.584  L 414.72 307.584  "
           style="fill: none; stroke: #000000; stroke-width: 0.8; stroke-linejoin: miter; stroke-linecap: square"
           id="path96" />
      </g>
      <g
         id="patch_9">
        <path
           d="M 57.6 41.472  L 414.72 41.472  "
           style="fill: none; stroke: #000000; stroke-width: 0.8; stroke-linejoin: miter; stroke-linecap: square"
           id="path97" />
      </g>
    </g>
  </g>
  <defs
     id="defs97">
    <clipPath
       id="pe42b9266fb">
      <rect
         x="57.6"
         y="41.472"
         width="357.12"
         height="266.112"
         id="rect97" />
    </clipPath>
  </defs>
</svg>
