<?xml version="1.0" encoding="utf-8" standalone="no"?>
<!DOCTYPE svg PUBLIC "-//W3C//DTD SVG 1.1//EN"
  "http://www.w3.org/Graphics/SVG/1.1/DTD/svg11.dtd">
<svg xmlns:xlink="http://www.w3.org/1999/xlink" width="460.8pt" height="345.6pt" viewBox="0 0 460.8 345.6" xmlns="http://www.w3.org/2000/svg" version="1.1">
 <metadata>
  <rdf:RDF xmlns:dc="http://purl.org/dc/elements/1.1/" xmlns:cc="http://creativecommons.org/ns#" xmlns:rdf="http://www.w3.org/1999/02/22-rdf-syntax-ns#">
   <cc:Work>
    <dc:type rdf:resource="http://purl.org/dc/dcmitype/StillImage"/>
    <dc:date>2024-05-30T19:53:53.281307</dc:date>
    <dc:format>image/svg+xml</dc:format>
    <dc:creator>
     <cc:Agent>
      <dc:title>Matplotlib v3.9.0, https://matplotlib.org/</dc:title>
     </cc:Agent>
    </dc:creator>
   </cc:Work>
  </rdf:RDF>
 </metadata>
 <defs>
  <style type="text/css">*{stroke-linejoin: round; stroke-linecap: butt}</style>
 </defs>
 <g id="figure_1">
  <g id="patch_1">
   <path d="M 0 345.6 
L 460.8 345.6 
L 460.8 0 
L 0 0 
z
" style="fill: #ffffff"/>
  </g>
  <g id="axes_1">
   <g id="patch_2">
    <path d="M 57.6 307.584 
L 414.72 307.584 
L 414.72 41.472 
L 57.6 41.472 
z
" style="fill: #ffffff"/>
   </g>
   <g id="PolyCollection_1"/>
   <g id="PolyCollection_2"/>
   <g id="PolyCollection_3"/>
   <g id="PolyCollection_4"/>
   <g id="PolyCollection_5"/>
   <g id="PolyCollection_6"/>
   <g id="PolyCollection_7"/>
   <g id="PolyCollection_8"/>
   <g id="PolyCollection_9"/>
   <g id="PolyCollection_10"/>
   <g id="PolyCollection_11"/>
   <g id="PolyCollection_12"/>
   <g id="PolyCollection_13"/>
   <g id="PolyCollection_14"/>
   <g id="PolyCollection_15"/>
   <g id="PolyCollection_16"/>
   <g id="PolyCollection_17"/>
   <g id="PolyCollection_18"/>
   <g id="PolyCollection_19"/>
   <g id="PolyCollection_20"/>
   <g id="PolyCollection_21"/>
   <g id="PolyCollection_22"/>
   <g id="PolyCollection_23"/>
   <g id="PolyCollection_24"/>
   <g id="PolyCollection_25"/>
   <g id="PolyCollection_26"/>
   <g id="matplotlib.axis_1">
    <g id="xtick_1">
     <g id="line2d_1">
      <defs>
       <path id="m7c4f180066" d="M 0 0 
L 0 3.5 
" style="stroke: #000000; stroke-width: 0.8"/>
      </defs>
      <g>
       <use xlink:href="#m7c4f180066" x="73.832727" y="307.584" style="stroke: #000000; stroke-width: 0.8"/>
      </g>
     </g>
     <g id="text_1">
      <!-- 0 -->
      <g transform="translate(70.651477 322.182437) scale(0.1 -0.1)">
       <defs>
        <path id="DejaVuSans-30" d="M 2034 4250 
Q 1547 4250 1301 3770 
Q 1056 3291 1056 2328 
Q 1056 1369 1301 889 
Q 1547 409 2034 409 
Q 2525 409 2770 889 
Q 3016 1369 3016 2328 
Q 3016 3291 2770 3770 
Q 2525 4250 2034 4250 
z
M 2034 4750 
Q 2819 4750 3233 4129 
Q 3647 3509 3647 2328 
Q 3647 1150 3233 529 
Q 2819 -91 2034 -91 
Q 1250 -91 836 529 
Q 422 1150 422 2328 
Q 422 3509 836 4129 
Q 1250 4750 2034 4750 
z
" transform="scale(0.015625)"/>
       </defs>
       <use xlink:href="#DejaVuSans-30"/>
      </g>
     </g>
    </g>
    <g id="xtick_2">
     <g id="line2d_2">
      <g>
       <use xlink:href="#m7c4f180066" x="130.789665" y="307.584" style="stroke: #000000; stroke-width: 0.8"/>
      </g>
     </g>
     <g id="text_2">
      <!-- 10000 -->
      <g transform="translate(114.883415 322.182437) scale(0.1 -0.1)">
       <defs>
        <path id="DejaVuSans-31" d="M 794 531 
L 1825 531 
L 1825 4091 
L 703 3866 
L 703 4441 
L 1819 4666 
L 2450 4666 
L 2450 531 
L 3481 531 
L 3481 0 
L 794 0 
L 794 531 
z
" transform="scale(0.015625)"/>
       </defs>
       <use xlink:href="#DejaVuSans-31"/>
       <use xlink:href="#DejaVuSans-30" x="63.623047"/>
       <use xlink:href="#DejaVuSans-30" x="127.246094"/>
       <use xlink:href="#DejaVuSans-30" x="190.869141"/>
       <use xlink:href="#DejaVuSans-30" x="254.492188"/>
      </g>
     </g>
    </g>
    <g id="xtick_3">
     <g id="line2d_3">
      <g>
       <use xlink:href="#m7c4f180066" x="187.746603" y="307.584" style="stroke: #000000; stroke-width: 0.8"/>
      </g>
     </g>
     <g id="text_3">
      <!-- 20000 -->
      <g transform="translate(171.840353 322.182437) scale(0.1 -0.1)">
       <defs>
        <path id="DejaVuSans-32" d="M 1228 531 
L 3431 531 
L 3431 0 
L 469 0 
L 469 531 
Q 828 903 1448 1529 
Q 2069 2156 2228 2338 
Q 2531 2678 2651 2914 
Q 2772 3150 2772 3378 
Q 2772 3750 2511 3984 
Q 2250 4219 1831 4219 
Q 1534 4219 1204 4116 
Q 875 4013 500 3803 
L 500 4441 
Q 881 4594 1212 4672 
Q 1544 4750 1819 4750 
Q 2544 4750 2975 4387 
Q 3406 4025 3406 3419 
Q 3406 3131 3298 2873 
Q 3191 2616 2906 2266 
Q 2828 2175 2409 1742 
Q 1991 1309 1228 531 
z
" transform="scale(0.015625)"/>
       </defs>
       <use xlink:href="#DejaVuSans-32"/>
       <use xlink:href="#DejaVuSans-30" x="63.623047"/>
       <use xlink:href="#DejaVuSans-30" x="127.246094"/>
       <use xlink:href="#DejaVuSans-30" x="190.869141"/>
       <use xlink:href="#DejaVuSans-30" x="254.492188"/>
      </g>
     </g>
    </g>
    <g id="xtick_4">
     <g id="line2d_4">
      <g>
       <use xlink:href="#m7c4f180066" x="244.703541" y="307.584" style="stroke: #000000; stroke-width: 0.8"/>
      </g>
     </g>
     <g id="text_4">
      <!-- 30000 -->
      <g transform="translate(228.797291 322.182437) scale(0.1 -0.1)">
       <defs>
        <path id="DejaVuSans-33" d="M 2597 2516 
Q 3050 2419 3304 2112 
Q 3559 1806 3559 1356 
Q 3559 666 3084 287 
Q 2609 -91 1734 -91 
Q 1441 -91 1130 -33 
Q 819 25 488 141 
L 488 750 
Q 750 597 1062 519 
Q 1375 441 1716 441 
Q 2309 441 2620 675 
Q 2931 909 2931 1356 
Q 2931 1769 2642 2001 
Q 2353 2234 1838 2234 
L 1294 2234 
L 1294 2753 
L 1863 2753 
Q 2328 2753 2575 2939 
Q 2822 3125 2822 3475 
Q 2822 3834 2567 4026 
Q 2313 4219 1838 4219 
Q 1578 4219 1281 4162 
Q 984 4106 628 3988 
L 628 4550 
Q 988 4650 1302 4700 
Q 1616 4750 1894 4750 
Q 2613 4750 3031 4423 
Q 3450 4097 3450 3541 
Q 3450 3153 3228 2886 
Q 3006 2619 2597 2516 
z
" transform="scale(0.015625)"/>
       </defs>
       <use xlink:href="#DejaVuSans-33"/>
       <use xlink:href="#DejaVuSans-30" x="63.623047"/>
       <use xlink:href="#DejaVuSans-30" x="127.246094"/>
       <use xlink:href="#DejaVuSans-30" x="190.869141"/>
       <use xlink:href="#DejaVuSans-30" x="254.492188"/>
      </g>
     </g>
    </g>
    <g id="xtick_5">
     <g id="line2d_5">
      <g>
       <use xlink:href="#m7c4f180066" x="301.660478" y="307.584" style="stroke: #000000; stroke-width: 0.8"/>
      </g>
     </g>
     <g id="text_5">
      <!-- 40000 -->
      <g transform="translate(285.754228 322.182437) scale(0.1 -0.1)">
       <defs>
        <path id="DejaVuSans-34" d="M 2419 4116 
L 825 1625 
L 2419 1625 
L 2419 4116 
z
M 2253 4666 
L 3047 4666 
L 3047 1625 
L 3713 1625 
L 3713 1100 
L 3047 1100 
L 3047 0 
L 2419 0 
L 2419 1100 
L 313 1100 
L 313 1709 
L 2253 4666 
z
" transform="scale(0.015625)"/>
       </defs>
       <use xlink:href="#DejaVuSans-34"/>
       <use xlink:href="#DejaVuSans-30" x="63.623047"/>
       <use xlink:href="#DejaVuSans-30" x="127.246094"/>
       <use xlink:href="#DejaVuSans-30" x="190.869141"/>
       <use xlink:href="#DejaVuSans-30" x="254.492188"/>
      </g>
     </g>
    </g>
    <g id="xtick_6">
     <g id="line2d_6">
      <g>
       <use xlink:href="#m7c4f180066" x="358.617416" y="307.584" style="stroke: #000000; stroke-width: 0.8"/>
      </g>
     </g>
     <g id="text_6">
      <!-- 50000 -->
      <g transform="translate(342.711166 322.182437) scale(0.1 -0.1)">
       <defs>
        <path id="DejaVuSans-35" d="M 691 4666 
L 3169 4666 
L 3169 4134 
L 1269 4134 
L 1269 2991 
Q 1406 3038 1543 3061 
Q 1681 3084 1819 3084 
Q 2600 3084 3056 2656 
Q 3513 2228 3513 1497 
Q 3513 744 3044 326 
Q 2575 -91 1722 -91 
Q 1428 -91 1123 -41 
Q 819 9 494 109 
L 494 744 
Q 775 591 1075 516 
Q 1375 441 1709 441 
Q 2250 441 2565 725 
Q 2881 1009 2881 1497 
Q 2881 1984 2565 2268 
Q 2250 2553 1709 2553 
Q 1456 2553 1204 2497 
Q 953 2441 691 2322 
L 691 4666 
z
" transform="scale(0.015625)"/>
       </defs>
       <use xlink:href="#DejaVuSans-35"/>
       <use xlink:href="#DejaVuSans-30" x="63.623047"/>
       <use xlink:href="#DejaVuSans-30" x="127.246094"/>
       <use xlink:href="#DejaVuSans-30" x="190.869141"/>
       <use xlink:href="#DejaVuSans-30" x="254.492188"/>
      </g>
     </g>
    </g>
    <g id="text_7">
     <!-- Nº de reads amostradas -->
     <g transform="translate(175.661563 335.860562) scale(0.1 -0.1)">
      <defs>
       <path id="DejaVuSans-4e" d="M 628 4666 
L 1478 4666 
L 3547 763 
L 3547 4666 
L 4159 4666 
L 4159 0 
L 3309 0 
L 1241 3903 
L 1241 0 
L 628 0 
L 628 4666 
z
" transform="scale(0.015625)"/>
       <path id="DejaVuSans-ba" d="M 434 1850 
L 2584 1850 
L 2584 1466 
L 434 1466 
L 434 1850 
z
M 1509 4750 
Q 2069 4750 2391 4404 
Q 2713 4059 2713 3463 
Q 2713 2866 2391 2523 
Q 2069 2181 1509 2181 
Q 950 2181 625 2525 
Q 300 2869 300 3463 
Q 300 4059 625 4404 
Q 950 4750 1509 4750 
z
M 1509 4391 
Q 1181 4391 984 4139 
Q 788 3888 788 3463 
Q 788 3047 986 2797 
Q 1184 2547 1509 2547 
Q 1838 2547 2033 2797 
Q 2228 3047 2228 3463 
Q 2228 3891 2034 4141 
Q 1841 4391 1509 4391 
z
" transform="scale(0.015625)"/>
       <path id="DejaVuSans-20" transform="scale(0.015625)"/>
       <path id="DejaVuSans-64" d="M 2906 2969 
L 2906 4863 
L 3481 4863 
L 3481 0 
L 2906 0 
L 2906 525 
Q 2725 213 2448 61 
Q 2172 -91 1784 -91 
Q 1150 -91 751 415 
Q 353 922 353 1747 
Q 353 2572 751 3078 
Q 1150 3584 1784 3584 
Q 2172 3584 2448 3432 
Q 2725 3281 2906 2969 
z
M 947 1747 
Q 947 1113 1208 752 
Q 1469 391 1925 391 
Q 2381 391 2643 752 
Q 2906 1113 2906 1747 
Q 2906 2381 2643 2742 
Q 2381 3103 1925 3103 
Q 1469 3103 1208 2742 
Q 947 2381 947 1747 
z
" transform="scale(0.015625)"/>
       <path id="DejaVuSans-65" d="M 3597 1894 
L 3597 1613 
L 953 1613 
Q 991 1019 1311 708 
Q 1631 397 2203 397 
Q 2534 397 2845 478 
Q 3156 559 3463 722 
L 3463 178 
Q 3153 47 2828 -22 
Q 2503 -91 2169 -91 
Q 1331 -91 842 396 
Q 353 884 353 1716 
Q 353 2575 817 3079 
Q 1281 3584 2069 3584 
Q 2775 3584 3186 3129 
Q 3597 2675 3597 1894 
z
M 3022 2063 
Q 3016 2534 2758 2815 
Q 2500 3097 2075 3097 
Q 1594 3097 1305 2825 
Q 1016 2553 972 2059 
L 3022 2063 
z
" transform="scale(0.015625)"/>
       <path id="DejaVuSans-72" d="M 2631 2963 
Q 2534 3019 2420 3045 
Q 2306 3072 2169 3072 
Q 1681 3072 1420 2755 
Q 1159 2438 1159 1844 
L 1159 0 
L 581 0 
L 581 3500 
L 1159 3500 
L 1159 2956 
Q 1341 3275 1631 3429 
Q 1922 3584 2338 3584 
Q 2397 3584 2469 3576 
Q 2541 3569 2628 3553 
L 2631 2963 
z
" transform="scale(0.015625)"/>
       <path id="DejaVuSans-61" d="M 2194 1759 
Q 1497 1759 1228 1600 
Q 959 1441 959 1056 
Q 959 750 1161 570 
Q 1363 391 1709 391 
Q 2188 391 2477 730 
Q 2766 1069 2766 1631 
L 2766 1759 
L 2194 1759 
z
M 3341 1997 
L 3341 0 
L 2766 0 
L 2766 531 
Q 2569 213 2275 61 
Q 1981 -91 1556 -91 
Q 1019 -91 701 211 
Q 384 513 384 1019 
Q 384 1609 779 1909 
Q 1175 2209 1959 2209 
L 2766 2209 
L 2766 2266 
Q 2766 2663 2505 2880 
Q 2244 3097 1772 3097 
Q 1472 3097 1187 3025 
Q 903 2953 641 2809 
L 641 3341 
Q 956 3463 1253 3523 
Q 1550 3584 1831 3584 
Q 2591 3584 2966 3190 
Q 3341 2797 3341 1997 
z
" transform="scale(0.015625)"/>
       <path id="DejaVuSans-73" d="M 2834 3397 
L 2834 2853 
Q 2591 2978 2328 3040 
Q 2066 3103 1784 3103 
Q 1356 3103 1142 2972 
Q 928 2841 928 2578 
Q 928 2378 1081 2264 
Q 1234 2150 1697 2047 
L 1894 2003 
Q 2506 1872 2764 1633 
Q 3022 1394 3022 966 
Q 3022 478 2636 193 
Q 2250 -91 1575 -91 
Q 1294 -91 989 -36 
Q 684 19 347 128 
L 347 722 
Q 666 556 975 473 
Q 1284 391 1588 391 
Q 1994 391 2212 530 
Q 2431 669 2431 922 
Q 2431 1156 2273 1281 
Q 2116 1406 1581 1522 
L 1381 1569 
Q 847 1681 609 1914 
Q 372 2147 372 2553 
Q 372 3047 722 3315 
Q 1072 3584 1716 3584 
Q 2034 3584 2315 3537 
Q 2597 3491 2834 3397 
z
" transform="scale(0.015625)"/>
       <path id="DejaVuSans-6d" d="M 3328 2828 
Q 3544 3216 3844 3400 
Q 4144 3584 4550 3584 
Q 5097 3584 5394 3201 
Q 5691 2819 5691 2113 
L 5691 0 
L 5113 0 
L 5113 2094 
Q 5113 2597 4934 2840 
Q 4756 3084 4391 3084 
Q 3944 3084 3684 2787 
Q 3425 2491 3425 1978 
L 3425 0 
L 2847 0 
L 2847 2094 
Q 2847 2600 2669 2842 
Q 2491 3084 2119 3084 
Q 1678 3084 1418 2786 
Q 1159 2488 1159 1978 
L 1159 0 
L 581 0 
L 581 3500 
L 1159 3500 
L 1159 2956 
Q 1356 3278 1631 3431 
Q 1906 3584 2284 3584 
Q 2666 3584 2933 3390 
Q 3200 3197 3328 2828 
z
" transform="scale(0.015625)"/>
       <path id="DejaVuSans-6f" d="M 1959 3097 
Q 1497 3097 1228 2736 
Q 959 2375 959 1747 
Q 959 1119 1226 758 
Q 1494 397 1959 397 
Q 2419 397 2687 759 
Q 2956 1122 2956 1747 
Q 2956 2369 2687 2733 
Q 2419 3097 1959 3097 
z
M 1959 3584 
Q 2709 3584 3137 3096 
Q 3566 2609 3566 1747 
Q 3566 888 3137 398 
Q 2709 -91 1959 -91 
Q 1206 -91 779 398 
Q 353 888 353 1747 
Q 353 2609 779 3096 
Q 1206 3584 1959 3584 
z
" transform="scale(0.015625)"/>
       <path id="DejaVuSans-74" d="M 1172 4494 
L 1172 3500 
L 2356 3500 
L 2356 3053 
L 1172 3053 
L 1172 1153 
Q 1172 725 1289 603 
Q 1406 481 1766 481 
L 2356 481 
L 2356 0 
L 1766 0 
Q 1100 0 847 248 
Q 594 497 594 1153 
L 594 3053 
L 172 3053 
L 172 3500 
L 594 3500 
L 594 4494 
L 1172 4494 
z
" transform="scale(0.015625)"/>
      </defs>
      <use xlink:href="#DejaVuSans-4e"/>
      <use xlink:href="#DejaVuSans-ba" x="74.804688"/>
      <use xlink:href="#DejaVuSans-20" x="121.923828"/>
      <use xlink:href="#DejaVuSans-64" x="153.710938"/>
      <use xlink:href="#DejaVuSans-65" x="217.1875"/>
      <use xlink:href="#DejaVuSans-20" x="278.710938"/>
      <use xlink:href="#DejaVuSans-72" x="310.498047"/>
      <use xlink:href="#DejaVuSans-65" x="349.361328"/>
      <use xlink:href="#DejaVuSans-61" x="410.884766"/>
      <use xlink:href="#DejaVuSans-64" x="472.164062"/>
      <use xlink:href="#DejaVuSans-73" x="535.640625"/>
      <use xlink:href="#DejaVuSans-20" x="587.740234"/>
      <use xlink:href="#DejaVuSans-61" x="619.527344"/>
      <use xlink:href="#DejaVuSans-6d" x="680.806641"/>
      <use xlink:href="#DejaVuSans-6f" x="778.21875"/>
      <use xlink:href="#DejaVuSans-73" x="839.400391"/>
      <use xlink:href="#DejaVuSans-74" x="891.5"/>
      <use xlink:href="#DejaVuSans-72" x="930.708984"/>
      <use xlink:href="#DejaVuSans-61" x="971.822266"/>
      <use xlink:href="#DejaVuSans-64" x="1033.101562"/>
      <use xlink:href="#DejaVuSans-61" x="1096.578125"/>
      <use xlink:href="#DejaVuSans-73" x="1157.857422"/>
     </g>
    </g>
   </g>
   <g id="matplotlib.axis_2">
    <g id="ytick_1">
     <g id="line2d_7">
      <defs>
       <path id="m77d8bf5807" d="M 0 0 
L -3.5 0 
" style="stroke: #000000; stroke-width: 0.8"/>
      </defs>
      <g>
       <use xlink:href="#m77d8bf5807" x="57.6" y="295.488" style="stroke: #000000; stroke-width: 0.8"/>
      </g>
     </g>
     <g id="text_8">
      <!-- 0 -->
      <g transform="translate(44.2375 299.287219) scale(0.1 -0.1)">
       <use xlink:href="#DejaVuSans-30"/>
      </g>
     </g>
    </g>
    <g id="ytick_2">
     <g id="line2d_8">
      <g>
       <use xlink:href="#m77d8bf5807" x="57.6" y="247.104" style="stroke: #000000; stroke-width: 0.8"/>
      </g>
     </g>
     <g id="text_9">
      <!-- 10 -->
      <g transform="translate(37.875 250.903219) scale(0.1 -0.1)">
       <use xlink:href="#DejaVuSans-31"/>
       <use xlink:href="#DejaVuSans-30" x="63.623047"/>
      </g>
     </g>
    </g>
    <g id="ytick_3">
     <g id="line2d_9">
      <g>
       <use xlink:href="#m77d8bf5807" x="57.6" y="198.72" style="stroke: #000000; stroke-width: 0.8"/>
      </g>
     </g>
     <g id="text_10">
      <!-- 20 -->
      <g transform="translate(37.875 202.519219) scale(0.1 -0.1)">
       <use xlink:href="#DejaVuSans-32"/>
       <use xlink:href="#DejaVuSans-30" x="63.623047"/>
      </g>
     </g>
    </g>
    <g id="ytick_4">
     <g id="line2d_10">
      <g>
       <use xlink:href="#m77d8bf5807" x="57.6" y="150.336" style="stroke: #000000; stroke-width: 0.8"/>
      </g>
     </g>
     <g id="text_11">
      <!-- 30 -->
      <g transform="translate(37.875 154.135219) scale(0.1 -0.1)">
       <use xlink:href="#DejaVuSans-33"/>
       <use xlink:href="#DejaVuSans-30" x="63.623047"/>
      </g>
     </g>
    </g>
    <g id="ytick_5">
     <g id="line2d_11">
      <g>
       <use xlink:href="#m77d8bf5807" x="57.6" y="101.952" style="stroke: #000000; stroke-width: 0.8"/>
      </g>
     </g>
     <g id="text_12">
      <!-- 40 -->
      <g transform="translate(37.875 105.751219) scale(0.1 -0.1)">
       <use xlink:href="#DejaVuSans-34"/>
       <use xlink:href="#DejaVuSans-30" x="63.623047"/>
      </g>
     </g>
    </g>
    <g id="ytick_6">
     <g id="line2d_12">
      <g>
       <use xlink:href="#m77d8bf5807" x="57.6" y="53.568" style="stroke: #000000; stroke-width: 0.8"/>
      </g>
     </g>
     <g id="text_13">
      <!-- 50 -->
      <g transform="translate(37.875 57.367219) scale(0.1 -0.1)">
       <use xlink:href="#DejaVuSans-35"/>
       <use xlink:href="#DejaVuSans-30" x="63.623047"/>
      </g>
     </g>
    </g>
    <g id="text_14">
     <!-- Riqueza média -->
     <g transform="translate(31.795312 211.662375) rotate(-90) scale(0.1 -0.1)">
      <defs>
       <path id="DejaVuSans-52" d="M 2841 2188 
Q 3044 2119 3236 1894 
Q 3428 1669 3622 1275 
L 4263 0 
L 3584 0 
L 2988 1197 
Q 2756 1666 2539 1819 
Q 2322 1972 1947 1972 
L 1259 1972 
L 1259 0 
L 628 0 
L 628 4666 
L 2053 4666 
Q 2853 4666 3247 4331 
Q 3641 3997 3641 3322 
Q 3641 2881 3436 2590 
Q 3231 2300 2841 2188 
z
M 1259 4147 
L 1259 2491 
L 2053 2491 
Q 2509 2491 2742 2702 
Q 2975 2913 2975 3322 
Q 2975 3731 2742 3939 
Q 2509 4147 2053 4147 
L 1259 4147 
z
" transform="scale(0.015625)"/>
       <path id="DejaVuSans-69" d="M 603 3500 
L 1178 3500 
L 1178 0 
L 603 0 
L 603 3500 
z
M 603 4863 
L 1178 4863 
L 1178 4134 
L 603 4134 
L 603 4863 
z
" transform="scale(0.015625)"/>
       <path id="DejaVuSans-71" d="M 947 1747 
Q 947 1113 1208 752 
Q 1469 391 1925 391 
Q 2381 391 2643 752 
Q 2906 1113 2906 1747 
Q 2906 2381 2643 2742 
Q 2381 3103 1925 3103 
Q 1469 3103 1208 2742 
Q 947 2381 947 1747 
z
M 2906 525 
Q 2725 213 2448 61 
Q 2172 -91 1784 -91 
Q 1150 -91 751 415 
Q 353 922 353 1747 
Q 353 2572 751 3078 
Q 1150 3584 1784 3584 
Q 2172 3584 2448 3432 
Q 2725 3281 2906 2969 
L 2906 3500 
L 3481 3500 
L 3481 -1331 
L 2906 -1331 
L 2906 525 
z
" transform="scale(0.015625)"/>
       <path id="DejaVuSans-75" d="M 544 1381 
L 544 3500 
L 1119 3500 
L 1119 1403 
Q 1119 906 1312 657 
Q 1506 409 1894 409 
Q 2359 409 2629 706 
Q 2900 1003 2900 1516 
L 2900 3500 
L 3475 3500 
L 3475 0 
L 2900 0 
L 2900 538 
Q 2691 219 2414 64 
Q 2138 -91 1772 -91 
Q 1169 -91 856 284 
Q 544 659 544 1381 
z
M 1991 3584 
L 1991 3584 
z
" transform="scale(0.015625)"/>
       <path id="DejaVuSans-7a" d="M 353 3500 
L 3084 3500 
L 3084 2975 
L 922 459 
L 3084 459 
L 3084 0 
L 275 0 
L 275 525 
L 2438 3041 
L 353 3041 
L 353 3500 
z
" transform="scale(0.015625)"/>
       <path id="DejaVuSans-e9" d="M 3597 1894 
L 3597 1613 
L 953 1613 
Q 991 1019 1311 708 
Q 1631 397 2203 397 
Q 2534 397 2845 478 
Q 3156 559 3463 722 
L 3463 178 
Q 3153 47 2828 -22 
Q 2503 -91 2169 -91 
Q 1331 -91 842 396 
Q 353 884 353 1716 
Q 353 2575 817 3079 
Q 1281 3584 2069 3584 
Q 2775 3584 3186 3129 
Q 3597 2675 3597 1894 
z
M 3022 2063 
Q 3016 2534 2758 2815 
Q 2500 3097 2075 3097 
Q 1594 3097 1305 2825 
Q 1016 2553 972 2059 
L 3022 2063 
z
M 2466 5119 
L 3088 5119 
L 2070 3944 
L 1591 3944 
L 2466 5119 
z
" transform="scale(0.015625)"/>
      </defs>
      <use xlink:href="#DejaVuSans-52"/>
      <use xlink:href="#DejaVuSans-69" x="69.482422"/>
      <use xlink:href="#DejaVuSans-71" x="97.265625"/>
      <use xlink:href="#DejaVuSans-75" x="160.742188"/>
      <use xlink:href="#DejaVuSans-65" x="224.121094"/>
      <use xlink:href="#DejaVuSans-7a" x="285.644531"/>
      <use xlink:href="#DejaVuSans-61" x="338.134766"/>
      <use xlink:href="#DejaVuSans-20" x="399.414062"/>
      <use xlink:href="#DejaVuSans-6d" x="431.201172"/>
      <use xlink:href="#DejaVuSans-e9" x="528.613281"/>
      <use xlink:href="#DejaVuSans-64" x="590.136719"/>
      <use xlink:href="#DejaVuSans-69" x="653.613281"/>
      <use xlink:href="#DejaVuSans-61" x="681.396484"/>
     </g>
    </g>
   </g>
   <g id="line2d_13">
    <path d="M 73.832727 295.488 
L 76.680574 97.1136 
L 79.528421 86.95296 
L 82.376268 83.56608 
L 85.224115 83.56608 
L 88.071962 82.5984 
L 90.919809 82.5984 
L 93.767656 82.5984 
L 96.615502 83.08224 
L 99.463349 82.5984 
L 102.311196 82.5984 
L 105.159043 82.5984 
L 108.00689 82.5984 
L 110.854737 82.5984 
L 113.702584 82.5984 
L 116.550431 82.5984 
L 119.398278 82.5984 
L 122.246124 82.5984 
L 125.093971 82.5984 
L 127.941818 82.5984 
L 130.789665 82.5984 
L 133.637512 82.5984 
L 136.485359 82.5984 
L 139.333206 82.5984 
L 142.181053 82.5984 
L 145.0289 82.5984 
L 147.876746 82.5984 
L 150.724593 82.5984 
L 153.57244 82.5984 
L 156.420287 82.5984 
L 159.268134 82.5984 
L 162.115981 82.5984 
L 164.963828 82.5984 
L 167.811675 82.5984 
L 170.659522 82.5984 
L 173.507368 82.5984 
L 176.355215 82.5984 
L 179.203062 82.5984 
L 182.050909 82.5984 
L 184.898756 82.5984 
L 187.746603 82.5984 
L 190.59445 82.5984 
L 193.442297 82.5984 
L 196.290144 82.5984 
L 199.13799 82.5984 
L 201.985837 82.5984 
L 204.833684 82.5984 
L 207.681531 82.5984 
L 210.529378 82.5984 
L 213.377225 82.5984 
L 216.225072 82.5984 
L 219.072919 82.5984 
L 221.920766 82.5984 
L 224.768612 82.5984 
L 227.616459 82.5984 
L 230.464306 82.5984 
L 233.312153 82.5984 
L 236.16 82.5984 
L 239.007847 82.5984 
L 241.855694 82.5984 
L 244.703541 82.5984 
L 247.551388 82.5984 
L 250.399234 82.5984 
L 253.247081 82.5984 
L 256.094928 82.5984 
L 258.942775 82.5984 
L 261.790622 82.5984 
L 264.638469 82.5984 
L 267.486316 82.5984 
L 270.334163 82.5984 
L 273.18201 82.5984 
L 276.029856 82.5984 
L 278.877703 82.5984 
L 281.72555 82.5984 
L 284.573397 82.5984 
L 287.421244 82.5984 
L 290.269091 82.5984 
L 293.116938 82.5984 
L 295.964785 82.5984 
L 298.812632 82.5984 
L 301.660478 82.5984 
L 304.508325 82.5984 
L 307.356172 82.5984 
L 310.204019 82.5984 
L 313.051866 82.5984 
L 315.899713 82.5984 
L 318.74756 82.5984 
L 321.595407 82.5984 
L 324.443254 82.5984 
L 327.2911 82.5984 
L 330.138947 82.5984 
L 332.986794 82.5984 
L 335.834641 82.5984 
L 338.682488 82.5984 
L 341.530335 82.5984 
L 344.378182 82.5984 
L 347.226029 82.5984 
L 350.073876 82.5984 
L 352.921722 82.5984 
L 355.769569 82.5984 
L 358.617416 82.5984 
L 361.465263 82.5984 
L 364.31311 82.5984 
L 367.160957 82.5984 
L 370.008804 82.5984 
L 372.856651 82.5984 
L 375.704498 82.5984 
L 378.552344 82.5984 
L 381.400191 82.5984 
L 384.248038 82.5984 
L 387.095885 82.5984 
L 389.943732 82.5984 
L 392.791579 82.5984 
L 395.639426 82.5984 
L 398.487273 82.5984 
" clip-path="url(#pd5a2b9d710)" style="fill: none; stroke: #000000; stroke-width: 1.5; stroke-linecap: square"/>
   </g>
   <g id="line2d_14">
    <path d="M 73.832727 295.488 
L 76.680574 111.6288 
L 79.528421 109.2096 
L 82.376268 108.24192 
L 85.224115 107.27424 
L 88.071962 106.7904 
L 90.919809 106.7904 
L 93.767656 106.7904 
L 96.615502 106.7904 
L 99.463349 107.27424 
L 102.311196 106.7904 
L 105.159043 106.7904 
L 108.00689 106.7904 
L 110.854737 106.7904 
L 113.702584 106.7904 
L 116.550431 106.7904 
L 119.398278 106.7904 
L 122.246124 106.7904 
L 125.093971 106.7904 
L 127.941818 106.7904 
L 130.789665 106.7904 
L 133.637512 106.7904 
L 136.485359 106.7904 
L 139.333206 106.7904 
L 142.181053 106.7904 
L 145.0289 106.7904 
L 147.876746 106.7904 
L 150.724593 106.7904 
L 153.57244 106.7904 
L 156.420287 106.7904 
L 159.268134 106.7904 
L 162.115981 106.7904 
L 164.963828 106.7904 
L 167.811675 106.7904 
L 170.659522 106.7904 
L 173.507368 106.7904 
L 176.355215 106.7904 
L 179.203062 106.7904 
L 182.050909 106.7904 
L 184.898756 106.7904 
L 187.746603 106.7904 
L 190.59445 106.7904 
L 193.442297 106.7904 
L 196.290144 106.7904 
L 199.13799 106.7904 
L 201.985837 106.7904 
L 204.833684 106.7904 
L 207.681531 106.7904 
L 210.529378 106.7904 
L 213.377225 106.7904 
L 216.225072 106.7904 
L 219.072919 106.7904 
L 221.920766 106.7904 
L 224.768612 106.7904 
L 227.616459 106.7904 
L 230.464306 106.7904 
L 233.312153 106.7904 
L 236.16 106.7904 
L 239.007847 106.7904 
L 241.855694 106.7904 
L 244.703541 106.7904 
L 247.551388 106.7904 
L 250.399234 106.7904 
L 253.247081 106.7904 
L 256.094928 106.7904 
L 258.942775 106.7904 
L 261.790622 106.7904 
L 264.638469 106.7904 
L 267.486316 106.7904 
L 270.334163 106.7904 
L 273.18201 106.7904 
L 276.029856 106.7904 
L 278.877703 106.7904 
L 281.72555 106.7904 
L 284.573397 106.7904 
L 287.421244 106.7904 
L 290.269091 106.7904 
L 293.116938 106.7904 
L 295.964785 106.7904 
L 298.812632 106.7904 
L 301.660478 106.7904 
L 304.508325 106.7904 
L 307.356172 106.7904 
L 310.204019 106.7904 
L 313.051866 106.7904 
L 315.899713 106.7904 
L 318.74756 106.7904 
L 321.595407 106.7904 
L 324.443254 106.7904 
L 327.2911 106.7904 
L 330.138947 106.7904 
L 332.986794 106.7904 
L 335.834641 106.7904 
L 338.682488 106.7904 
L 341.530335 106.7904 
L 344.378182 106.7904 
L 347.226029 106.7904 
L 350.073876 106.7904 
L 352.921722 106.7904 
L 355.769569 106.7904 
L 358.617416 106.7904 
L 361.465263 106.7904 
L 364.31311 106.7904 
L 367.160957 106.7904 
L 370.008804 106.7904 
L 372.856651 106.7904 
L 375.704498 106.7904 
L 378.552344 106.7904 
L 381.400191 106.7904 
L 384.248038 106.7904 
L 387.095885 106.7904 
L 389.943732 106.7904 
L 392.791579 106.7904 
L 395.639426 106.7904 
L 398.487273 106.7904 
" clip-path="url(#pd5a2b9d710)" style="fill: none; stroke: #000000; stroke-width: 1.5; stroke-linecap: square"/>
   </g>
   <g id="line2d_15">
    <path d="M 73.832727 295.488 
L 76.680574 114.53184 
L 79.528421 107.75808 
L 82.376268 107.27424 
L 85.224115 105.33888 
L 88.071962 106.7904 
L 90.919809 104.85504 
L 93.767656 104.85504 
L 96.615502 104.3712 
L 99.463349 104.3712 
L 102.311196 103.88736 
L 105.159043 104.3712 
L 108.00689 103.40352 
L 110.854737 102.91968 
L 113.702584 102.91968 
L 116.550431 102.43584 
L 119.398278 103.40352 
L 122.246124 102.91968 
L 125.093971 102.91968 
L 127.941818 102.91968 
L 130.789665 102.43584 
L 133.637512 102.43584 
L 136.485359 102.43584 
L 139.333206 102.91968 
L 142.181053 102.91968 
L 145.0289 101.952 
L 147.876746 102.43584 
L 150.724593 102.91968 
L 153.57244 101.952 
L 156.420287 102.43584 
L 159.268134 101.952 
L 162.115981 101.952 
L 164.963828 101.952 
L 167.811675 101.952 
L 170.659522 101.952 
L 173.507368 102.43584 
L 176.355215 101.952 
L 179.203062 102.43584 
L 182.050909 102.43584 
L 184.898756 101.952 
L 187.746603 102.43584 
L 190.59445 102.43584 
L 193.442297 101.952 
L 196.290144 101.952 
L 199.13799 101.952 
L 201.985837 101.952 
L 204.833684 101.952 
L 207.681531 101.952 
L 210.529378 101.952 
L 213.377225 101.952 
L 216.225072 102.43584 
L 219.072919 101.952 
L 221.920766 101.952 
L 224.768612 101.952 
L 227.616459 101.952 
L 230.464306 101.952 
L 233.312153 101.952 
L 236.16 101.952 
L 239.007847 101.952 
L 241.855694 101.952 
L 244.703541 102.43584 
L 247.551388 101.952 
L 250.399234 101.952 
L 253.247081 101.952 
L 256.094928 101.952 
L 258.942775 101.952 
L 261.790622 101.952 
L 264.638469 101.952 
L 267.486316 101.952 
L 270.334163 101.952 
L 273.18201 101.952 
L 276.029856 101.952 
L 278.877703 101.952 
L 281.72555 101.952 
L 284.573397 101.952 
L 287.421244 101.952 
L 290.269091 101.952 
L 293.116938 101.952 
L 295.964785 101.952 
L 298.812632 101.952 
L 301.660478 101.952 
L 304.508325 101.952 
L 307.356172 101.952 
L 310.204019 101.952 
L 313.051866 101.952 
L 315.899713 101.952 
L 318.74756 101.952 
L 321.595407 101.952 
L 324.443254 101.952 
L 327.2911 101.952 
L 330.138947 101.952 
L 332.986794 101.952 
L 335.834641 101.952 
L 338.682488 101.952 
L 341.530335 101.952 
L 344.378182 101.952 
L 347.226029 101.952 
L 350.073876 101.952 
L 352.921722 101.952 
L 355.769569 101.952 
L 358.617416 101.952 
L 361.465263 101.952 
L 364.31311 101.952 
L 367.160957 101.952 
L 370.008804 101.952 
L 372.856651 101.952 
L 375.704498 101.952 
L 378.552344 101.952 
L 381.400191 101.952 
L 384.248038 101.952 
L 387.095885 101.952 
L 389.943732 101.952 
L 392.791579 101.952 
L 395.639426 101.952 
L 398.487273 101.952 
" clip-path="url(#pd5a2b9d710)" style="fill: none; stroke: #000000; stroke-width: 1.5; stroke-linecap: square"/>
   </g>
   <g id="line2d_16">
    <path d="M 73.832727 295.488 
L 76.680574 123.7248 
L 79.528421 113.56416 
L 82.376268 111.6288 
L 85.224115 110.66112 
L 88.071962 108.72576 
L 90.919809 110.66112 
L 93.767656 108.24192 
L 96.615502 109.2096 
L 99.463349 108.72576 
L 102.311196 108.24192 
L 105.159043 107.75808 
L 108.00689 107.75808 
L 110.854737 107.75808 
L 113.702584 107.27424 
L 116.550431 107.75808 
L 119.398278 107.27424 
L 122.246124 107.27424 
L 125.093971 107.75808 
L 127.941818 106.7904 
L 130.789665 107.27424 
L 133.637512 106.7904 
L 136.485359 106.7904 
L 139.333206 106.7904 
L 142.181053 106.7904 
L 145.0289 106.7904 
L 147.876746 106.7904 
L 150.724593 107.27424 
L 153.57244 106.7904 
L 156.420287 106.7904 
L 159.268134 106.7904 
L 162.115981 107.27424 
L 164.963828 106.7904 
L 167.811675 106.7904 
L 170.659522 106.7904 
L 173.507368 106.7904 
L 176.355215 106.7904 
L 179.203062 106.7904 
L 182.050909 106.7904 
L 184.898756 106.7904 
L 187.746603 106.7904 
L 190.59445 106.7904 
L 193.442297 106.7904 
L 196.290144 106.7904 
L 199.13799 106.7904 
L 201.985837 106.7904 
L 204.833684 106.7904 
L 207.681531 106.7904 
L 210.529378 106.7904 
L 213.377225 106.7904 
L 216.225072 106.7904 
L 219.072919 106.7904 
L 221.920766 106.7904 
L 224.768612 106.7904 
L 227.616459 106.7904 
L 230.464306 106.7904 
L 233.312153 106.7904 
L 236.16 106.7904 
L 239.007847 106.7904 
L 241.855694 106.7904 
L 244.703541 106.7904 
L 247.551388 106.7904 
L 250.399234 106.7904 
L 253.247081 106.7904 
L 256.094928 106.7904 
L 258.942775 106.7904 
L 261.790622 106.7904 
L 264.638469 106.7904 
L 267.486316 106.7904 
L 270.334163 106.7904 
L 273.18201 106.7904 
L 276.029856 106.7904 
L 278.877703 106.7904 
L 281.72555 106.7904 
L 284.573397 106.7904 
L 287.421244 106.7904 
L 290.269091 106.7904 
L 293.116938 106.7904 
L 295.964785 106.7904 
L 298.812632 106.7904 
L 301.660478 106.7904 
L 304.508325 106.7904 
L 307.356172 106.7904 
L 310.204019 106.7904 
L 313.051866 106.7904 
L 315.899713 106.7904 
L 318.74756 106.7904 
L 321.595407 106.7904 
L 324.443254 106.7904 
L 327.2911 106.7904 
L 330.138947 106.7904 
L 332.986794 106.7904 
L 335.834641 106.7904 
L 338.682488 106.7904 
L 341.530335 106.7904 
L 344.378182 106.7904 
L 347.226029 106.7904 
L 350.073876 106.7904 
L 352.921722 106.7904 
L 355.769569 106.7904 
L 358.617416 106.7904 
L 361.465263 106.7904 
L 364.31311 106.7904 
L 367.160957 106.7904 
L 370.008804 106.7904 
L 372.856651 106.7904 
L 375.704498 106.7904 
L 378.552344 106.7904 
L 381.400191 106.7904 
L 384.248038 106.7904 
L 387.095885 106.7904 
L 389.943732 106.7904 
L 392.791579 106.7904 
L 395.639426 106.7904 
L 398.487273 106.7904 
" clip-path="url(#pd5a2b9d710)" style="fill: none; stroke: #000000; stroke-width: 1.5; stroke-linecap: square"/>
   </g>
   <g id="line2d_17">
    <path d="M 73.832727 295.488 
L 76.680574 105.82272 
L 79.528421 96.14592 
L 82.376268 92.2752 
L 85.224115 92.75904 
L 88.071962 92.2752 
L 90.919809 93.24288 
L 93.767656 92.2752 
L 96.615502 92.2752 
L 99.463349 92.2752 
L 102.311196 92.2752 
L 105.159043 92.2752 
L 108.00689 92.2752 
L 110.854737 92.2752 
L 113.702584 92.2752 
L 116.550431 92.2752 
L 119.398278 92.2752 
L 122.246124 92.2752 
L 125.093971 92.2752 
L 127.941818 92.2752 
L 130.789665 92.2752 
L 133.637512 92.2752 
L 136.485359 92.2752 
L 139.333206 92.2752 
L 142.181053 92.2752 
L 145.0289 92.2752 
L 147.876746 92.2752 
L 150.724593 92.2752 
L 153.57244 92.2752 
L 156.420287 92.2752 
L 159.268134 92.2752 
L 162.115981 92.2752 
L 164.963828 92.2752 
L 167.811675 92.2752 
L 170.659522 92.2752 
L 173.507368 92.2752 
L 176.355215 92.2752 
L 179.203062 92.2752 
L 182.050909 92.2752 
L 184.898756 92.2752 
L 187.746603 92.2752 
L 190.59445 92.2752 
L 193.442297 92.2752 
L 196.290144 92.2752 
L 199.13799 92.2752 
L 201.985837 92.2752 
L 204.833684 92.2752 
L 207.681531 92.2752 
L 210.529378 92.2752 
L 213.377225 92.2752 
L 216.225072 92.2752 
L 219.072919 92.2752 
L 221.920766 92.2752 
L 224.768612 92.2752 
L 227.616459 92.2752 
L 230.464306 92.2752 
L 233.312153 92.2752 
L 236.16 92.2752 
L 239.007847 92.2752 
L 241.855694 92.2752 
L 244.703541 92.2752 
L 247.551388 92.2752 
L 250.399234 92.2752 
L 253.247081 92.2752 
L 256.094928 92.2752 
L 258.942775 92.2752 
L 261.790622 92.2752 
L 264.638469 92.2752 
L 267.486316 92.2752 
L 270.334163 92.2752 
L 273.18201 92.2752 
L 276.029856 92.2752 
L 278.877703 92.2752 
L 281.72555 92.2752 
L 284.573397 92.2752 
L 287.421244 92.2752 
L 290.269091 92.2752 
L 293.116938 92.2752 
L 295.964785 92.2752 
L 298.812632 92.2752 
L 301.660478 92.2752 
L 304.508325 92.2752 
L 307.356172 92.2752 
L 310.204019 92.2752 
L 313.051866 92.2752 
L 315.899713 92.2752 
L 318.74756 92.2752 
L 321.595407 92.2752 
L 324.443254 92.2752 
L 327.2911 92.2752 
L 330.138947 92.2752 
L 332.986794 92.2752 
L 335.834641 92.2752 
L 338.682488 92.2752 
L 341.530335 92.2752 
L 344.378182 92.2752 
L 347.226029 92.2752 
L 350.073876 92.2752 
L 352.921722 92.2752 
L 355.769569 92.2752 
L 358.617416 92.2752 
L 361.465263 92.2752 
L 364.31311 92.2752 
L 367.160957 92.2752 
L 370.008804 92.2752 
L 372.856651 92.2752 
L 375.704498 92.2752 
L 378.552344 92.2752 
L 381.400191 92.2752 
L 384.248038 92.2752 
L 387.095885 92.2752 
L 389.943732 92.2752 
L 392.791579 92.2752 
L 395.639426 92.2752 
L 398.487273 92.2752 
" clip-path="url(#pd5a2b9d710)" style="fill: none; stroke: #000000; stroke-width: 1.5; stroke-linecap: square"/>
   </g>
   <g id="line2d_18">
    <path d="M 73.832727 295.488 
L 76.680574 71.95392 
L 79.528421 69.53472 
L 82.376268 70.5024 
L 85.224115 69.05088 
L 88.071962 69.05088 
L 90.919809 68.0832 
L 93.767656 68.0832 
L 96.615502 68.0832 
L 99.463349 68.0832 
L 102.311196 68.0832 
L 105.159043 68.0832 
L 108.00689 68.0832 
L 110.854737 68.0832 
L 113.702584 68.0832 
L 116.550431 68.0832 
L 119.398278 68.0832 
L 122.246124 68.0832 
L 125.093971 68.0832 
L 127.941818 68.0832 
L 130.789665 68.0832 
L 133.637512 68.0832 
L 136.485359 68.0832 
L 139.333206 68.0832 
L 142.181053 68.0832 
L 145.0289 68.0832 
L 147.876746 68.0832 
L 150.724593 68.0832 
L 153.57244 68.0832 
L 156.420287 68.0832 
L 159.268134 68.0832 
L 162.115981 68.0832 
L 164.963828 68.0832 
L 167.811675 68.0832 
L 170.659522 68.0832 
L 173.507368 68.0832 
L 176.355215 68.0832 
L 179.203062 68.0832 
L 182.050909 68.0832 
L 184.898756 68.0832 
L 187.746603 68.0832 
L 190.59445 68.0832 
L 193.442297 68.0832 
L 196.290144 68.0832 
L 199.13799 68.0832 
L 201.985837 68.0832 
L 204.833684 68.0832 
L 207.681531 68.0832 
L 210.529378 68.0832 
L 213.377225 68.0832 
L 216.225072 68.0832 
L 219.072919 68.0832 
L 221.920766 68.0832 
L 224.768612 68.0832 
L 227.616459 68.0832 
L 230.464306 68.0832 
L 233.312153 68.0832 
L 236.16 68.0832 
L 239.007847 68.0832 
L 241.855694 68.0832 
L 244.703541 68.0832 
L 247.551388 68.0832 
L 250.399234 68.0832 
L 253.247081 68.0832 
L 256.094928 68.0832 
L 258.942775 68.0832 
L 261.790622 68.0832 
L 264.638469 68.0832 
L 267.486316 68.0832 
L 270.334163 68.0832 
L 273.18201 68.0832 
L 276.029856 68.0832 
L 278.877703 68.0832 
L 281.72555 68.0832 
L 284.573397 68.0832 
L 287.421244 68.0832 
L 290.269091 68.0832 
L 293.116938 68.0832 
L 295.964785 68.0832 
L 298.812632 68.0832 
L 301.660478 68.0832 
L 304.508325 68.0832 
L 307.356172 68.0832 
L 310.204019 68.0832 
L 313.051866 68.0832 
L 315.899713 68.0832 
L 318.74756 68.0832 
L 321.595407 68.0832 
L 324.443254 68.0832 
L 327.2911 68.0832 
L 330.138947 68.0832 
L 332.986794 68.0832 
L 335.834641 68.0832 
L 338.682488 68.0832 
L 341.530335 68.0832 
L 344.378182 68.0832 
L 347.226029 68.0832 
L 350.073876 68.0832 
L 352.921722 68.0832 
L 355.769569 68.0832 
L 358.617416 68.0832 
L 361.465263 68.0832 
L 364.31311 68.0832 
L 367.160957 68.0832 
L 370.008804 68.0832 
L 372.856651 68.0832 
L 375.704498 68.0832 
L 378.552344 68.0832 
L 381.400191 68.0832 
L 384.248038 68.0832 
L 387.095885 68.0832 
L 389.943732 68.0832 
L 392.791579 68.0832 
L 395.639426 68.0832 
L 398.487273 68.0832 
" clip-path="url(#pd5a2b9d710)" style="fill: none; stroke: #000000; stroke-width: 1.5; stroke-linecap: square"/>
   </g>
   <g id="line2d_19">
    <path d="M 73.832727 295.488 
L 76.680574 139.69152 
L 79.528421 132.91776 
L 82.376268 131.46624 
L 85.224115 131.46624 
L 88.071962 130.9824 
L 90.919809 130.9824 
L 93.767656 130.9824 
L 96.615502 130.9824 
L 99.463349 130.9824 
L 102.311196 130.9824 
L 105.159043 130.9824 
L 108.00689 130.9824 
L 110.854737 130.9824 
L 113.702584 130.9824 
L 116.550431 130.9824 
L 119.398278 130.9824 
L 122.246124 130.9824 
L 125.093971 130.9824 
L 127.941818 130.9824 
L 130.789665 130.9824 
L 133.637512 130.9824 
L 136.485359 130.9824 
L 139.333206 130.9824 
L 142.181053 130.9824 
L 145.0289 130.9824 
L 147.876746 130.9824 
L 150.724593 130.9824 
L 153.57244 130.9824 
L 156.420287 130.9824 
L 159.268134 130.9824 
L 162.115981 130.9824 
L 164.963828 130.9824 
L 167.811675 130.9824 
L 170.659522 130.9824 
L 173.507368 130.9824 
L 176.355215 130.9824 
L 179.203062 130.9824 
L 182.050909 130.9824 
L 184.898756 130.9824 
L 187.746603 130.9824 
L 190.59445 130.9824 
L 193.442297 130.9824 
L 196.290144 130.9824 
L 199.13799 130.9824 
L 201.985837 130.9824 
L 204.833684 130.9824 
L 207.681531 130.9824 
L 210.529378 130.9824 
L 213.377225 130.9824 
L 216.225072 130.9824 
L 219.072919 130.9824 
L 221.920766 130.9824 
L 224.768612 130.9824 
L 227.616459 130.9824 
L 230.464306 130.9824 
L 233.312153 130.9824 
L 236.16 130.9824 
L 239.007847 130.9824 
L 241.855694 130.9824 
L 244.703541 130.9824 
L 247.551388 130.9824 
L 250.399234 130.9824 
L 253.247081 130.9824 
L 256.094928 130.9824 
L 258.942775 130.9824 
L 261.790622 130.9824 
L 264.638469 130.9824 
L 267.486316 130.9824 
L 270.334163 130.9824 
L 273.18201 130.9824 
L 276.029856 130.9824 
L 278.877703 130.9824 
L 281.72555 130.9824 
L 284.573397 130.9824 
L 287.421244 130.9824 
L 290.269091 130.9824 
L 293.116938 130.9824 
L 295.964785 130.9824 
L 298.812632 130.9824 
L 301.660478 130.9824 
L 304.508325 130.9824 
L 307.356172 130.9824 
L 310.204019 130.9824 
L 313.051866 130.9824 
L 315.899713 130.9824 
L 318.74756 130.9824 
L 321.595407 130.9824 
L 324.443254 130.9824 
L 327.2911 130.9824 
L 330.138947 130.9824 
L 332.986794 130.9824 
L 335.834641 130.9824 
L 338.682488 130.9824 
L 341.530335 130.9824 
L 344.378182 130.9824 
L 347.226029 130.9824 
L 350.073876 130.9824 
L 352.921722 130.9824 
L 355.769569 130.9824 
L 358.617416 130.9824 
L 361.465263 130.9824 
L 364.31311 130.9824 
L 367.160957 130.9824 
L 370.008804 130.9824 
L 372.856651 130.9824 
L 375.704498 130.9824 
L 378.552344 130.9824 
L 381.400191 130.9824 
L 384.248038 130.9824 
L 387.095885 130.9824 
L 389.943732 130.9824 
L 392.791579 130.9824 
L 395.639426 130.9824 
L 398.487273 130.9824 
" clip-path="url(#pd5a2b9d710)" style="fill: none; stroke: #000000; stroke-width: 1.5; stroke-linecap: square"/>
   </g>
   <g id="line2d_20">
    <path d="M 73.832727 295.488 
L 76.680574 109.69344 
L 79.528421 107.75808 
L 82.376268 106.7904 
L 85.224115 107.75808 
L 88.071962 106.7904 
L 90.919809 106.7904 
L 93.767656 106.7904 
L 96.615502 106.7904 
L 99.463349 106.7904 
L 102.311196 106.7904 
L 105.159043 106.7904 
L 108.00689 106.7904 
L 110.854737 106.7904 
L 113.702584 106.7904 
L 116.550431 106.7904 
L 119.398278 106.7904 
L 122.246124 106.7904 
L 125.093971 106.7904 
L 127.941818 106.7904 
L 130.789665 106.7904 
L 133.637512 106.7904 
L 136.485359 106.7904 
L 139.333206 106.7904 
L 142.181053 106.7904 
L 145.0289 106.7904 
L 147.876746 106.7904 
L 150.724593 106.7904 
L 153.57244 106.7904 
L 156.420287 106.7904 
L 159.268134 106.7904 
L 162.115981 106.7904 
L 164.963828 106.7904 
L 167.811675 106.7904 
L 170.659522 106.7904 
L 173.507368 106.7904 
L 176.355215 106.7904 
L 179.203062 106.7904 
L 182.050909 106.7904 
L 184.898756 106.7904 
L 187.746603 106.7904 
L 190.59445 106.7904 
L 193.442297 106.7904 
L 196.290144 106.7904 
L 199.13799 106.7904 
L 201.985837 106.7904 
L 204.833684 106.7904 
L 207.681531 106.7904 
L 210.529378 106.7904 
L 213.377225 106.7904 
L 216.225072 106.7904 
L 219.072919 106.7904 
L 221.920766 106.7904 
L 224.768612 106.7904 
L 227.616459 106.7904 
L 230.464306 106.7904 
L 233.312153 106.7904 
L 236.16 106.7904 
L 239.007847 106.7904 
L 241.855694 106.7904 
L 244.703541 106.7904 
L 247.551388 106.7904 
L 250.399234 106.7904 
L 253.247081 106.7904 
L 256.094928 106.7904 
L 258.942775 106.7904 
L 261.790622 106.7904 
L 264.638469 106.7904 
L 267.486316 106.7904 
L 270.334163 106.7904 
L 273.18201 106.7904 
L 276.029856 106.7904 
L 278.877703 106.7904 
L 281.72555 106.7904 
L 284.573397 106.7904 
L 287.421244 106.7904 
L 290.269091 106.7904 
L 293.116938 106.7904 
L 295.964785 106.7904 
L 298.812632 106.7904 
L 301.660478 106.7904 
L 304.508325 106.7904 
L 307.356172 106.7904 
L 310.204019 106.7904 
L 313.051866 106.7904 
L 315.899713 106.7904 
L 318.74756 106.7904 
L 321.595407 106.7904 
L 324.443254 106.7904 
L 327.2911 106.7904 
L 330.138947 106.7904 
L 332.986794 106.7904 
L 335.834641 106.7904 
L 338.682488 106.7904 
L 341.530335 106.7904 
L 344.378182 106.7904 
L 347.226029 106.7904 
L 350.073876 106.7904 
L 352.921722 106.7904 
L 355.769569 106.7904 
L 358.617416 106.7904 
L 361.465263 106.7904 
L 364.31311 106.7904 
L 367.160957 106.7904 
L 370.008804 106.7904 
L 372.856651 106.7904 
L 375.704498 106.7904 
L 378.552344 106.7904 
L 381.400191 106.7904 
L 384.248038 106.7904 
L 387.095885 106.7904 
L 389.943732 106.7904 
L 392.791579 106.7904 
L 395.639426 106.7904 
L 398.487273 106.7904 
" clip-path="url(#pd5a2b9d710)" style="fill: none; stroke: #000000; stroke-width: 1.5; stroke-linecap: square"/>
   </g>
   <g id="line2d_21">
    <path d="M 73.832727 295.488 
L 76.680574 83.56608 
L 79.528421 81.63072 
L 82.376268 78.72768 
L 85.224115 78.72768 
L 88.071962 77.76 
L 90.919809 77.76 
L 93.767656 77.76 
L 96.615502 77.76 
L 99.463349 77.76 
L 102.311196 77.76 
L 105.159043 77.76 
L 108.00689 77.76 
L 110.854737 77.76 
L 113.702584 77.76 
L 116.550431 77.76 
L 119.398278 77.76 
L 122.246124 77.76 
L 125.093971 77.76 
L 127.941818 77.76 
L 130.789665 77.76 
L 133.637512 77.76 
L 136.485359 77.76 
L 139.333206 77.76 
L 142.181053 77.76 
L 145.0289 77.76 
L 147.876746 77.76 
L 150.724593 77.76 
L 153.57244 77.76 
L 156.420287 77.76 
L 159.268134 77.76 
L 162.115981 77.76 
L 164.963828 77.76 
L 167.811675 77.76 
L 170.659522 77.76 
L 173.507368 77.76 
L 176.355215 77.76 
L 179.203062 77.76 
L 182.050909 77.76 
L 184.898756 77.76 
L 187.746603 77.76 
L 190.59445 77.76 
L 193.442297 77.76 
L 196.290144 77.76 
L 199.13799 77.76 
L 201.985837 77.76 
L 204.833684 77.76 
L 207.681531 77.76 
L 210.529378 77.76 
L 213.377225 77.76 
L 216.225072 77.76 
L 219.072919 77.76 
L 221.920766 77.76 
L 224.768612 77.76 
L 227.616459 77.76 
L 230.464306 77.76 
L 233.312153 77.76 
L 236.16 77.76 
L 239.007847 77.76 
L 241.855694 77.76 
L 244.703541 77.76 
L 247.551388 77.76 
L 250.399234 77.76 
L 253.247081 77.76 
L 256.094928 77.76 
L 258.942775 77.76 
L 261.790622 77.76 
L 264.638469 77.76 
L 267.486316 77.76 
L 270.334163 77.76 
L 273.18201 77.76 
L 276.029856 77.76 
L 278.877703 77.76 
L 281.72555 77.76 
L 284.573397 77.76 
L 287.421244 77.76 
L 290.269091 77.76 
L 293.116938 77.76 
L 295.964785 77.76 
L 298.812632 77.76 
L 301.660478 77.76 
L 304.508325 77.76 
L 307.356172 77.76 
L 310.204019 77.76 
L 313.051866 77.76 
L 315.899713 77.76 
L 318.74756 77.76 
L 321.595407 77.76 
L 324.443254 77.76 
L 327.2911 77.76 
L 330.138947 77.76 
L 332.986794 77.76 
L 335.834641 77.76 
L 338.682488 77.76 
L 341.530335 77.76 
L 344.378182 77.76 
L 347.226029 77.76 
L 350.073876 77.76 
L 352.921722 77.76 
L 355.769569 77.76 
L 358.617416 77.76 
L 361.465263 77.76 
L 364.31311 77.76 
L 367.160957 77.76 
L 370.008804 77.76 
L 372.856651 77.76 
L 375.704498 77.76 
L 378.552344 77.76 
L 381.400191 77.76 
L 384.248038 77.76 
L 387.095885 77.76 
L 389.943732 77.76 
L 392.791579 77.76 
L 395.639426 77.76 
L 398.487273 77.76 
" clip-path="url(#pd5a2b9d710)" style="fill: none; stroke: #000000; stroke-width: 1.5; stroke-linecap: square"/>
   </g>
   <g id="line2d_22">
    <path d="M 73.832727 295.488 
L 76.680574 114.048 
L 79.528421 110.17728 
L 82.376268 107.75808 
L 85.224115 108.24192 
L 88.071962 105.33888 
L 90.919809 107.27424 
L 93.767656 106.30656 
L 96.615502 106.7904 
L 99.463349 106.7904 
L 102.311196 106.7904 
L 105.159043 106.30656 
L 108.00689 106.30656 
L 110.854737 105.82272 
L 113.702584 104.3712 
L 116.550431 105.82272 
L 119.398278 106.30656 
L 122.246124 105.82272 
L 125.093971 106.30656 
L 127.941818 104.85504 
L 130.789665 105.33888 
L 133.637512 105.82272 
L 136.485359 105.82272 
L 139.333206 106.30656 
L 142.181053 105.82272 
L 145.0289 105.33888 
L 147.876746 105.33888 
L 150.724593 106.7904 
L 153.57244 105.33888 
L 156.420287 103.88736 
L 159.268134 105.33888 
L 162.115981 105.33888 
L 164.963828 103.88736 
L 167.811675 104.3712 
L 170.659522 104.3712 
L 173.507368 104.85504 
L 176.355215 105.33888 
L 179.203062 105.33888 
L 182.050909 104.3712 
L 184.898756 105.33888 
L 187.746603 103.40352 
L 190.59445 104.3712 
L 193.442297 103.40352 
L 196.290144 103.88736 
L 199.13799 104.3712 
L 201.985837 103.88736 
L 204.833684 104.3712 
L 207.681531 103.40352 
L 210.529378 104.3712 
L 213.377225 103.40352 
L 216.225072 104.85504 
L 219.072919 103.40352 
L 221.920766 102.43584 
L 224.768612 103.40352 
L 227.616459 102.91968 
L 230.464306 103.40352 
L 233.312153 102.91968 
L 236.16 103.88736 
L 239.007847 104.3712 
L 241.855694 103.88736 
L 244.703541 102.43584 
L 247.551388 103.88736 
L 250.399234 103.88736 
L 253.247081 103.40352 
L 256.094928 102.43584 
L 258.942775 104.3712 
L 261.790622 102.43584 
L 264.638469 103.40352 
L 267.486316 103.40352 
L 270.334163 102.91968 
L 273.18201 103.40352 
L 276.029856 102.43584 
L 278.877703 104.85504 
L 281.72555 103.88736 
L 284.573397 102.91968 
L 287.421244 103.40352 
L 290.269091 102.91968 
L 293.116938 103.40352 
L 295.964785 103.88736 
L 298.812632 103.40352 
L 301.660478 103.40352 
L 304.508325 103.40352 
L 307.356172 103.40352 
L 310.204019 103.40352 
L 313.051866 103.40352 
L 315.899713 103.88736 
L 318.74756 102.91968 
L 321.595407 102.91968 
L 324.443254 102.43584 
L 327.2911 102.43584 
L 330.138947 103.40352 
L 332.986794 101.952 
L 335.834641 104.3712 
L 338.682488 103.40352 
L 341.530335 102.91968 
L 344.378182 102.91968 
L 347.226029 102.91968 
L 350.073876 101.952 
L 352.921722 104.3712 
L 355.769569 103.40352 
L 358.617416 102.91968 
L 361.465263 102.91968 
L 364.31311 101.952 
L 367.160957 103.40352 
L 370.008804 102.91968 
L 372.856651 102.43584 
L 375.704498 102.43584 
L 378.552344 102.43584 
L 381.400191 103.88736 
L 384.248038 102.43584 
L 387.095885 103.40352 
L 389.943732 102.91968 
L 392.791579 101.952 
L 395.639426 101.952 
L 398.487273 102.91968 
" clip-path="url(#pd5a2b9d710)" style="fill: none; stroke: #000000; stroke-width: 1.5; stroke-linecap: square"/>
   </g>
   <g id="line2d_23">
    <path d="M 73.832727 295.488 
L 76.680574 67.11552 
L 79.528421 61.79328 
L 82.376268 62.27712 
L 85.224115 61.30944 
L 88.071962 60.34176 
L 90.919809 59.85792 
L 93.767656 59.85792 
L 96.615502 58.89024 
L 99.463349 59.85792 
L 102.311196 58.89024 
L 105.159043 59.85792 
L 108.00689 58.4064 
L 110.854737 59.37408 
L 113.702584 58.4064 
L 116.550431 58.89024 
L 119.398278 58.4064 
L 122.246124 58.4064 
L 125.093971 58.4064 
L 127.941818 58.4064 
L 130.789665 58.4064 
L 133.637512 58.4064 
L 136.485359 58.4064 
L 139.333206 58.4064 
L 142.181053 58.4064 
L 145.0289 58.89024 
L 147.876746 58.4064 
L 150.724593 58.4064 
L 153.57244 58.4064 
L 156.420287 58.4064 
L 159.268134 58.4064 
L 162.115981 58.4064 
L 164.963828 58.4064 
L 167.811675 58.4064 
L 170.659522 58.4064 
L 173.507368 58.4064 
L 176.355215 58.4064 
L 179.203062 58.4064 
L 182.050909 58.4064 
L 184.898756 58.4064 
L 187.746603 58.4064 
L 190.59445 58.4064 
L 193.442297 58.4064 
L 196.290144 58.4064 
L 199.13799 58.4064 
L 201.985837 58.4064 
L 204.833684 58.4064 
L 207.681531 58.4064 
L 210.529378 58.4064 
L 213.377225 58.4064 
L 216.225072 58.4064 
L 219.072919 58.4064 
L 221.920766 58.4064 
L 224.768612 58.4064 
L 227.616459 58.4064 
L 230.464306 58.4064 
L 233.312153 58.4064 
L 236.16 58.4064 
L 239.007847 58.4064 
L 241.855694 58.4064 
L 244.703541 58.4064 
L 247.551388 58.4064 
L 250.399234 58.4064 
L 253.247081 58.4064 
L 256.094928 58.4064 
L 258.942775 58.4064 
L 261.790622 58.4064 
L 264.638469 58.4064 
L 267.486316 58.4064 
L 270.334163 58.4064 
L 273.18201 58.4064 
L 276.029856 58.4064 
L 278.877703 58.4064 
L 281.72555 58.4064 
L 284.573397 58.4064 
L 287.421244 58.4064 
L 290.269091 58.4064 
L 293.116938 58.4064 
L 295.964785 58.4064 
L 298.812632 58.4064 
L 301.660478 58.4064 
L 304.508325 58.4064 
L 307.356172 58.4064 
L 310.204019 58.4064 
L 313.051866 58.4064 
L 315.899713 58.4064 
L 318.74756 58.4064 
L 321.595407 58.4064 
L 324.443254 58.4064 
L 327.2911 58.4064 
L 330.138947 58.4064 
L 332.986794 58.4064 
L 335.834641 58.4064 
L 338.682488 58.4064 
L 341.530335 58.4064 
L 344.378182 58.4064 
L 347.226029 58.4064 
L 350.073876 58.4064 
L 352.921722 58.4064 
L 355.769569 58.4064 
L 358.617416 58.4064 
L 361.465263 58.4064 
L 364.31311 58.4064 
L 367.160957 58.4064 
L 370.008804 58.4064 
L 372.856651 58.4064 
L 375.704498 58.4064 
L 378.552344 58.4064 
L 381.400191 58.4064 
L 384.248038 58.4064 
L 387.095885 58.4064 
L 389.943732 58.4064 
L 392.791579 58.4064 
L 395.639426 58.4064 
L 398.487273 58.4064 
" clip-path="url(#pd5a2b9d710)" style="fill: none; stroke: #000000; stroke-width: 1.5; stroke-linecap: square"/>
   </g>
   <g id="line2d_24">
    <path d="M 73.832727 295.488 
L 76.680574 86.46912 
L 79.528421 83.56608 
L 82.376268 82.5984 
L 85.224115 82.11456 
L 88.071962 81.14688 
L 90.919809 80.66304 
L 93.767656 82.5984 
L 96.615502 80.1792 
L 99.463349 81.63072 
L 102.311196 80.1792 
L 105.159043 79.69536 
L 108.00689 79.21152 
L 110.854737 81.14688 
L 113.702584 79.69536 
L 116.550431 79.69536 
L 119.398278 80.66304 
L 122.246124 80.66304 
L 125.093971 79.69536 
L 127.941818 78.72768 
L 130.789665 80.1792 
L 133.637512 78.72768 
L 136.485359 78.24384 
L 139.333206 78.24384 
L 142.181053 79.21152 
L 145.0289 78.72768 
L 147.876746 78.72768 
L 150.724593 77.76 
L 153.57244 79.21152 
L 156.420287 78.24384 
L 159.268134 78.72768 
L 162.115981 78.72768 
L 164.963828 78.24384 
L 167.811675 80.1792 
L 170.659522 79.21152 
L 173.507368 79.21152 
L 176.355215 78.24384 
L 179.203062 79.21152 
L 182.050909 78.24384 
L 184.898756 77.76 
L 187.746603 79.21152 
L 190.59445 78.72768 
L 193.442297 78.24384 
L 196.290144 78.72768 
L 199.13799 77.76 
L 201.985837 78.72768 
L 204.833684 79.69536 
L 207.681531 78.24384 
L 210.529378 78.72768 
L 213.377225 78.24384 
L 216.225072 78.72768 
L 219.072919 79.21152 
L 221.920766 77.76 
L 224.768612 77.76 
L 227.616459 78.72768 
L 230.464306 78.72768 
L 233.312153 77.76 
L 236.16 78.24384 
L 239.007847 78.24384 
L 241.855694 78.24384 
L 244.703541 77.76 
L 247.551388 78.24384 
L 250.399234 78.24384 
L 253.247081 77.76 
L 256.094928 77.76 
L 258.942775 78.24384 
L 261.790622 77.76 
L 264.638469 77.76 
L 267.486316 77.76 
L 270.334163 77.76 
L 273.18201 77.76 
L 276.029856 77.76 
L 278.877703 77.76 
L 281.72555 77.76 
L 284.573397 77.76 
L 287.421244 77.76 
L 290.269091 77.76 
L 293.116938 78.24384 
L 295.964785 77.76 
L 298.812632 77.76 
L 301.660478 77.76 
L 304.508325 78.24384 
L 307.356172 77.76 
L 310.204019 77.76 
L 313.051866 77.76 
L 315.899713 77.76 
L 318.74756 77.76 
L 321.595407 77.76 
L 324.443254 77.76 
L 327.2911 77.76 
L 330.138947 77.76 
L 332.986794 77.76 
L 335.834641 77.76 
L 338.682488 77.76 
L 341.530335 77.76 
L 344.378182 77.76 
L 347.226029 77.76 
L 350.073876 77.76 
L 352.921722 77.76 
L 355.769569 77.76 
L 358.617416 77.76 
L 361.465263 77.76 
L 364.31311 77.76 
L 367.160957 77.76 
L 370.008804 77.76 
L 372.856651 77.76 
L 375.704498 77.76 
L 378.552344 77.76 
L 381.400191 77.76 
L 384.248038 77.76 
L 387.095885 77.76 
L 389.943732 77.76 
L 392.791579 77.76 
L 395.639426 77.76 
L 398.487273 77.76 
" clip-path="url(#pd5a2b9d710)" style="fill: none; stroke: #000000; stroke-width: 1.5; stroke-linecap: square"/>
   </g>
   <g id="line2d_25">
    <path d="M 73.832727 295.488 
L 76.680574 132.43392 
L 79.528421 127.59552 
L 82.376268 128.07936 
L 85.224115 126.144 
L 88.071962 126.144 
L 90.919809 126.144 
L 93.767656 126.144 
L 96.615502 126.144 
L 99.463349 126.144 
L 102.311196 126.144 
L 105.159043 126.144 
L 108.00689 126.144 
L 110.854737 126.144 
L 113.702584 126.144 
L 116.550431 126.144 
L 119.398278 126.144 
L 122.246124 126.144 
L 125.093971 126.144 
L 127.941818 126.144 
L 130.789665 126.144 
L 133.637512 126.144 
L 136.485359 126.144 
L 139.333206 126.144 
L 142.181053 126.144 
L 145.0289 126.144 
L 147.876746 126.144 
L 150.724593 126.144 
L 153.57244 126.144 
L 156.420287 126.144 
L 159.268134 126.144 
L 162.115981 126.144 
L 164.963828 126.144 
L 167.811675 126.144 
L 170.659522 126.144 
L 173.507368 126.144 
L 176.355215 126.144 
L 179.203062 126.144 
L 182.050909 126.144 
L 184.898756 126.144 
L 187.746603 126.144 
L 190.59445 126.144 
L 193.442297 126.144 
L 196.290144 126.144 
L 199.13799 126.144 
L 201.985837 126.144 
L 204.833684 126.144 
L 207.681531 126.144 
L 210.529378 126.144 
L 213.377225 126.144 
L 216.225072 126.144 
L 219.072919 126.144 
L 221.920766 126.144 
L 224.768612 126.144 
L 227.616459 126.144 
L 230.464306 126.144 
L 233.312153 126.144 
L 236.16 126.144 
L 239.007847 126.144 
L 241.855694 126.144 
L 244.703541 126.144 
L 247.551388 126.144 
L 250.399234 126.144 
L 253.247081 126.144 
L 256.094928 126.144 
L 258.942775 126.144 
L 261.790622 126.144 
L 264.638469 126.144 
L 267.486316 126.144 
L 270.334163 126.144 
L 273.18201 126.144 
L 276.029856 126.144 
L 278.877703 126.144 
L 281.72555 126.144 
L 284.573397 126.144 
L 287.421244 126.144 
L 290.269091 126.144 
L 293.116938 126.144 
L 295.964785 126.144 
L 298.812632 126.144 
L 301.660478 126.144 
L 304.508325 126.144 
L 307.356172 126.144 
L 310.204019 126.144 
L 313.051866 126.144 
L 315.899713 126.144 
L 318.74756 126.144 
L 321.595407 126.144 
L 324.443254 126.144 
L 327.2911 126.144 
L 330.138947 126.144 
L 332.986794 126.144 
L 335.834641 126.144 
L 338.682488 126.144 
L 341.530335 126.144 
L 344.378182 126.144 
L 347.226029 126.144 
L 350.073876 126.144 
L 352.921722 126.144 
L 355.769569 126.144 
L 358.617416 126.144 
L 361.465263 126.144 
L 364.31311 126.144 
L 367.160957 126.144 
L 370.008804 126.144 
L 372.856651 126.144 
L 375.704498 126.144 
L 378.552344 126.144 
L 381.400191 126.144 
L 384.248038 126.144 
L 387.095885 126.144 
L 389.943732 126.144 
L 392.791579 126.144 
L 395.639426 126.144 
L 398.487273 126.144 
" clip-path="url(#pd5a2b9d710)" style="fill: none; stroke: #000000; stroke-width: 1.5; stroke-linecap: square"/>
   </g>
   <g id="line2d_26">
    <path d="M 73.832727 295.488 
L 76.680574 136.30464 
L 79.528421 128.07936 
L 82.376268 124.69248 
L 85.224115 122.75712 
L 88.071962 122.75712 
L 90.919809 122.27328 
L 93.767656 122.75712 
L 96.615502 122.75712 
L 99.463349 123.24096 
L 102.311196 121.78944 
L 105.159043 122.27328 
L 108.00689 122.27328 
L 110.854737 121.3056 
L 113.702584 121.3056 
L 116.550431 121.3056 
L 119.398278 121.3056 
L 122.246124 121.78944 
L 125.093971 121.3056 
L 127.941818 121.3056 
L 130.789665 121.3056 
L 133.637512 121.3056 
L 136.485359 121.78944 
L 139.333206 121.3056 
L 142.181053 121.78944 
L 145.0289 121.3056 
L 147.876746 121.3056 
L 150.724593 121.3056 
L 153.57244 121.3056 
L 156.420287 121.3056 
L 159.268134 121.3056 
L 162.115981 121.3056 
L 164.963828 121.3056 
L 167.811675 121.3056 
L 170.659522 121.3056 
L 173.507368 121.3056 
L 176.355215 121.3056 
L 179.203062 121.3056 
L 182.050909 121.3056 
L 184.898756 121.3056 
L 187.746603 121.3056 
L 190.59445 121.3056 
L 193.442297 121.3056 
L 196.290144 121.3056 
L 199.13799 121.3056 
L 201.985837 121.3056 
L 204.833684 121.3056 
L 207.681531 121.3056 
L 210.529378 121.3056 
L 213.377225 121.3056 
L 216.225072 121.3056 
L 219.072919 121.3056 
L 221.920766 121.3056 
L 224.768612 121.3056 
L 227.616459 121.3056 
L 230.464306 121.3056 
L 233.312153 121.3056 
L 236.16 121.3056 
L 239.007847 121.3056 
L 241.855694 121.3056 
L 244.703541 121.3056 
L 247.551388 121.3056 
L 250.399234 121.3056 
L 253.247081 121.3056 
L 256.094928 121.3056 
L 258.942775 121.3056 
L 261.790622 121.3056 
L 264.638469 121.3056 
L 267.486316 121.3056 
L 270.334163 121.3056 
L 273.18201 121.3056 
L 276.029856 121.3056 
L 278.877703 121.3056 
L 281.72555 121.3056 
L 284.573397 121.3056 
L 287.421244 121.3056 
L 290.269091 121.3056 
L 293.116938 121.3056 
L 295.964785 121.3056 
L 298.812632 121.3056 
L 301.660478 121.3056 
L 304.508325 121.3056 
L 307.356172 121.3056 
L 310.204019 121.3056 
L 313.051866 121.3056 
L 315.899713 121.3056 
L 318.74756 121.3056 
L 321.595407 121.3056 
L 324.443254 121.3056 
L 327.2911 121.3056 
L 330.138947 121.3056 
L 332.986794 121.3056 
L 335.834641 121.3056 
L 338.682488 121.3056 
L 341.530335 121.3056 
L 344.378182 121.3056 
L 347.226029 121.3056 
L 350.073876 121.3056 
L 352.921722 121.3056 
L 355.769569 121.3056 
L 358.617416 121.3056 
L 361.465263 121.3056 
L 364.31311 121.3056 
L 367.160957 121.3056 
L 370.008804 121.3056 
L 372.856651 121.3056 
L 375.704498 121.3056 
L 378.552344 121.3056 
L 381.400191 121.3056 
L 384.248038 121.3056 
L 387.095885 121.3056 
L 389.943732 121.3056 
L 392.791579 121.3056 
L 395.639426 121.3056 
L 398.487273 121.3056 
" clip-path="url(#pd5a2b9d710)" style="fill: none; stroke: #000000; stroke-width: 1.5; stroke-linecap: square"/>
   </g>
   <g id="line2d_27">
    <path d="M 73.832727 295.488 
L 76.680574 130.49856 
L 79.528421 127.59552 
L 82.376268 127.11168 
L 85.224115 126.62784 
L 88.071962 126.144 
L 90.919809 126.144 
L 93.767656 126.144 
L 96.615502 126.144 
L 99.463349 126.144 
L 102.311196 126.144 
L 105.159043 126.144 
L 108.00689 126.144 
L 110.854737 126.144 
L 113.702584 126.144 
L 116.550431 126.144 
L 119.398278 126.144 
L 122.246124 126.144 
L 125.093971 126.144 
L 127.941818 126.144 
L 130.789665 126.144 
L 133.637512 126.144 
L 136.485359 126.144 
L 139.333206 126.144 
L 142.181053 126.144 
L 145.0289 126.144 
L 147.876746 126.144 
L 150.724593 126.144 
L 153.57244 126.144 
L 156.420287 126.144 
L 159.268134 126.144 
L 162.115981 126.144 
L 164.963828 126.144 
L 167.811675 126.144 
L 170.659522 126.144 
L 173.507368 126.144 
L 176.355215 126.144 
L 179.203062 126.144 
L 182.050909 126.144 
L 184.898756 126.144 
L 187.746603 126.144 
L 190.59445 126.144 
L 193.442297 126.144 
L 196.290144 126.144 
L 199.13799 126.144 
L 201.985837 126.144 
L 204.833684 126.144 
L 207.681531 126.144 
L 210.529378 126.144 
L 213.377225 126.144 
L 216.225072 126.144 
L 219.072919 126.144 
L 221.920766 126.144 
L 224.768612 126.144 
L 227.616459 126.144 
L 230.464306 126.144 
L 233.312153 126.144 
L 236.16 126.144 
L 239.007847 126.144 
L 241.855694 126.144 
L 244.703541 126.144 
L 247.551388 126.144 
L 250.399234 126.144 
L 253.247081 126.144 
L 256.094928 126.144 
L 258.942775 126.144 
L 261.790622 126.144 
L 264.638469 126.144 
L 267.486316 126.144 
L 270.334163 126.144 
L 273.18201 126.144 
L 276.029856 126.144 
L 278.877703 126.144 
L 281.72555 126.144 
L 284.573397 126.144 
L 287.421244 126.144 
L 290.269091 126.144 
L 293.116938 126.144 
L 295.964785 126.144 
L 298.812632 126.144 
L 301.660478 126.144 
L 304.508325 126.144 
L 307.356172 126.144 
L 310.204019 126.144 
L 313.051866 126.144 
L 315.899713 126.144 
L 318.74756 126.144 
L 321.595407 126.144 
L 324.443254 126.144 
L 327.2911 126.144 
L 330.138947 126.144 
L 332.986794 126.144 
L 335.834641 126.144 
L 338.682488 126.144 
L 341.530335 126.144 
L 344.378182 126.144 
L 347.226029 126.144 
L 350.073876 126.144 
L 352.921722 126.144 
L 355.769569 126.144 
L 358.617416 126.144 
L 361.465263 126.144 
L 364.31311 126.144 
L 367.160957 126.144 
L 370.008804 126.144 
L 372.856651 126.144 
L 375.704498 126.144 
L 378.552344 126.144 
L 381.400191 126.144 
L 384.248038 126.144 
L 387.095885 126.144 
L 389.943732 126.144 
L 392.791579 126.144 
L 395.639426 126.144 
L 398.487273 126.144 
" clip-path="url(#pd5a2b9d710)" style="fill: none; stroke: #000000; stroke-width: 1.5; stroke-linecap: square"/>
   </g>
   <g id="line2d_28">
    <path d="M 73.832727 295.488 
L 76.680574 73.40544 
L 79.528421 59.85792 
L 82.376268 57.43872 
L 85.224115 55.9872 
L 88.071962 55.9872 
L 90.919809 54.53568 
L 93.767656 53.568 
L 96.615502 54.05184 
L 99.463349 54.53568 
L 102.311196 53.568 
L 105.159043 54.05184 
L 108.00689 53.568 
L 110.854737 53.568 
L 113.702584 53.568 
L 116.550431 53.568 
L 119.398278 53.568 
L 122.246124 53.568 
L 125.093971 54.05184 
L 127.941818 53.568 
L 130.789665 53.568 
L 133.637512 53.568 
L 136.485359 53.568 
L 139.333206 53.568 
L 142.181053 53.568 
L 145.0289 53.568 
L 147.876746 53.568 
L 150.724593 53.568 
L 153.57244 53.568 
L 156.420287 53.568 
L 159.268134 53.568 
L 162.115981 53.568 
L 164.963828 53.568 
L 167.811675 53.568 
L 170.659522 53.568 
L 173.507368 53.568 
L 176.355215 53.568 
L 179.203062 53.568 
L 182.050909 53.568 
L 184.898756 53.568 
L 187.746603 53.568 
L 190.59445 53.568 
L 193.442297 53.568 
L 196.290144 53.568 
L 199.13799 53.568 
L 201.985837 53.568 
L 204.833684 53.568 
L 207.681531 53.568 
L 210.529378 53.568 
L 213.377225 53.568 
L 216.225072 53.568 
L 219.072919 53.568 
L 221.920766 53.568 
L 224.768612 53.568 
L 227.616459 53.568 
L 230.464306 53.568 
L 233.312153 53.568 
L 236.16 53.568 
L 239.007847 53.568 
L 241.855694 53.568 
L 244.703541 53.568 
L 247.551388 53.568 
L 250.399234 53.568 
L 253.247081 53.568 
L 256.094928 53.568 
L 258.942775 53.568 
L 261.790622 53.568 
L 264.638469 53.568 
L 267.486316 53.568 
L 270.334163 53.568 
L 273.18201 53.568 
L 276.029856 53.568 
L 278.877703 53.568 
L 281.72555 53.568 
L 284.573397 53.568 
L 287.421244 53.568 
L 290.269091 53.568 
L 293.116938 53.568 
L 295.964785 53.568 
L 298.812632 53.568 
L 301.660478 53.568 
L 304.508325 53.568 
L 307.356172 53.568 
L 310.204019 53.568 
L 313.051866 53.568 
L 315.899713 53.568 
L 318.74756 53.568 
L 321.595407 53.568 
L 324.443254 53.568 
L 327.2911 53.568 
L 330.138947 53.568 
L 332.986794 53.568 
L 335.834641 53.568 
L 338.682488 53.568 
L 341.530335 53.568 
L 344.378182 53.568 
L 347.226029 53.568 
L 350.073876 53.568 
L 352.921722 53.568 
L 355.769569 53.568 
L 358.617416 53.568 
L 361.465263 53.568 
L 364.31311 53.568 
L 367.160957 53.568 
L 370.008804 53.568 
L 372.856651 53.568 
L 375.704498 53.568 
L 378.552344 53.568 
L 381.400191 53.568 
L 384.248038 53.568 
L 387.095885 53.568 
L 389.943732 53.568 
L 392.791579 53.568 
L 395.639426 53.568 
L 398.487273 53.568 
" clip-path="url(#pd5a2b9d710)" style="fill: none; stroke: #000000; stroke-width: 1.5; stroke-linecap: square"/>
   </g>
   <g id="line2d_29">
    <path d="M 73.832727 295.488 
L 76.680574 73.40544 
L 79.528421 66.14784 
L 82.376268 67.11552 
L 85.224115 64.69632 
L 88.071962 64.21248 
L 90.919809 64.21248 
L 93.767656 63.72864 
L 96.615502 63.72864 
L 99.463349 62.76096 
L 102.311196 62.76096 
L 105.159043 62.76096 
L 108.00689 62.76096 
L 110.854737 63.2448 
L 113.702584 63.72864 
L 116.550431 63.2448 
L 119.398278 62.76096 
L 122.246124 62.27712 
L 125.093971 62.76096 
L 127.941818 63.2448 
L 130.789665 62.76096 
L 133.637512 62.76096 
L 136.485359 62.27712 
L 139.333206 63.2448 
L 142.181053 61.79328 
L 145.0289 59.85792 
L 147.876746 61.30944 
L 150.724593 61.30944 
L 153.57244 61.30944 
L 156.420287 62.27712 
L 159.268134 62.76096 
L 162.115981 62.76096 
L 164.963828 62.76096 
L 167.811675 62.27712 
L 170.659522 62.27712 
L 173.507368 62.27712 
L 176.355215 62.27712 
L 179.203062 61.79328 
L 182.050909 61.79328 
L 184.898756 63.2448 
L 187.746603 60.8256 
L 190.59445 62.27712 
L 193.442297 61.30944 
L 196.290144 62.76096 
L 199.13799 61.30944 
L 201.985837 61.30944 
L 204.833684 62.76096 
L 207.681531 62.27712 
L 210.529378 60.8256 
L 213.377225 62.76096 
L 216.225072 61.79328 
L 219.072919 61.30944 
L 221.920766 61.30944 
L 224.768612 60.8256 
L 227.616459 61.30944 
L 230.464306 59.37408 
L 233.312153 61.30944 
L 236.16 60.8256 
L 239.007847 62.76096 
L 241.855694 61.30944 
L 244.703541 61.30944 
L 247.551388 61.79328 
L 250.399234 62.27712 
L 253.247081 59.37408 
L 256.094928 62.76096 
L 258.942775 61.30944 
L 261.790622 61.30944 
L 264.638469 60.8256 
L 267.486316 59.37408 
L 270.334163 61.30944 
L 273.18201 61.79328 
L 276.029856 60.34176 
L 278.877703 60.34176 
L 281.72555 60.34176 
L 284.573397 61.30944 
L 287.421244 60.8256 
L 290.269091 60.34176 
L 293.116938 60.8256 
L 295.964785 60.34176 
L 298.812632 60.34176 
L 301.660478 61.30944 
L 304.508325 61.30944 
L 307.356172 61.79328 
L 310.204019 61.30944 
L 313.051866 60.8256 
L 315.899713 60.8256 
L 318.74756 61.30944 
L 321.595407 61.30944 
L 324.443254 59.85792 
L 327.2911 60.8256 
L 330.138947 59.85792 
L 332.986794 59.37408 
L 335.834641 59.37408 
L 338.682488 60.34176 
L 341.530335 61.79328 
L 344.378182 61.30944 
L 347.226029 60.34176 
L 350.073876 59.85792 
L 352.921722 59.85792 
L 355.769569 61.30944 
L 358.617416 61.30944 
L 361.465263 59.85792 
L 364.31311 60.34176 
L 367.160957 60.34176 
L 370.008804 60.8256 
L 372.856651 60.34176 
L 375.704498 60.34176 
L 378.552344 59.85792 
L 381.400191 61.30944 
L 384.248038 61.79328 
L 387.095885 58.4064 
L 389.943732 61.30944 
L 392.791579 60.34176 
L 395.639426 60.34176 
L 398.487273 60.8256 
" clip-path="url(#pd5a2b9d710)" style="fill: none; stroke: #000000; stroke-width: 1.5; stroke-linecap: square"/>
   </g>
   <g id="line2d_30">
    <path d="M 73.832727 295.488 
L 76.680574 107.75808 
L 79.528421 102.91968 
L 82.376268 102.43584 
L 85.224115 102.43584 
L 88.071962 101.952 
L 90.919809 101.952 
L 93.767656 102.43584 
L 96.615502 101.952 
L 99.463349 101.952 
L 102.311196 101.952 
L 105.159043 101.952 
L 108.00689 101.952 
L 110.854737 101.952 
L 113.702584 101.952 
L 116.550431 101.952 
L 119.398278 101.952 
L 122.246124 101.952 
L 125.093971 101.952 
L 127.941818 101.952 
L 130.789665 101.952 
L 133.637512 101.952 
L 136.485359 101.952 
L 139.333206 101.952 
L 142.181053 101.952 
L 145.0289 101.952 
L 147.876746 101.952 
L 150.724593 101.952 
L 153.57244 101.952 
L 156.420287 101.952 
L 159.268134 101.952 
L 162.115981 101.952 
L 164.963828 101.952 
L 167.811675 101.952 
L 170.659522 101.952 
L 173.507368 101.952 
L 176.355215 101.952 
L 179.203062 101.952 
L 182.050909 101.952 
L 184.898756 101.952 
L 187.746603 101.952 
L 190.59445 101.952 
L 193.442297 101.952 
L 196.290144 101.952 
L 199.13799 101.952 
L 201.985837 101.952 
L 204.833684 101.952 
L 207.681531 101.952 
L 210.529378 101.952 
L 213.377225 101.952 
L 216.225072 101.952 
L 219.072919 101.952 
L 221.920766 101.952 
L 224.768612 101.952 
L 227.616459 101.952 
L 230.464306 101.952 
L 233.312153 101.952 
L 236.16 101.952 
L 239.007847 101.952 
L 241.855694 101.952 
L 244.703541 101.952 
L 247.551388 101.952 
L 250.399234 101.952 
L 253.247081 101.952 
L 256.094928 101.952 
L 258.942775 101.952 
L 261.790622 101.952 
L 264.638469 101.952 
L 267.486316 101.952 
L 270.334163 101.952 
L 273.18201 101.952 
L 276.029856 101.952 
L 278.877703 101.952 
L 281.72555 101.952 
L 284.573397 101.952 
L 287.421244 101.952 
L 290.269091 101.952 
L 293.116938 101.952 
L 295.964785 101.952 
L 298.812632 101.952 
L 301.660478 101.952 
L 304.508325 101.952 
L 307.356172 101.952 
L 310.204019 101.952 
L 313.051866 101.952 
L 315.899713 101.952 
L 318.74756 101.952 
L 321.595407 101.952 
L 324.443254 101.952 
L 327.2911 101.952 
L 330.138947 101.952 
L 332.986794 101.952 
L 335.834641 101.952 
L 338.682488 101.952 
L 341.530335 101.952 
L 344.378182 101.952 
L 347.226029 101.952 
L 350.073876 101.952 
L 352.921722 101.952 
L 355.769569 101.952 
L 358.617416 101.952 
L 361.465263 101.952 
L 364.31311 101.952 
L 367.160957 101.952 
L 370.008804 101.952 
L 372.856651 101.952 
L 375.704498 101.952 
L 378.552344 101.952 
L 381.400191 101.952 
L 384.248038 101.952 
L 387.095885 101.952 
L 389.943732 101.952 
L 392.791579 101.952 
L 395.639426 101.952 
L 398.487273 101.952 
" clip-path="url(#pd5a2b9d710)" style="fill: none; stroke: #000000; stroke-width: 1.5; stroke-linecap: square"/>
   </g>
   <g id="line2d_31">
    <path d="M 73.832727 295.488 
L 76.680574 98.56512 
L 79.528421 85.98528 
L 82.376268 84.04992 
L 85.224115 84.04992 
L 88.071962 84.04992 
L 90.919809 82.5984 
L 93.767656 82.5984 
L 96.615502 82.5984 
L 99.463349 82.5984 
L 102.311196 82.5984 
L 105.159043 83.08224 
L 108.00689 82.5984 
L 110.854737 82.5984 
L 113.702584 82.5984 
L 116.550431 82.5984 
L 119.398278 82.5984 
L 122.246124 82.5984 
L 125.093971 82.5984 
L 127.941818 82.5984 
L 130.789665 82.5984 
L 133.637512 82.5984 
L 136.485359 82.5984 
L 139.333206 82.5984 
L 142.181053 82.5984 
L 145.0289 82.5984 
L 147.876746 82.5984 
L 150.724593 82.5984 
L 153.57244 82.5984 
L 156.420287 82.5984 
L 159.268134 82.5984 
L 162.115981 82.5984 
L 164.963828 82.5984 
L 167.811675 82.5984 
L 170.659522 82.5984 
L 173.507368 82.5984 
L 176.355215 82.5984 
L 179.203062 82.5984 
L 182.050909 82.5984 
L 184.898756 82.5984 
L 187.746603 82.5984 
L 190.59445 82.5984 
L 193.442297 82.5984 
L 196.290144 82.5984 
L 199.13799 82.5984 
L 201.985837 82.5984 
L 204.833684 82.5984 
L 207.681531 82.5984 
L 210.529378 82.5984 
L 213.377225 82.5984 
L 216.225072 82.5984 
L 219.072919 82.5984 
L 221.920766 82.5984 
L 224.768612 82.5984 
L 227.616459 82.5984 
L 230.464306 82.5984 
L 233.312153 82.5984 
L 236.16 82.5984 
L 239.007847 82.5984 
L 241.855694 82.5984 
L 244.703541 82.5984 
L 247.551388 82.5984 
L 250.399234 82.5984 
L 253.247081 82.5984 
L 256.094928 82.5984 
L 258.942775 82.5984 
L 261.790622 82.5984 
L 264.638469 82.5984 
L 267.486316 82.5984 
L 270.334163 82.5984 
L 273.18201 82.5984 
L 276.029856 82.5984 
L 278.877703 82.5984 
L 281.72555 82.5984 
L 284.573397 82.5984 
L 287.421244 82.5984 
L 290.269091 82.5984 
L 293.116938 82.5984 
L 295.964785 82.5984 
L 298.812632 82.5984 
L 301.660478 82.5984 
L 304.508325 82.5984 
L 307.356172 82.5984 
L 310.204019 82.5984 
L 313.051866 82.5984 
L 315.899713 82.5984 
L 318.74756 82.5984 
L 321.595407 82.5984 
L 324.443254 82.5984 
L 327.2911 82.5984 
L 330.138947 82.5984 
L 332.986794 82.5984 
L 335.834641 82.5984 
L 338.682488 82.5984 
L 341.530335 82.5984 
L 344.378182 82.5984 
L 347.226029 82.5984 
L 350.073876 82.5984 
L 352.921722 82.5984 
L 355.769569 82.5984 
L 358.617416 82.5984 
L 361.465263 82.5984 
L 364.31311 82.5984 
L 367.160957 82.5984 
L 370.008804 82.5984 
L 372.856651 82.5984 
L 375.704498 82.5984 
L 378.552344 82.5984 
L 381.400191 82.5984 
L 384.248038 82.5984 
L 387.095885 82.5984 
L 389.943732 82.5984 
L 392.791579 82.5984 
L 395.639426 82.5984 
L 398.487273 82.5984 
" clip-path="url(#pd5a2b9d710)" style="fill: none; stroke: #000000; stroke-width: 1.5; stroke-linecap: square"/>
   </g>
   <g id="line2d_32">
    <path d="M 73.832727 295.488 
L 76.680574 124.69248 
L 79.528421 122.27328 
L 82.376268 121.3056 
L 85.224115 121.3056 
L 88.071962 121.3056 
L 90.919809 121.3056 
L 93.767656 121.3056 
L 96.615502 121.3056 
L 99.463349 121.3056 
L 102.311196 121.3056 
L 105.159043 121.3056 
L 108.00689 121.3056 
L 110.854737 121.3056 
L 113.702584 121.3056 
L 116.550431 121.3056 
L 119.398278 121.3056 
L 122.246124 121.3056 
L 125.093971 121.3056 
L 127.941818 121.3056 
L 130.789665 121.3056 
L 133.637512 121.3056 
L 136.485359 121.3056 
L 139.333206 121.3056 
L 142.181053 121.3056 
L 145.0289 121.3056 
L 147.876746 121.3056 
L 150.724593 121.3056 
L 153.57244 121.3056 
L 156.420287 121.3056 
L 159.268134 121.3056 
L 162.115981 121.3056 
L 164.963828 121.3056 
L 167.811675 121.3056 
L 170.659522 121.3056 
L 173.507368 121.3056 
L 176.355215 121.3056 
L 179.203062 121.3056 
L 182.050909 121.3056 
L 184.898756 121.3056 
L 187.746603 121.3056 
L 190.59445 121.3056 
L 193.442297 121.3056 
L 196.290144 121.3056 
L 199.13799 121.3056 
L 201.985837 121.3056 
L 204.833684 121.3056 
L 207.681531 121.3056 
L 210.529378 121.3056 
L 213.377225 121.3056 
L 216.225072 121.3056 
L 219.072919 121.3056 
L 221.920766 121.3056 
L 224.768612 121.3056 
L 227.616459 121.3056 
L 230.464306 121.3056 
L 233.312153 121.3056 
L 236.16 121.3056 
L 239.007847 121.3056 
L 241.855694 121.3056 
L 244.703541 121.3056 
L 247.551388 121.3056 
L 250.399234 121.3056 
L 253.247081 121.3056 
L 256.094928 121.3056 
L 258.942775 121.3056 
L 261.790622 121.3056 
L 264.638469 121.3056 
L 267.486316 121.3056 
L 270.334163 121.3056 
L 273.18201 121.3056 
L 276.029856 121.3056 
L 278.877703 121.3056 
L 281.72555 121.3056 
L 284.573397 121.3056 
L 287.421244 121.3056 
L 290.269091 121.3056 
L 293.116938 121.3056 
L 295.964785 121.3056 
L 298.812632 121.3056 
L 301.660478 121.3056 
L 304.508325 121.3056 
L 307.356172 121.3056 
L 310.204019 121.3056 
L 313.051866 121.3056 
L 315.899713 121.3056 
L 318.74756 121.3056 
L 321.595407 121.3056 
L 324.443254 121.3056 
L 327.2911 121.3056 
L 330.138947 121.3056 
L 332.986794 121.3056 
L 335.834641 121.3056 
L 338.682488 121.3056 
L 341.530335 121.3056 
L 344.378182 121.3056 
L 347.226029 121.3056 
L 350.073876 121.3056 
L 352.921722 121.3056 
L 355.769569 121.3056 
L 358.617416 121.3056 
L 361.465263 121.3056 
L 364.31311 121.3056 
L 367.160957 121.3056 
L 370.008804 121.3056 
L 372.856651 121.3056 
L 375.704498 121.3056 
L 378.552344 121.3056 
L 381.400191 121.3056 
L 384.248038 121.3056 
L 387.095885 121.3056 
L 389.943732 121.3056 
L 392.791579 121.3056 
L 395.639426 121.3056 
L 398.487273 121.3056 
" clip-path="url(#pd5a2b9d710)" style="fill: none; stroke: #000000; stroke-width: 1.5; stroke-linecap: square"/>
   </g>
   <g id="line2d_33">
    <path d="M 73.832727 295.488 
L 76.680574 101.952 
L 79.528421 99.04896 
L 82.376268 99.5328 
L 85.224115 97.1136 
L 88.071962 97.1136 
L 90.919809 97.1136 
L 93.767656 97.1136 
L 96.615502 97.1136 
L 99.463349 97.1136 
L 102.311196 97.1136 
L 105.159043 97.1136 
L 108.00689 97.1136 
L 110.854737 97.1136 
L 113.702584 97.1136 
L 116.550431 97.1136 
L 119.398278 97.1136 
L 122.246124 97.1136 
L 125.093971 97.1136 
L 127.941818 97.1136 
L 130.789665 97.1136 
L 133.637512 97.1136 
L 136.485359 97.1136 
L 139.333206 97.1136 
L 142.181053 97.1136 
L 145.0289 97.1136 
L 147.876746 97.1136 
L 150.724593 97.1136 
L 153.57244 97.1136 
L 156.420287 97.1136 
L 159.268134 97.1136 
L 162.115981 97.1136 
L 164.963828 97.1136 
L 167.811675 97.1136 
L 170.659522 97.1136 
L 173.507368 97.1136 
L 176.355215 97.1136 
L 179.203062 97.1136 
L 182.050909 97.1136 
L 184.898756 97.1136 
L 187.746603 97.1136 
L 190.59445 97.1136 
L 193.442297 97.1136 
L 196.290144 97.1136 
L 199.13799 97.1136 
L 201.985837 97.1136 
L 204.833684 97.1136 
L 207.681531 97.1136 
L 210.529378 97.1136 
L 213.377225 97.1136 
L 216.225072 97.1136 
L 219.072919 97.1136 
L 221.920766 97.1136 
L 224.768612 97.1136 
L 227.616459 97.1136 
L 230.464306 97.1136 
L 233.312153 97.1136 
L 236.16 97.1136 
L 239.007847 97.1136 
L 241.855694 97.1136 
L 244.703541 97.1136 
L 247.551388 97.1136 
L 250.399234 97.1136 
L 253.247081 97.1136 
L 256.094928 97.1136 
L 258.942775 97.1136 
L 261.790622 97.1136 
L 264.638469 97.1136 
L 267.486316 97.1136 
L 270.334163 97.1136 
L 273.18201 97.1136 
L 276.029856 97.1136 
L 278.877703 97.1136 
L 281.72555 97.1136 
L 284.573397 97.1136 
L 287.421244 97.1136 
L 290.269091 97.1136 
L 293.116938 97.1136 
L 295.964785 97.1136 
L 298.812632 97.1136 
L 301.660478 97.1136 
L 304.508325 97.1136 
L 307.356172 97.1136 
L 310.204019 97.1136 
L 313.051866 97.1136 
L 315.899713 97.1136 
L 318.74756 97.1136 
L 321.595407 97.1136 
L 324.443254 97.1136 
L 327.2911 97.1136 
L 330.138947 97.1136 
L 332.986794 97.1136 
L 335.834641 97.1136 
L 338.682488 97.1136 
L 341.530335 97.1136 
L 344.378182 97.1136 
L 347.226029 97.1136 
L 350.073876 97.1136 
L 352.921722 97.1136 
L 355.769569 97.1136 
L 358.617416 97.1136 
L 361.465263 97.1136 
L 364.31311 97.1136 
L 367.160957 97.1136 
L 370.008804 97.1136 
L 372.856651 97.1136 
L 375.704498 97.1136 
L 378.552344 97.1136 
L 381.400191 97.1136 
L 384.248038 97.1136 
L 387.095885 97.1136 
L 389.943732 97.1136 
L 392.791579 97.1136 
L 395.639426 97.1136 
L 398.487273 97.1136 
" clip-path="url(#pd5a2b9d710)" style="fill: none; stroke: #000000; stroke-width: 1.5; stroke-linecap: square"/>
   </g>
   <g id="line2d_34">
    <path d="M 73.832727 295.488 
L 76.680574 128.07936 
L 79.528421 126.62784 
L 82.376268 126.144 
L 85.224115 126.144 
L 88.071962 126.144 
L 90.919809 126.144 
L 93.767656 126.144 
L 96.615502 126.144 
L 99.463349 126.144 
L 102.311196 126.144 
L 105.159043 126.144 
L 108.00689 126.144 
L 110.854737 126.144 
L 113.702584 126.144 
L 116.550431 126.144 
L 119.398278 126.144 
L 122.246124 126.144 
L 125.093971 126.144 
L 127.941818 126.144 
L 130.789665 126.144 
L 133.637512 126.144 
L 136.485359 126.144 
L 139.333206 126.144 
L 142.181053 126.144 
L 145.0289 126.144 
L 147.876746 126.144 
L 150.724593 126.144 
L 153.57244 126.144 
L 156.420287 126.144 
L 159.268134 126.144 
L 162.115981 126.144 
L 164.963828 126.144 
L 167.811675 126.144 
L 170.659522 126.144 
L 173.507368 126.144 
L 176.355215 126.144 
L 179.203062 126.144 
L 182.050909 126.144 
L 184.898756 126.144 
L 187.746603 126.144 
L 190.59445 126.144 
L 193.442297 126.144 
L 196.290144 126.144 
L 199.13799 126.144 
L 201.985837 126.144 
L 204.833684 126.144 
L 207.681531 126.144 
L 210.529378 126.144 
L 213.377225 126.144 
L 216.225072 126.144 
L 219.072919 126.144 
L 221.920766 126.144 
L 224.768612 126.144 
L 227.616459 126.144 
L 230.464306 126.144 
L 233.312153 126.144 
L 236.16 126.144 
L 239.007847 126.144 
L 241.855694 126.144 
L 244.703541 126.144 
L 247.551388 126.144 
L 250.399234 126.144 
L 253.247081 126.144 
L 256.094928 126.144 
L 258.942775 126.144 
L 261.790622 126.144 
L 264.638469 126.144 
L 267.486316 126.144 
L 270.334163 126.144 
L 273.18201 126.144 
L 276.029856 126.144 
L 278.877703 126.144 
L 281.72555 126.144 
L 284.573397 126.144 
L 287.421244 126.144 
L 290.269091 126.144 
L 293.116938 126.144 
L 295.964785 126.144 
L 298.812632 126.144 
L 301.660478 126.144 
L 304.508325 126.144 
L 307.356172 126.144 
L 310.204019 126.144 
L 313.051866 126.144 
L 315.899713 126.144 
L 318.74756 126.144 
L 321.595407 126.144 
L 324.443254 126.144 
L 327.2911 126.144 
L 330.138947 126.144 
L 332.986794 126.144 
L 335.834641 126.144 
L 338.682488 126.144 
L 341.530335 126.144 
L 344.378182 126.144 
L 347.226029 126.144 
L 350.073876 126.144 
L 352.921722 126.144 
L 355.769569 126.144 
L 358.617416 126.144 
L 361.465263 126.144 
L 364.31311 126.144 
L 367.160957 126.144 
L 370.008804 126.144 
L 372.856651 126.144 
L 375.704498 126.144 
L 378.552344 126.144 
L 381.400191 126.144 
L 384.248038 126.144 
L 387.095885 126.144 
L 389.943732 126.144 
L 392.791579 126.144 
L 395.639426 126.144 
L 398.487273 126.144 
" clip-path="url(#pd5a2b9d710)" style="fill: none; stroke: #000000; stroke-width: 1.5; stroke-linecap: square"/>
   </g>
   <g id="line2d_35">
    <path d="M 73.832727 295.488 
L 76.680574 119.37024 
L 79.528421 115.01568 
L 82.376268 114.048 
L 85.224115 114.53184 
L 88.071962 114.048 
L 90.919809 112.11264 
L 93.767656 111.6288 
L 96.615502 112.59648 
L 99.463349 113.08032 
L 102.311196 112.11264 
L 105.159043 112.11264 
L 108.00689 111.6288 
L 110.854737 111.6288 
L 113.702584 112.11264 
L 116.550431 111.6288 
L 119.398278 111.6288 
L 122.246124 111.6288 
L 125.093971 111.6288 
L 127.941818 111.6288 
L 130.789665 111.6288 
L 133.637512 111.6288 
L 136.485359 111.6288 
L 139.333206 111.6288 
L 142.181053 111.6288 
L 145.0289 111.6288 
L 147.876746 111.6288 
L 150.724593 111.6288 
L 153.57244 111.6288 
L 156.420287 111.6288 
L 159.268134 111.6288 
L 162.115981 111.6288 
L 164.963828 111.6288 
L 167.811675 111.6288 
L 170.659522 111.6288 
L 173.507368 111.6288 
L 176.355215 111.6288 
L 179.203062 111.6288 
L 182.050909 111.6288 
L 184.898756 111.6288 
L 187.746603 111.6288 
L 190.59445 111.6288 
L 193.442297 111.6288 
L 196.290144 111.6288 
L 199.13799 111.6288 
L 201.985837 111.6288 
L 204.833684 111.6288 
L 207.681531 111.6288 
L 210.529378 111.6288 
L 213.377225 111.6288 
L 216.225072 111.6288 
L 219.072919 111.6288 
L 221.920766 111.6288 
L 224.768612 111.6288 
L 227.616459 111.6288 
L 230.464306 111.6288 
L 233.312153 111.6288 
L 236.16 111.6288 
L 239.007847 111.6288 
L 241.855694 111.6288 
L 244.703541 111.6288 
L 247.551388 111.6288 
L 250.399234 111.6288 
L 253.247081 111.6288 
L 256.094928 111.6288 
L 258.942775 111.6288 
L 261.790622 111.6288 
L 264.638469 111.6288 
L 267.486316 111.6288 
L 270.334163 111.6288 
L 273.18201 111.6288 
L 276.029856 111.6288 
L 278.877703 111.6288 
L 281.72555 111.6288 
L 284.573397 111.6288 
L 287.421244 111.6288 
L 290.269091 111.6288 
L 293.116938 111.6288 
L 295.964785 111.6288 
L 298.812632 111.6288 
L 301.660478 111.6288 
L 304.508325 111.6288 
L 307.356172 111.6288 
L 310.204019 111.6288 
L 313.051866 111.6288 
L 315.899713 111.6288 
L 318.74756 111.6288 
L 321.595407 111.6288 
L 324.443254 111.6288 
L 327.2911 111.6288 
L 330.138947 111.6288 
L 332.986794 111.6288 
L 335.834641 111.6288 
L 338.682488 111.6288 
L 341.530335 111.6288 
L 344.378182 111.6288 
L 347.226029 111.6288 
L 350.073876 111.6288 
L 352.921722 111.6288 
L 355.769569 111.6288 
L 358.617416 111.6288 
L 361.465263 111.6288 
L 364.31311 111.6288 
L 367.160957 111.6288 
L 370.008804 111.6288 
L 372.856651 111.6288 
L 375.704498 111.6288 
L 378.552344 111.6288 
L 381.400191 111.6288 
L 384.248038 111.6288 
L 387.095885 111.6288 
L 389.943732 111.6288 
L 392.791579 111.6288 
L 395.639426 111.6288 
L 398.487273 111.6288 
" clip-path="url(#pd5a2b9d710)" style="fill: none; stroke: #000000; stroke-width: 1.5; stroke-linecap: square"/>
   </g>
   <g id="line2d_36">
    <path d="M 73.832727 295.488 
L 76.680574 91.79136 
L 79.528421 86.46912 
L 82.376268 83.08224 
L 85.224115 82.5984 
L 88.071962 82.5984 
L 90.919809 82.5984 
L 93.767656 82.5984 
L 96.615502 82.5984 
L 99.463349 82.5984 
L 102.311196 82.5984 
L 105.159043 82.5984 
L 108.00689 82.5984 
L 110.854737 82.5984 
L 113.702584 82.5984 
L 116.550431 82.5984 
L 119.398278 82.5984 
L 122.246124 82.5984 
L 125.093971 82.5984 
L 127.941818 82.5984 
L 130.789665 82.5984 
L 133.637512 82.5984 
L 136.485359 82.5984 
L 139.333206 82.5984 
L 142.181053 82.5984 
L 145.0289 82.5984 
L 147.876746 82.5984 
L 150.724593 82.5984 
L 153.57244 82.5984 
L 156.420287 82.5984 
L 159.268134 82.5984 
L 162.115981 82.5984 
L 164.963828 82.5984 
L 167.811675 82.5984 
L 170.659522 82.5984 
L 173.507368 82.5984 
L 176.355215 82.5984 
L 179.203062 82.5984 
L 182.050909 82.5984 
L 184.898756 82.5984 
L 187.746603 82.5984 
L 190.59445 82.5984 
L 193.442297 82.5984 
L 196.290144 82.5984 
L 199.13799 82.5984 
L 201.985837 82.5984 
L 204.833684 82.5984 
L 207.681531 82.5984 
L 210.529378 82.5984 
L 213.377225 82.5984 
L 216.225072 82.5984 
L 219.072919 82.5984 
L 221.920766 82.5984 
L 224.768612 82.5984 
L 227.616459 82.5984 
L 230.464306 82.5984 
L 233.312153 82.5984 
L 236.16 82.5984 
L 239.007847 82.5984 
L 241.855694 82.5984 
L 244.703541 82.5984 
L 247.551388 82.5984 
L 250.399234 82.5984 
L 253.247081 82.5984 
L 256.094928 82.5984 
L 258.942775 82.5984 
L 261.790622 82.5984 
L 264.638469 82.5984 
L 267.486316 82.5984 
L 270.334163 82.5984 
L 273.18201 82.5984 
L 276.029856 82.5984 
L 278.877703 82.5984 
L 281.72555 82.5984 
L 284.573397 82.5984 
L 287.421244 82.5984 
L 290.269091 82.5984 
L 293.116938 82.5984 
L 295.964785 82.5984 
L 298.812632 82.5984 
L 301.660478 82.5984 
L 304.508325 82.5984 
L 307.356172 82.5984 
L 310.204019 82.5984 
L 313.051866 82.5984 
L 315.899713 82.5984 
L 318.74756 82.5984 
L 321.595407 82.5984 
L 324.443254 82.5984 
L 327.2911 82.5984 
L 330.138947 82.5984 
L 332.986794 82.5984 
L 335.834641 82.5984 
L 338.682488 82.5984 
L 341.530335 82.5984 
L 344.378182 82.5984 
L 347.226029 82.5984 
L 350.073876 82.5984 
L 352.921722 82.5984 
L 355.769569 82.5984 
L 358.617416 82.5984 
L 361.465263 82.5984 
L 364.31311 82.5984 
L 367.160957 82.5984 
L 370.008804 82.5984 
L 372.856651 82.5984 
L 375.704498 82.5984 
L 378.552344 82.5984 
L 381.400191 82.5984 
L 384.248038 82.5984 
L 387.095885 82.5984 
L 389.943732 82.5984 
L 392.791579 82.5984 
L 395.639426 82.5984 
L 398.487273 82.5984 
" clip-path="url(#pd5a2b9d710)" style="fill: none; stroke: #000000; stroke-width: 1.5; stroke-linecap: square"/>
   </g>
   <g id="line2d_37">
    <path d="M 73.832727 295.488 
L 76.680574 90.33984 
L 79.528421 81.14688 
L 82.376268 81.14688 
L 85.224115 79.21152 
L 88.071962 79.21152 
L 90.919809 79.21152 
L 93.767656 77.76 
L 96.615502 77.76 
L 99.463349 78.24384 
L 102.311196 77.76 
L 105.159043 78.24384 
L 108.00689 77.76 
L 110.854737 77.76 
L 113.702584 77.76 
L 116.550431 77.76 
L 119.398278 77.76 
L 122.246124 77.76 
L 125.093971 77.76 
L 127.941818 77.76 
L 130.789665 77.76 
L 133.637512 77.76 
L 136.485359 77.76 
L 139.333206 77.76 
L 142.181053 77.76 
L 145.0289 77.76 
L 147.876746 77.76 
L 150.724593 77.76 
L 153.57244 77.76 
L 156.420287 77.76 
L 159.268134 77.76 
L 162.115981 77.76 
L 164.963828 77.76 
L 167.811675 77.76 
L 170.659522 77.76 
L 173.507368 77.76 
L 176.355215 77.76 
L 179.203062 77.76 
L 182.050909 77.76 
L 184.898756 77.76 
L 187.746603 77.76 
L 190.59445 77.76 
L 193.442297 77.76 
L 196.290144 77.76 
L 199.13799 77.76 
L 201.985837 77.76 
L 204.833684 77.76 
L 207.681531 77.76 
L 210.529378 77.76 
L 213.377225 77.76 
L 216.225072 77.76 
L 219.072919 77.76 
L 221.920766 77.76 
L 224.768612 77.76 
L 227.616459 77.76 
L 230.464306 77.76 
L 233.312153 77.76 
L 236.16 77.76 
L 239.007847 77.76 
L 241.855694 77.76 
L 244.703541 77.76 
L 247.551388 77.76 
L 250.399234 77.76 
L 253.247081 77.76 
L 256.094928 77.76 
L 258.942775 77.76 
L 261.790622 77.76 
L 264.638469 77.76 
L 267.486316 77.76 
L 270.334163 77.76 
L 273.18201 77.76 
L 276.029856 77.76 
L 278.877703 77.76 
L 281.72555 77.76 
L 284.573397 77.76 
L 287.421244 77.76 
L 290.269091 77.76 
L 293.116938 77.76 
L 295.964785 77.76 
L 298.812632 77.76 
L 301.660478 77.76 
L 304.508325 77.76 
L 307.356172 77.76 
L 310.204019 77.76 
L 313.051866 77.76 
L 315.899713 77.76 
L 318.74756 77.76 
L 321.595407 77.76 
L 324.443254 77.76 
L 327.2911 77.76 
L 330.138947 77.76 
L 332.986794 77.76 
L 335.834641 77.76 
L 338.682488 77.76 
L 341.530335 77.76 
L 344.378182 77.76 
L 347.226029 77.76 
L 350.073876 77.76 
L 352.921722 77.76 
L 355.769569 77.76 
L 358.617416 77.76 
L 361.465263 77.76 
L 364.31311 77.76 
L 367.160957 77.76 
L 370.008804 77.76 
L 372.856651 77.76 
L 375.704498 77.76 
L 378.552344 77.76 
L 381.400191 77.76 
L 384.248038 77.76 
L 387.095885 77.76 
L 389.943732 77.76 
L 392.791579 77.76 
L 395.639426 77.76 
L 398.487273 77.76 
" clip-path="url(#pd5a2b9d710)" style="fill: none; stroke: #000000; stroke-width: 1.5; stroke-linecap: square"/>
   </g>
   <g id="line2d_38">
    <path d="M 73.832727 295.488 
L 76.680574 133.88544 
L 79.528421 127.59552 
L 82.376268 126.62784 
L 85.224115 125.17632 
L 88.071962 124.69248 
L 90.919809 125.17632 
L 93.767656 125.17632 
L 96.615502 123.7248 
L 99.463349 124.20864 
L 102.311196 124.69248 
L 105.159043 125.17632 
L 108.00689 122.75712 
L 110.854737 124.20864 
L 113.702584 125.17632 
L 116.550431 124.20864 
L 119.398278 124.20864 
L 122.246124 124.20864 
L 125.093971 123.7248 
L 127.941818 123.7248 
L 130.789665 122.75712 
L 133.637512 122.27328 
L 136.485359 121.78944 
L 139.333206 121.3056 
L 142.181053 123.24096 
L 145.0289 121.78944 
L 147.876746 121.78944 
L 150.724593 121.3056 
L 153.57244 122.27328 
L 156.420287 121.78944 
L 159.268134 122.27328 
L 162.115981 121.78944 
L 164.963828 122.27328 
L 167.811675 122.27328 
L 170.659522 121.78944 
L 173.507368 122.75712 
L 176.355215 121.3056 
L 179.203062 121.3056 
L 182.050909 122.27328 
L 184.898756 122.27328 
L 187.746603 121.78944 
L 190.59445 121.3056 
L 193.442297 121.3056 
L 196.290144 122.75712 
L 199.13799 121.78944 
L 201.985837 121.3056 
L 204.833684 121.78944 
L 207.681531 121.78944 
L 210.529378 121.3056 
L 213.377225 121.78944 
L 216.225072 121.3056 
L 219.072919 122.75712 
L 221.920766 121.78944 
L 224.768612 121.78944 
L 227.616459 121.3056 
L 230.464306 121.3056 
L 233.312153 121.3056 
L 236.16 121.3056 
L 239.007847 121.3056 
L 241.855694 121.78944 
L 244.703541 121.3056 
L 247.551388 122.27328 
L 250.399234 121.3056 
L 253.247081 121.3056 
L 256.094928 121.3056 
L 258.942775 122.27328 
L 261.790622 121.3056 
L 264.638469 121.3056 
L 267.486316 121.3056 
L 270.334163 121.3056 
L 273.18201 121.3056 
L 276.029856 121.3056 
L 278.877703 121.3056 
L 281.72555 121.3056 
L 284.573397 121.3056 
L 287.421244 121.3056 
L 290.269091 121.3056 
L 293.116938 121.3056 
L 295.964785 121.3056 
L 298.812632 121.3056 
L 301.660478 121.3056 
L 304.508325 121.3056 
L 307.356172 121.3056 
L 310.204019 121.3056 
L 313.051866 121.3056 
L 315.899713 121.78944 
L 318.74756 121.3056 
L 321.595407 121.3056 
L 324.443254 121.3056 
L 327.2911 121.3056 
L 330.138947 121.3056 
L 332.986794 121.3056 
L 335.834641 121.3056 
L 338.682488 121.3056 
L 341.530335 121.3056 
L 344.378182 121.3056 
L 347.226029 121.3056 
L 350.073876 121.3056 
L 352.921722 121.3056 
L 355.769569 121.3056 
L 358.617416 121.3056 
L 361.465263 121.3056 
L 364.31311 121.3056 
L 367.160957 121.3056 
L 370.008804 121.3056 
L 372.856651 121.3056 
L 375.704498 121.3056 
L 378.552344 121.3056 
L 381.400191 121.3056 
L 384.248038 121.3056 
L 387.095885 121.3056 
L 389.943732 121.3056 
L 392.791579 121.3056 
L 395.639426 121.3056 
L 398.487273 121.3056 
" clip-path="url(#pd5a2b9d710)" style="fill: none; stroke: #000000; stroke-width: 1.5; stroke-linecap: square"/>
   </g>
   <g id="patch_3">
    <path d="M 57.6 307.584 
L 57.6 41.472 
" style="fill: none; stroke: #000000; stroke-width: 0.8; stroke-linejoin: miter; stroke-linecap: square"/>
   </g>
   <g id="patch_4">
    <path d="M 414.72 307.584 
L 414.72 41.472 
" style="fill: none; stroke: #000000; stroke-width: 0.8; stroke-linejoin: miter; stroke-linecap: square"/>
   </g>
   <g id="patch_5">
    <path d="M 57.6 307.584 
L 414.72 307.584 
" style="fill: none; stroke: #000000; stroke-width: 0.8; stroke-linejoin: miter; stroke-linecap: square"/>
   </g>
   <g id="patch_6">
    <path d="M 57.6 41.472 
L 414.72 41.472 
" style="fill: none; stroke: #000000; stroke-width: 0.8; stroke-linejoin: miter; stroke-linecap: square"/>
   </g>
   <g id="text_15">
    <!-- Curva do coletor - tabela rarefeita -->
    <g transform="translate(133.934062 35.472) scale(0.12 -0.12)">
     <defs>
      <path id="DejaVuSans-43" d="M 4122 4306 
L 4122 3641 
Q 3803 3938 3442 4084 
Q 3081 4231 2675 4231 
Q 1875 4231 1450 3742 
Q 1025 3253 1025 2328 
Q 1025 1406 1450 917 
Q 1875 428 2675 428 
Q 3081 428 3442 575 
Q 3803 722 4122 1019 
L 4122 359 
Q 3791 134 3420 21 
Q 3050 -91 2638 -91 
Q 1578 -91 968 557 
Q 359 1206 359 2328 
Q 359 3453 968 4101 
Q 1578 4750 2638 4750 
Q 3056 4750 3426 4639 
Q 3797 4528 4122 4306 
z
" transform="scale(0.015625)"/>
      <path id="DejaVuSans-76" d="M 191 3500 
L 800 3500 
L 1894 563 
L 2988 3500 
L 3597 3500 
L 2284 0 
L 1503 0 
L 191 3500 
z
" transform="scale(0.015625)"/>
      <path id="DejaVuSans-63" d="M 3122 3366 
L 3122 2828 
Q 2878 2963 2633 3030 
Q 2388 3097 2138 3097 
Q 1578 3097 1268 2742 
Q 959 2388 959 1747 
Q 959 1106 1268 751 
Q 1578 397 2138 397 
Q 2388 397 2633 464 
Q 2878 531 3122 666 
L 3122 134 
Q 2881 22 2623 -34 
Q 2366 -91 2075 -91 
Q 1284 -91 818 406 
Q 353 903 353 1747 
Q 353 2603 823 3093 
Q 1294 3584 2113 3584 
Q 2378 3584 2631 3529 
Q 2884 3475 3122 3366 
z
" transform="scale(0.015625)"/>
      <path id="DejaVuSans-6c" d="M 603 4863 
L 1178 4863 
L 1178 0 
L 603 0 
L 603 4863 
z
" transform="scale(0.015625)"/>
      <path id="DejaVuSans-2d" d="M 313 2009 
L 1997 2009 
L 1997 1497 
L 313 1497 
L 313 2009 
z
" transform="scale(0.015625)"/>
      <path id="DejaVuSans-62" d="M 3116 1747 
Q 3116 2381 2855 2742 
Q 2594 3103 2138 3103 
Q 1681 3103 1420 2742 
Q 1159 2381 1159 1747 
Q 1159 1113 1420 752 
Q 1681 391 2138 391 
Q 2594 391 2855 752 
Q 3116 1113 3116 1747 
z
M 1159 2969 
Q 1341 3281 1617 3432 
Q 1894 3584 2278 3584 
Q 2916 3584 3314 3078 
Q 3713 2572 3713 1747 
Q 3713 922 3314 415 
Q 2916 -91 2278 -91 
Q 1894 -91 1617 61 
Q 1341 213 1159 525 
L 1159 0 
L 581 0 
L 581 4863 
L 1159 4863 
L 1159 2969 
z
" transform="scale(0.015625)"/>
      <path id="DejaVuSans-66" d="M 2375 4863 
L 2375 4384 
L 1825 4384 
Q 1516 4384 1395 4259 
Q 1275 4134 1275 3809 
L 1275 3500 
L 2222 3500 
L 2222 3053 
L 1275 3053 
L 1275 0 
L 697 0 
L 697 3053 
L 147 3053 
L 147 3500 
L 697 3500 
L 697 3744 
Q 697 4328 969 4595 
Q 1241 4863 1831 4863 
L 2375 4863 
z
" transform="scale(0.015625)"/>
     </defs>
     <use xlink:href="#DejaVuSans-43"/>
     <use xlink:href="#DejaVuSans-75" x="69.824219"/>
     <use xlink:href="#DejaVuSans-72" x="133.203125"/>
     <use xlink:href="#DejaVuSans-76" x="174.316406"/>
     <use xlink:href="#DejaVuSans-61" x="233.496094"/>
     <use xlink:href="#DejaVuSans-20" x="294.775391"/>
     <use xlink:href="#DejaVuSans-64" x="326.5625"/>
     <use xlink:href="#DejaVuSans-6f" x="390.039062"/>
     <use xlink:href="#DejaVuSans-20" x="451.220703"/>
     <use xlink:href="#DejaVuSans-63" x="483.007812"/>
     <use xlink:href="#DejaVuSans-6f" x="537.988281"/>
     <use xlink:href="#DejaVuSans-6c" x="599.169922"/>
     <use xlink:href="#DejaVuSans-65" x="626.953125"/>
     <use xlink:href="#DejaVuSans-74" x="688.476562"/>
     <use xlink:href="#DejaVuSans-6f" x="727.685547"/>
     <use xlink:href="#DejaVuSans-72" x="788.867188"/>
     <use xlink:href="#DejaVuSans-20" x="829.980469"/>
     <use xlink:href="#DejaVuSans-2d" x="861.767578"/>
     <use xlink:href="#DejaVuSans-20" x="897.851562"/>
     <use xlink:href="#DejaVuSans-74" x="929.638672"/>
     <use xlink:href="#DejaVuSans-61" x="968.847656"/>
     <use xlink:href="#DejaVuSans-62" x="1030.126953"/>
     <use xlink:href="#DejaVuSans-65" x="1093.603516"/>
     <use xlink:href="#DejaVuSans-6c" x="1155.126953"/>
     <use xlink:href="#DejaVuSans-61" x="1182.910156"/>
     <use xlink:href="#DejaVuSans-20" x="1244.189453"/>
     <use xlink:href="#DejaVuSans-72" x="1275.976562"/>
     <use xlink:href="#DejaVuSans-61" x="1317.089844"/>
     <use xlink:href="#DejaVuSans-72" x="1378.369141"/>
     <use xlink:href="#DejaVuSans-65" x="1417.232422"/>
     <use xlink:href="#DejaVuSans-66" x="1478.755859"/>
     <use xlink:href="#DejaVuSans-65" x="1513.960938"/>
     <use xlink:href="#DejaVuSans-69" x="1575.484375"/>
     <use xlink:href="#DejaVuSans-74" x="1603.267578"/>
     <use xlink:href="#DejaVuSans-61" x="1642.476562"/>
    </g>
   </g>
  </g>
 </g>
 <defs>
  <clipPath id="pd5a2b9d710">
   <rect x="57.6" y="41.472" width="357.12" height="266.112"/>
  </clipPath>
 </defs>
</svg>
