<?xml version="1.0" encoding="utf-8" standalone="no"?>
<!DOCTYPE svg PUBLIC "-//W3C//DTD SVG 1.1//EN"
  "http://www.w3.org/Graphics/SVG/1.1/DTD/svg11.dtd">
<svg xmlns:xlink="http://www.w3.org/1999/xlink" width="460.8pt" height="345.6pt" viewBox="0 0 460.8 345.6" xmlns="http://www.w3.org/2000/svg" version="1.1">
 <metadata>
  <rdf:RDF xmlns:dc="http://purl.org/dc/elements/1.1/" xmlns:cc="http://creativecommons.org/ns#" xmlns:rdf="http://www.w3.org/1999/02/22-rdf-syntax-ns#">
   <cc:Work>
    <dc:type rdf:resource="http://purl.org/dc/dcmitype/StillImage"/>
    <dc:date>2024-05-30T19:57:32.721139</dc:date>
    <dc:format>image/svg+xml</dc:format>
    <dc:creator>
     <cc:Agent>
      <dc:title>Matplotlib v3.9.0, https://matplotlib.org/</dc:title>
     </cc:Agent>
    </dc:creator>
   </cc:Work>
  </rdf:RDF>
 </metadata>
 <defs>
  <style type="text/css">*{stroke-linejoin: round; stroke-linecap: butt}</style>
 </defs>
 <g id="figure_1">
  <g id="patch_1">
   <path d="M 0 345.6 
L 460.8 345.6 
L 460.8 0 
L 0 0 
z
" style="fill: #ffffff"/>
  </g>
  <g id="axes_1">
   <g id="patch_2">
    <path d="M 57.6 307.584 
L 414.72 307.584 
L 414.72 41.472 
L 57.6 41.472 
z
" style="fill: #ffffff"/>
   </g>
   <g id="PolyCollection_1"/>
   <g id="PolyCollection_2"/>
   <g id="PolyCollection_3"/>
   <g id="PolyCollection_4"/>
   <g id="PolyCollection_5"/>
   <g id="PolyCollection_6"/>
   <g id="PolyCollection_7"/>
   <g id="PolyCollection_8"/>
   <g id="PolyCollection_9"/>
   <g id="PolyCollection_10"/>
   <g id="PolyCollection_11"/>
   <g id="PolyCollection_12"/>
   <g id="PolyCollection_13"/>
   <g id="PolyCollection_14"/>
   <g id="PolyCollection_15"/>
   <g id="PolyCollection_16"/>
   <g id="PolyCollection_17"/>
   <g id="PolyCollection_18"/>
   <g id="PolyCollection_19"/>
   <g id="PolyCollection_20"/>
   <g id="PolyCollection_21"/>
   <g id="PolyCollection_22"/>
   <g id="PolyCollection_23"/>
   <g id="PolyCollection_24"/>
   <g id="PolyCollection_25"/>
   <g id="PolyCollection_26"/>
   <g id="matplotlib.axis_1">
    <g id="xtick_1">
     <g id="line2d_1">
      <defs>
       <path id="m66e46d9391" d="M 0 0 
L 0 3.5 
" style="stroke: #000000; stroke-width: 0.8"/>
      </defs>
      <g>
       <use xlink:href="#m66e46d9391" x="73.832727" y="307.584" style="stroke: #000000; stroke-width: 0.8"/>
      </g>
     </g>
     <g id="text_1">
      <!-- 0 -->
      <g transform="translate(70.651477 322.182437) scale(0.1 -0.1)">
       <defs>
        <path id="DejaVuSans-30" d="M 2034 4250 
Q 1547 4250 1301 3770 
Q 1056 3291 1056 2328 
Q 1056 1369 1301 889 
Q 1547 409 2034 409 
Q 2525 409 2770 889 
Q 3016 1369 3016 2328 
Q 3016 3291 2770 3770 
Q 2525 4250 2034 4250 
z
M 2034 4750 
Q 2819 4750 3233 4129 
Q 3647 3509 3647 2328 
Q 3647 1150 3233 529 
Q 2819 -91 2034 -91 
Q 1250 -91 836 529 
Q 422 1150 422 2328 
Q 422 3509 836 4129 
Q 1250 4750 2034 4750 
z
" transform="scale(0.015625)"/>
       </defs>
       <use xlink:href="#DejaVuSans-30"/>
      </g>
     </g>
    </g>
    <g id="xtick_2">
     <g id="line2d_2">
      <g>
       <use xlink:href="#m66e46d9391" x="139.089922" y="307.584" style="stroke: #000000; stroke-width: 0.8"/>
      </g>
     </g>
     <g id="text_2">
      <!-- 20000 -->
      <g transform="translate(123.183672 322.182437) scale(0.1 -0.1)">
       <defs>
        <path id="DejaVuSans-32" d="M 1228 531 
L 3431 531 
L 3431 0 
L 469 0 
L 469 531 
Q 828 903 1448 1529 
Q 2069 2156 2228 2338 
Q 2531 2678 2651 2914 
Q 2772 3150 2772 3378 
Q 2772 3750 2511 3984 
Q 2250 4219 1831 4219 
Q 1534 4219 1204 4116 
Q 875 4013 500 3803 
L 500 4441 
Q 881 4594 1212 4672 
Q 1544 4750 1819 4750 
Q 2544 4750 2975 4387 
Q 3406 4025 3406 3419 
Q 3406 3131 3298 2873 
Q 3191 2616 2906 2266 
Q 2828 2175 2409 1742 
Q 1991 1309 1228 531 
z
" transform="scale(0.015625)"/>
       </defs>
       <use xlink:href="#DejaVuSans-32"/>
       <use xlink:href="#DejaVuSans-30" x="63.623047"/>
       <use xlink:href="#DejaVuSans-30" x="127.246094"/>
       <use xlink:href="#DejaVuSans-30" x="190.869141"/>
       <use xlink:href="#DejaVuSans-30" x="254.492188"/>
      </g>
     </g>
    </g>
    <g id="xtick_3">
     <g id="line2d_3">
      <g>
       <use xlink:href="#m66e46d9391" x="204.347117" y="307.584" style="stroke: #000000; stroke-width: 0.8"/>
      </g>
     </g>
     <g id="text_3">
      <!-- 40000 -->
      <g transform="translate(188.440867 322.182437) scale(0.1 -0.1)">
       <defs>
        <path id="DejaVuSans-34" d="M 2419 4116 
L 825 1625 
L 2419 1625 
L 2419 4116 
z
M 2253 4666 
L 3047 4666 
L 3047 1625 
L 3713 1625 
L 3713 1100 
L 3047 1100 
L 3047 0 
L 2419 0 
L 2419 1100 
L 313 1100 
L 313 1709 
L 2253 4666 
z
" transform="scale(0.015625)"/>
       </defs>
       <use xlink:href="#DejaVuSans-34"/>
       <use xlink:href="#DejaVuSans-30" x="63.623047"/>
       <use xlink:href="#DejaVuSans-30" x="127.246094"/>
       <use xlink:href="#DejaVuSans-30" x="190.869141"/>
       <use xlink:href="#DejaVuSans-30" x="254.492188"/>
      </g>
     </g>
    </g>
    <g id="xtick_4">
     <g id="line2d_4">
      <g>
       <use xlink:href="#m66e46d9391" x="269.604312" y="307.584" style="stroke: #000000; stroke-width: 0.8"/>
      </g>
     </g>
     <g id="text_4">
      <!-- 60000 -->
      <g transform="translate(253.698062 322.182437) scale(0.1 -0.1)">
       <defs>
        <path id="DejaVuSans-36" d="M 2113 2584 
Q 1688 2584 1439 2293 
Q 1191 2003 1191 1497 
Q 1191 994 1439 701 
Q 1688 409 2113 409 
Q 2538 409 2786 701 
Q 3034 994 3034 1497 
Q 3034 2003 2786 2293 
Q 2538 2584 2113 2584 
z
M 3366 4563 
L 3366 3988 
Q 3128 4100 2886 4159 
Q 2644 4219 2406 4219 
Q 1781 4219 1451 3797 
Q 1122 3375 1075 2522 
Q 1259 2794 1537 2939 
Q 1816 3084 2150 3084 
Q 2853 3084 3261 2657 
Q 3669 2231 3669 1497 
Q 3669 778 3244 343 
Q 2819 -91 2113 -91 
Q 1303 -91 875 529 
Q 447 1150 447 2328 
Q 447 3434 972 4092 
Q 1497 4750 2381 4750 
Q 2619 4750 2861 4703 
Q 3103 4656 3366 4563 
z
" transform="scale(0.015625)"/>
       </defs>
       <use xlink:href="#DejaVuSans-36"/>
       <use xlink:href="#DejaVuSans-30" x="63.623047"/>
       <use xlink:href="#DejaVuSans-30" x="127.246094"/>
       <use xlink:href="#DejaVuSans-30" x="190.869141"/>
       <use xlink:href="#DejaVuSans-30" x="254.492188"/>
      </g>
     </g>
    </g>
    <g id="xtick_5">
     <g id="line2d_5">
      <g>
       <use xlink:href="#m66e46d9391" x="334.861508" y="307.584" style="stroke: #000000; stroke-width: 0.8"/>
      </g>
     </g>
     <g id="text_5">
      <!-- 80000 -->
      <g transform="translate(318.955258 322.182437) scale(0.1 -0.1)">
       <defs>
        <path id="DejaVuSans-38" d="M 2034 2216 
Q 1584 2216 1326 1975 
Q 1069 1734 1069 1313 
Q 1069 891 1326 650 
Q 1584 409 2034 409 
Q 2484 409 2743 651 
Q 3003 894 3003 1313 
Q 3003 1734 2745 1975 
Q 2488 2216 2034 2216 
z
M 1403 2484 
Q 997 2584 770 2862 
Q 544 3141 544 3541 
Q 544 4100 942 4425 
Q 1341 4750 2034 4750 
Q 2731 4750 3128 4425 
Q 3525 4100 3525 3541 
Q 3525 3141 3298 2862 
Q 3072 2584 2669 2484 
Q 3125 2378 3379 2068 
Q 3634 1759 3634 1313 
Q 3634 634 3220 271 
Q 2806 -91 2034 -91 
Q 1263 -91 848 271 
Q 434 634 434 1313 
Q 434 1759 690 2068 
Q 947 2378 1403 2484 
z
M 1172 3481 
Q 1172 3119 1398 2916 
Q 1625 2713 2034 2713 
Q 2441 2713 2670 2916 
Q 2900 3119 2900 3481 
Q 2900 3844 2670 4047 
Q 2441 4250 2034 4250 
Q 1625 4250 1398 4047 
Q 1172 3844 1172 3481 
z
" transform="scale(0.015625)"/>
       </defs>
       <use xlink:href="#DejaVuSans-38"/>
       <use xlink:href="#DejaVuSans-30" x="63.623047"/>
       <use xlink:href="#DejaVuSans-30" x="127.246094"/>
       <use xlink:href="#DejaVuSans-30" x="190.869141"/>
       <use xlink:href="#DejaVuSans-30" x="254.492188"/>
      </g>
     </g>
    </g>
    <g id="xtick_6">
     <g id="line2d_6">
      <g>
       <use xlink:href="#m66e46d9391" x="400.118703" y="307.584" style="stroke: #000000; stroke-width: 0.8"/>
      </g>
     </g>
     <g id="text_6">
      <!-- 100000 -->
      <g transform="translate(381.031203 322.182437) scale(0.1 -0.1)">
       <defs>
        <path id="DejaVuSans-31" d="M 794 531 
L 1825 531 
L 1825 4091 
L 703 3866 
L 703 4441 
L 1819 4666 
L 2450 4666 
L 2450 531 
L 3481 531 
L 3481 0 
L 794 0 
L 794 531 
z
" transform="scale(0.015625)"/>
       </defs>
       <use xlink:href="#DejaVuSans-31"/>
       <use xlink:href="#DejaVuSans-30" x="63.623047"/>
       <use xlink:href="#DejaVuSans-30" x="127.246094"/>
       <use xlink:href="#DejaVuSans-30" x="190.869141"/>
       <use xlink:href="#DejaVuSans-30" x="254.492188"/>
       <use xlink:href="#DejaVuSans-30" x="318.115234"/>
      </g>
     </g>
    </g>
    <g id="text_7">
     <!-- Nº de reads amostradas -->
     <g transform="translate(175.661563 335.860562) scale(0.1 -0.1)">
      <defs>
       <path id="DejaVuSans-4e" d="M 628 4666 
L 1478 4666 
L 3547 763 
L 3547 4666 
L 4159 4666 
L 4159 0 
L 3309 0 
L 1241 3903 
L 1241 0 
L 628 0 
L 628 4666 
z
" transform="scale(0.015625)"/>
       <path id="DejaVuSans-ba" d="M 434 1850 
L 2584 1850 
L 2584 1466 
L 434 1466 
L 434 1850 
z
M 1509 4750 
Q 2069 4750 2391 4404 
Q 2713 4059 2713 3463 
Q 2713 2866 2391 2523 
Q 2069 2181 1509 2181 
Q 950 2181 625 2525 
Q 300 2869 300 3463 
Q 300 4059 625 4404 
Q 950 4750 1509 4750 
z
M 1509 4391 
Q 1181 4391 984 4139 
Q 788 3888 788 3463 
Q 788 3047 986 2797 
Q 1184 2547 1509 2547 
Q 1838 2547 2033 2797 
Q 2228 3047 2228 3463 
Q 2228 3891 2034 4141 
Q 1841 4391 1509 4391 
z
" transform="scale(0.015625)"/>
       <path id="DejaVuSans-20" transform="scale(0.015625)"/>
       <path id="DejaVuSans-64" d="M 2906 2969 
L 2906 4863 
L 3481 4863 
L 3481 0 
L 2906 0 
L 2906 525 
Q 2725 213 2448 61 
Q 2172 -91 1784 -91 
Q 1150 -91 751 415 
Q 353 922 353 1747 
Q 353 2572 751 3078 
Q 1150 3584 1784 3584 
Q 2172 3584 2448 3432 
Q 2725 3281 2906 2969 
z
M 947 1747 
Q 947 1113 1208 752 
Q 1469 391 1925 391 
Q 2381 391 2643 752 
Q 2906 1113 2906 1747 
Q 2906 2381 2643 2742 
Q 2381 3103 1925 3103 
Q 1469 3103 1208 2742 
Q 947 2381 947 1747 
z
" transform="scale(0.015625)"/>
       <path id="DejaVuSans-65" d="M 3597 1894 
L 3597 1613 
L 953 1613 
Q 991 1019 1311 708 
Q 1631 397 2203 397 
Q 2534 397 2845 478 
Q 3156 559 3463 722 
L 3463 178 
Q 3153 47 2828 -22 
Q 2503 -91 2169 -91 
Q 1331 -91 842 396 
Q 353 884 353 1716 
Q 353 2575 817 3079 
Q 1281 3584 2069 3584 
Q 2775 3584 3186 3129 
Q 3597 2675 3597 1894 
z
M 3022 2063 
Q 3016 2534 2758 2815 
Q 2500 3097 2075 3097 
Q 1594 3097 1305 2825 
Q 1016 2553 972 2059 
L 3022 2063 
z
" transform="scale(0.015625)"/>
       <path id="DejaVuSans-72" d="M 2631 2963 
Q 2534 3019 2420 3045 
Q 2306 3072 2169 3072 
Q 1681 3072 1420 2755 
Q 1159 2438 1159 1844 
L 1159 0 
L 581 0 
L 581 3500 
L 1159 3500 
L 1159 2956 
Q 1341 3275 1631 3429 
Q 1922 3584 2338 3584 
Q 2397 3584 2469 3576 
Q 2541 3569 2628 3553 
L 2631 2963 
z
" transform="scale(0.015625)"/>
       <path id="DejaVuSans-61" d="M 2194 1759 
Q 1497 1759 1228 1600 
Q 959 1441 959 1056 
Q 959 750 1161 570 
Q 1363 391 1709 391 
Q 2188 391 2477 730 
Q 2766 1069 2766 1631 
L 2766 1759 
L 2194 1759 
z
M 3341 1997 
L 3341 0 
L 2766 0 
L 2766 531 
Q 2569 213 2275 61 
Q 1981 -91 1556 -91 
Q 1019 -91 701 211 
Q 384 513 384 1019 
Q 384 1609 779 1909 
Q 1175 2209 1959 2209 
L 2766 2209 
L 2766 2266 
Q 2766 2663 2505 2880 
Q 2244 3097 1772 3097 
Q 1472 3097 1187 3025 
Q 903 2953 641 2809 
L 641 3341 
Q 956 3463 1253 3523 
Q 1550 3584 1831 3584 
Q 2591 3584 2966 3190 
Q 3341 2797 3341 1997 
z
" transform="scale(0.015625)"/>
       <path id="DejaVuSans-73" d="M 2834 3397 
L 2834 2853 
Q 2591 2978 2328 3040 
Q 2066 3103 1784 3103 
Q 1356 3103 1142 2972 
Q 928 2841 928 2578 
Q 928 2378 1081 2264 
Q 1234 2150 1697 2047 
L 1894 2003 
Q 2506 1872 2764 1633 
Q 3022 1394 3022 966 
Q 3022 478 2636 193 
Q 2250 -91 1575 -91 
Q 1294 -91 989 -36 
Q 684 19 347 128 
L 347 722 
Q 666 556 975 473 
Q 1284 391 1588 391 
Q 1994 391 2212 530 
Q 2431 669 2431 922 
Q 2431 1156 2273 1281 
Q 2116 1406 1581 1522 
L 1381 1569 
Q 847 1681 609 1914 
Q 372 2147 372 2553 
Q 372 3047 722 3315 
Q 1072 3584 1716 3584 
Q 2034 3584 2315 3537 
Q 2597 3491 2834 3397 
z
" transform="scale(0.015625)"/>
       <path id="DejaVuSans-6d" d="M 3328 2828 
Q 3544 3216 3844 3400 
Q 4144 3584 4550 3584 
Q 5097 3584 5394 3201 
Q 5691 2819 5691 2113 
L 5691 0 
L 5113 0 
L 5113 2094 
Q 5113 2597 4934 2840 
Q 4756 3084 4391 3084 
Q 3944 3084 3684 2787 
Q 3425 2491 3425 1978 
L 3425 0 
L 2847 0 
L 2847 2094 
Q 2847 2600 2669 2842 
Q 2491 3084 2119 3084 
Q 1678 3084 1418 2786 
Q 1159 2488 1159 1978 
L 1159 0 
L 581 0 
L 581 3500 
L 1159 3500 
L 1159 2956 
Q 1356 3278 1631 3431 
Q 1906 3584 2284 3584 
Q 2666 3584 2933 3390 
Q 3200 3197 3328 2828 
z
" transform="scale(0.015625)"/>
       <path id="DejaVuSans-6f" d="M 1959 3097 
Q 1497 3097 1228 2736 
Q 959 2375 959 1747 
Q 959 1119 1226 758 
Q 1494 397 1959 397 
Q 2419 397 2687 759 
Q 2956 1122 2956 1747 
Q 2956 2369 2687 2733 
Q 2419 3097 1959 3097 
z
M 1959 3584 
Q 2709 3584 3137 3096 
Q 3566 2609 3566 1747 
Q 3566 888 3137 398 
Q 2709 -91 1959 -91 
Q 1206 -91 779 398 
Q 353 888 353 1747 
Q 353 2609 779 3096 
Q 1206 3584 1959 3584 
z
" transform="scale(0.015625)"/>
       <path id="DejaVuSans-74" d="M 1172 4494 
L 1172 3500 
L 2356 3500 
L 2356 3053 
L 1172 3053 
L 1172 1153 
Q 1172 725 1289 603 
Q 1406 481 1766 481 
L 2356 481 
L 2356 0 
L 1766 0 
Q 1100 0 847 248 
Q 594 497 594 1153 
L 594 3053 
L 172 3053 
L 172 3500 
L 594 3500 
L 594 4494 
L 1172 4494 
z
" transform="scale(0.015625)"/>
      </defs>
      <use xlink:href="#DejaVuSans-4e"/>
      <use xlink:href="#DejaVuSans-ba" x="74.804688"/>
      <use xlink:href="#DejaVuSans-20" x="121.923828"/>
      <use xlink:href="#DejaVuSans-64" x="153.710938"/>
      <use xlink:href="#DejaVuSans-65" x="217.1875"/>
      <use xlink:href="#DejaVuSans-20" x="278.710938"/>
      <use xlink:href="#DejaVuSans-72" x="310.498047"/>
      <use xlink:href="#DejaVuSans-65" x="349.361328"/>
      <use xlink:href="#DejaVuSans-61" x="410.884766"/>
      <use xlink:href="#DejaVuSans-64" x="472.164062"/>
      <use xlink:href="#DejaVuSans-73" x="535.640625"/>
      <use xlink:href="#DejaVuSans-20" x="587.740234"/>
      <use xlink:href="#DejaVuSans-61" x="619.527344"/>
      <use xlink:href="#DejaVuSans-6d" x="680.806641"/>
      <use xlink:href="#DejaVuSans-6f" x="778.21875"/>
      <use xlink:href="#DejaVuSans-73" x="839.400391"/>
      <use xlink:href="#DejaVuSans-74" x="891.5"/>
      <use xlink:href="#DejaVuSans-72" x="930.708984"/>
      <use xlink:href="#DejaVuSans-61" x="971.822266"/>
      <use xlink:href="#DejaVuSans-64" x="1033.101562"/>
      <use xlink:href="#DejaVuSans-61" x="1096.578125"/>
      <use xlink:href="#DejaVuSans-73" x="1157.857422"/>
     </g>
    </g>
   </g>
   <g id="matplotlib.axis_2">
    <g id="ytick_1">
     <g id="line2d_7">
      <defs>
       <path id="m47f47dcd27" d="M 0 0 
L -3.5 0 
" style="stroke: #000000; stroke-width: 0.8"/>
      </defs>
      <g>
       <use xlink:href="#m47f47dcd27" x="57.6" y="295.488" style="stroke: #000000; stroke-width: 0.8"/>
      </g>
     </g>
     <g id="text_8">
      <!-- 0 -->
      <g transform="translate(44.2375 299.287219) scale(0.1 -0.1)">
       <use xlink:href="#DejaVuSans-30"/>
      </g>
     </g>
    </g>
    <g id="ytick_2">
     <g id="line2d_8">
      <g>
       <use xlink:href="#m47f47dcd27" x="57.6" y="247.104" style="stroke: #000000; stroke-width: 0.8"/>
      </g>
     </g>
     <g id="text_9">
      <!-- 10 -->
      <g transform="translate(37.875 250.903219) scale(0.1 -0.1)">
       <use xlink:href="#DejaVuSans-31"/>
       <use xlink:href="#DejaVuSans-30" x="63.623047"/>
      </g>
     </g>
    </g>
    <g id="ytick_3">
     <g id="line2d_9">
      <g>
       <use xlink:href="#m47f47dcd27" x="57.6" y="198.72" style="stroke: #000000; stroke-width: 0.8"/>
      </g>
     </g>
     <g id="text_10">
      <!-- 20 -->
      <g transform="translate(37.875 202.519219) scale(0.1 -0.1)">
       <use xlink:href="#DejaVuSans-32"/>
       <use xlink:href="#DejaVuSans-30" x="63.623047"/>
      </g>
     </g>
    </g>
    <g id="ytick_4">
     <g id="line2d_10">
      <g>
       <use xlink:href="#m47f47dcd27" x="57.6" y="150.336" style="stroke: #000000; stroke-width: 0.8"/>
      </g>
     </g>
     <g id="text_11">
      <!-- 30 -->
      <g transform="translate(37.875 154.135219) scale(0.1 -0.1)">
       <defs>
        <path id="DejaVuSans-33" d="M 2597 2516 
Q 3050 2419 3304 2112 
Q 3559 1806 3559 1356 
Q 3559 666 3084 287 
Q 2609 -91 1734 -91 
Q 1441 -91 1130 -33 
Q 819 25 488 141 
L 488 750 
Q 750 597 1062 519 
Q 1375 441 1716 441 
Q 2309 441 2620 675 
Q 2931 909 2931 1356 
Q 2931 1769 2642 2001 
Q 2353 2234 1838 2234 
L 1294 2234 
L 1294 2753 
L 1863 2753 
Q 2328 2753 2575 2939 
Q 2822 3125 2822 3475 
Q 2822 3834 2567 4026 
Q 2313 4219 1838 4219 
Q 1578 4219 1281 4162 
Q 984 4106 628 3988 
L 628 4550 
Q 988 4650 1302 4700 
Q 1616 4750 1894 4750 
Q 2613 4750 3031 4423 
Q 3450 4097 3450 3541 
Q 3450 3153 3228 2886 
Q 3006 2619 2597 2516 
z
" transform="scale(0.015625)"/>
       </defs>
       <use xlink:href="#DejaVuSans-33"/>
       <use xlink:href="#DejaVuSans-30" x="63.623047"/>
      </g>
     </g>
    </g>
    <g id="ytick_5">
     <g id="line2d_11">
      <g>
       <use xlink:href="#m47f47dcd27" x="57.6" y="101.952" style="stroke: #000000; stroke-width: 0.8"/>
      </g>
     </g>
     <g id="text_12">
      <!-- 40 -->
      <g transform="translate(37.875 105.751219) scale(0.1 -0.1)">
       <use xlink:href="#DejaVuSans-34"/>
       <use xlink:href="#DejaVuSans-30" x="63.623047"/>
      </g>
     </g>
    </g>
    <g id="ytick_6">
     <g id="line2d_12">
      <g>
       <use xlink:href="#m47f47dcd27" x="57.6" y="53.568" style="stroke: #000000; stroke-width: 0.8"/>
      </g>
     </g>
     <g id="text_13">
      <!-- 50 -->
      <g transform="translate(37.875 57.367219) scale(0.1 -0.1)">
       <defs>
        <path id="DejaVuSans-35" d="M 691 4666 
L 3169 4666 
L 3169 4134 
L 1269 4134 
L 1269 2991 
Q 1406 3038 1543 3061 
Q 1681 3084 1819 3084 
Q 2600 3084 3056 2656 
Q 3513 2228 3513 1497 
Q 3513 744 3044 326 
Q 2575 -91 1722 -91 
Q 1428 -91 1123 -41 
Q 819 9 494 109 
L 494 744 
Q 775 591 1075 516 
Q 1375 441 1709 441 
Q 2250 441 2565 725 
Q 2881 1009 2881 1497 
Q 2881 1984 2565 2268 
Q 2250 2553 1709 2553 
Q 1456 2553 1204 2497 
Q 953 2441 691 2322 
L 691 4666 
z
" transform="scale(0.015625)"/>
       </defs>
       <use xlink:href="#DejaVuSans-35"/>
       <use xlink:href="#DejaVuSans-30" x="63.623047"/>
      </g>
     </g>
    </g>
    <g id="text_14">
     <!-- Riqueza média -->
     <g transform="translate(31.795312 211.662375) rotate(-90) scale(0.1 -0.1)">
      <defs>
       <path id="DejaVuSans-52" d="M 2841 2188 
Q 3044 2119 3236 1894 
Q 3428 1669 3622 1275 
L 4263 0 
L 3584 0 
L 2988 1197 
Q 2756 1666 2539 1819 
Q 2322 1972 1947 1972 
L 1259 1972 
L 1259 0 
L 628 0 
L 628 4666 
L 2053 4666 
Q 2853 4666 3247 4331 
Q 3641 3997 3641 3322 
Q 3641 2881 3436 2590 
Q 3231 2300 2841 2188 
z
M 1259 4147 
L 1259 2491 
L 2053 2491 
Q 2509 2491 2742 2702 
Q 2975 2913 2975 3322 
Q 2975 3731 2742 3939 
Q 2509 4147 2053 4147 
L 1259 4147 
z
" transform="scale(0.015625)"/>
       <path id="DejaVuSans-69" d="M 603 3500 
L 1178 3500 
L 1178 0 
L 603 0 
L 603 3500 
z
M 603 4863 
L 1178 4863 
L 1178 4134 
L 603 4134 
L 603 4863 
z
" transform="scale(0.015625)"/>
       <path id="DejaVuSans-71" d="M 947 1747 
Q 947 1113 1208 752 
Q 1469 391 1925 391 
Q 2381 391 2643 752 
Q 2906 1113 2906 1747 
Q 2906 2381 2643 2742 
Q 2381 3103 1925 3103 
Q 1469 3103 1208 2742 
Q 947 2381 947 1747 
z
M 2906 525 
Q 2725 213 2448 61 
Q 2172 -91 1784 -91 
Q 1150 -91 751 415 
Q 353 922 353 1747 
Q 353 2572 751 3078 
Q 1150 3584 1784 3584 
Q 2172 3584 2448 3432 
Q 2725 3281 2906 2969 
L 2906 3500 
L 3481 3500 
L 3481 -1331 
L 2906 -1331 
L 2906 525 
z
" transform="scale(0.015625)"/>
       <path id="DejaVuSans-75" d="M 544 1381 
L 544 3500 
L 1119 3500 
L 1119 1403 
Q 1119 906 1312 657 
Q 1506 409 1894 409 
Q 2359 409 2629 706 
Q 2900 1003 2900 1516 
L 2900 3500 
L 3475 3500 
L 3475 0 
L 2900 0 
L 2900 538 
Q 2691 219 2414 64 
Q 2138 -91 1772 -91 
Q 1169 -91 856 284 
Q 544 659 544 1381 
z
M 1991 3584 
L 1991 3584 
z
" transform="scale(0.015625)"/>
       <path id="DejaVuSans-7a" d="M 353 3500 
L 3084 3500 
L 3084 2975 
L 922 459 
L 3084 459 
L 3084 0 
L 275 0 
L 275 525 
L 2438 3041 
L 353 3041 
L 353 3500 
z
" transform="scale(0.015625)"/>
       <path id="DejaVuSans-e9" d="M 3597 1894 
L 3597 1613 
L 953 1613 
Q 991 1019 1311 708 
Q 1631 397 2203 397 
Q 2534 397 2845 478 
Q 3156 559 3463 722 
L 3463 178 
Q 3153 47 2828 -22 
Q 2503 -91 2169 -91 
Q 1331 -91 842 396 
Q 353 884 353 1716 
Q 353 2575 817 3079 
Q 1281 3584 2069 3584 
Q 2775 3584 3186 3129 
Q 3597 2675 3597 1894 
z
M 3022 2063 
Q 3016 2534 2758 2815 
Q 2500 3097 2075 3097 
Q 1594 3097 1305 2825 
Q 1016 2553 972 2059 
L 3022 2063 
z
M 2466 5119 
L 3088 5119 
L 2070 3944 
L 1591 3944 
L 2466 5119 
z
" transform="scale(0.015625)"/>
      </defs>
      <use xlink:href="#DejaVuSans-52"/>
      <use xlink:href="#DejaVuSans-69" x="69.482422"/>
      <use xlink:href="#DejaVuSans-71" x="97.265625"/>
      <use xlink:href="#DejaVuSans-75" x="160.742188"/>
      <use xlink:href="#DejaVuSans-65" x="224.121094"/>
      <use xlink:href="#DejaVuSans-7a" x="285.644531"/>
      <use xlink:href="#DejaVuSans-61" x="338.134766"/>
      <use xlink:href="#DejaVuSans-20" x="399.414062"/>
      <use xlink:href="#DejaVuSans-6d" x="431.201172"/>
      <use xlink:href="#DejaVuSans-e9" x="528.613281"/>
      <use xlink:href="#DejaVuSans-64" x="590.136719"/>
      <use xlink:href="#DejaVuSans-69" x="653.613281"/>
      <use xlink:href="#DejaVuSans-61" x="681.396484"/>
     </g>
    </g>
   </g>
   <g id="line2d_13">
    <path d="M 73.832727 295.488 
L 75.464157 96.14592 
L 77.095587 87.92064 
L 78.727017 84.04992 
L 80.358447 82.5984 
L 81.989877 83.08224 
L 85.252736 83.08224 
L 86.884166 82.5984 
L 398.487273 82.5984 
L 398.487273 82.5984 
" clip-path="url(#pe549406cc0)" style="fill: none; stroke: #000000; stroke-width: 1.5; stroke-linecap: square"/>
   </g>
   <g id="line2d_14">
    <path d="M 73.832727 295.488 
L 75.464157 114.53184 
L 77.095587 109.69344 
L 78.727017 106.7904 
L 80.358447 107.27424 
L 81.989877 107.27424 
L 83.621307 106.7904 
L 398.487273 106.7904 
L 398.487273 106.7904 
" clip-path="url(#pe549406cc0)" style="fill: none; stroke: #000000; stroke-width: 1.5; stroke-linecap: square"/>
   </g>
   <g id="line2d_15">
    <path d="M 73.832727 295.488 
L 75.464157 113.56416 
L 77.095587 107.75808 
L 78.727017 107.27424 
L 80.358447 107.75808 
L 81.989877 105.33888 
L 83.621307 106.30656 
L 85.252736 104.3712 
L 88.515596 103.40352 
L 90.147026 103.88736 
L 91.778456 103.88736 
L 93.409886 103.40352 
L 95.041316 104.3712 
L 96.672746 102.43584 
L 98.304175 103.88736 
L 99.935605 102.43584 
L 101.567035 102.91968 
L 103.198465 102.43584 
L 106.461325 102.43584 
L 108.092755 103.40352 
L 109.724185 103.88736 
L 111.355614 102.43584 
L 112.987044 102.91968 
L 114.618474 102.43584 
L 116.249904 102.91968 
L 117.881334 102.43584 
L 119.512764 102.91968 
L 122.775624 101.952 
L 132.564203 101.952 
L 134.195633 102.43584 
L 135.827063 101.952 
L 143.984212 101.952 
L 145.615642 102.43584 
L 147.247072 101.952 
L 148.878502 102.43584 
L 150.509931 101.952 
L 152.141361 102.91968 
L 153.772791 101.952 
L 398.487273 101.952 
L 398.487273 101.952 
" clip-path="url(#pe549406cc0)" style="fill: none; stroke: #000000; stroke-width: 1.5; stroke-linecap: square"/>
   </g>
   <g id="line2d_16">
    <path d="M 73.832727 295.488 
L 75.464157 120.82176 
L 77.095587 116.4672 
L 78.727017 115.98336 
L 80.358447 111.14496 
L 81.989877 109.69344 
L 83.621307 109.2096 
L 85.252736 107.75808 
L 86.884166 109.69344 
L 90.147026 108.72576 
L 91.778456 109.2096 
L 93.409886 107.27424 
L 95.041316 108.24192 
L 96.672746 107.75808 
L 98.304175 108.24192 
L 99.935605 108.24192 
L 101.567035 106.7904 
L 103.198465 107.27424 
L 104.829895 106.7904 
L 106.461325 106.7904 
L 108.092755 107.27424 
L 109.724185 106.7904 
L 114.618474 106.7904 
L 116.249904 107.27424 
L 117.881334 106.7904 
L 119.512764 107.27424 
L 121.144194 106.7904 
L 126.038483 106.7904 
L 127.669913 107.27424 
L 129.301343 106.7904 
L 398.487273 106.7904 
L 398.487273 106.7904 
" clip-path="url(#pe549406cc0)" style="fill: none; stroke: #000000; stroke-width: 1.5; stroke-linecap: square"/>
   </g>
   <g id="line2d_17">
    <path d="M 73.832727 295.488 
L 75.464157 102.43584 
L 77.095587 97.59744 
L 78.727017 92.2752 
L 80.358447 93.24288 
L 83.621307 93.24288 
L 86.884166 92.2752 
L 398.487273 92.2752 
L 398.487273 92.2752 
" clip-path="url(#pe549406cc0)" style="fill: none; stroke: #000000; stroke-width: 1.5; stroke-linecap: square"/>
   </g>
   <g id="line2d_18">
    <path d="M 73.832727 295.488 
L 75.464157 75.3408 
L 77.095587 70.5024 
L 78.727017 69.53472 
L 80.358447 69.53472 
L 81.989877 69.05088 
L 83.621307 68.0832 
L 85.252736 68.56704 
L 86.884166 68.0832 
L 398.487273 68.0832 
L 398.487273 68.0832 
" clip-path="url(#pe549406cc0)" style="fill: none; stroke: #000000; stroke-width: 1.5; stroke-linecap: square"/>
   </g>
   <g id="line2d_19">
    <path d="M 73.832727 295.488 
L 75.464157 137.27232 
L 77.095587 133.4016 
L 78.727017 131.95008 
L 80.358447 131.46624 
L 81.989877 131.46624 
L 83.621307 130.9824 
L 398.487273 130.9824 
L 398.487273 130.9824 
" clip-path="url(#pe549406cc0)" style="fill: none; stroke: #000000; stroke-width: 1.5; stroke-linecap: square"/>
   </g>
   <g id="line2d_20">
    <path d="M 73.832727 295.488 
L 75.464157 111.14496 
L 77.095587 107.75808 
L 78.727017 106.7904 
L 398.487273 106.7904 
L 398.487273 106.7904 
" clip-path="url(#pe549406cc0)" style="fill: none; stroke: #000000; stroke-width: 1.5; stroke-linecap: square"/>
   </g>
   <g id="line2d_21">
    <path d="M 73.832727 295.488 
L 75.464157 84.53376 
L 77.095587 81.63072 
L 78.727017 78.24384 
L 80.358447 79.69536 
L 81.989877 77.76 
L 398.487273 77.76 
L 398.487273 77.76 
" clip-path="url(#pe549406cc0)" style="fill: none; stroke: #000000; stroke-width: 1.5; stroke-linecap: square"/>
   </g>
   <g id="line2d_22">
    <path d="M 73.832727 295.488 
L 75.464157 112.59648 
L 77.095587 111.14496 
L 78.727017 108.24192 
L 81.989877 107.27424 
L 83.621307 106.30656 
L 85.252736 107.27424 
L 86.884166 107.27424 
L 88.515596 105.82272 
L 91.778456 105.82272 
L 95.041316 106.7904 
L 96.672746 104.85504 
L 98.304175 106.30656 
L 99.935605 104.85504 
L 101.567035 104.85504 
L 103.198465 103.40352 
L 106.461325 103.40352 
L 108.092755 103.88736 
L 109.724185 102.91968 
L 111.355614 102.91968 
L 114.618474 105.82272 
L 116.249904 104.85504 
L 117.881334 105.82272 
L 119.512764 104.3712 
L 121.144194 103.88736 
L 122.775624 102.43584 
L 124.407053 102.91968 
L 126.038483 102.91968 
L 127.669913 104.85504 
L 129.301343 103.88736 
L 130.932773 104.3712 
L 132.564203 102.91968 
L 134.195633 103.88736 
L 135.827063 103.40352 
L 137.458492 104.3712 
L 139.089922 104.3712 
L 140.721352 102.91968 
L 142.352782 101.952 
L 143.984212 104.3712 
L 145.615642 102.91968 
L 147.247072 102.43584 
L 148.878502 102.91968 
L 150.509931 103.88736 
L 152.141361 103.88736 
L 153.772791 101.952 
L 155.404221 102.91968 
L 157.035651 102.91968 
L 158.667081 102.43584 
L 160.298511 103.40352 
L 161.929941 101.952 
L 165.1928 102.91968 
L 166.82423 102.43584 
L 170.08709 103.40352 
L 171.71852 102.43584 
L 176.61281 102.43584 
L 178.244239 103.40352 
L 179.875669 102.43584 
L 181.507099 103.40352 
L 183.138529 102.43584 
L 184.769959 102.43584 
L 186.401389 101.952 
L 188.032819 102.91968 
L 189.664249 102.91968 
L 191.295678 102.43584 
L 192.927108 102.43584 
L 194.558538 102.91968 
L 196.189968 101.952 
L 197.821398 101.952 
L 199.452828 102.43584 
L 201.084258 101.952 
L 202.715688 101.952 
L 204.347117 102.43584 
L 205.978547 101.952 
L 207.609977 102.43584 
L 210.872837 102.43584 
L 212.504267 101.952 
L 215.767127 101.952 
L 219.029986 102.91968 
L 220.661416 101.952 
L 222.292846 102.43584 
L 223.924276 102.43584 
L 225.555706 101.952 
L 227.187136 102.43584 
L 228.818566 101.952 
L 241.870005 101.952 
L 243.501434 102.43584 
L 246.764294 102.43584 
L 248.395724 101.952 
L 250.027154 102.91968 
L 253.290014 101.952 
L 254.921444 102.43584 
L 256.552873 102.43584 
L 258.184303 101.952 
L 269.604312 101.952 
L 271.235742 102.43584 
L 272.867172 101.952 
L 281.024322 101.952 
L 282.655751 102.43584 
L 284.287181 101.952 
L 285.918611 102.43584 
L 287.550041 102.43584 
L 289.181471 101.952 
L 295.70719 101.952 
L 297.33862 102.43584 
L 298.97005 101.952 
L 302.23291 101.952 
L 303.86434 102.43584 
L 305.49577 101.952 
L 315.284349 101.952 
L 316.915779 102.43584 
L 318.547209 101.952 
L 346.281517 101.952 
L 347.912947 102.43584 
L 349.544376 101.952 
L 398.487273 101.952 
L 398.487273 101.952 
" clip-path="url(#pe549406cc0)" style="fill: none; stroke: #000000; stroke-width: 1.5; stroke-linecap: square"/>
   </g>
   <g id="line2d_23">
    <path d="M 73.832727 295.488 
L 75.464157 68.56704 
L 77.095587 61.30944 
L 78.727017 61.30944 
L 80.358447 60.34176 
L 81.989877 59.85792 
L 83.621307 58.89024 
L 85.252736 58.4064 
L 86.884166 59.85792 
L 88.515596 58.89024 
L 91.778456 58.89024 
L 93.409886 58.4064 
L 398.487273 58.4064 
L 398.487273 58.4064 
" clip-path="url(#pe549406cc0)" style="fill: none; stroke: #000000; stroke-width: 1.5; stroke-linecap: square"/>
   </g>
   <g id="line2d_24">
    <path d="M 73.832727 295.488 
L 75.464157 86.46912 
L 77.095587 83.56608 
L 78.727017 82.11456 
L 80.358447 82.5984 
L 83.621307 81.63072 
L 85.252736 82.5984 
L 90.147026 81.14688 
L 91.778456 81.63072 
L 93.409886 81.63072 
L 95.041316 80.66304 
L 96.672746 82.11456 
L 99.935605 79.21152 
L 101.567035 81.14688 
L 103.198465 82.11456 
L 104.829895 80.1792 
L 106.461325 79.69536 
L 111.355614 79.69536 
L 112.987044 80.1792 
L 116.249904 80.1792 
L 117.881334 80.66304 
L 119.512764 80.1792 
L 121.144194 80.1792 
L 122.775624 80.66304 
L 124.407053 78.72768 
L 126.038483 80.1792 
L 127.669913 81.14688 
L 129.301343 79.21152 
L 130.932773 79.21152 
L 132.564203 80.1792 
L 134.195633 80.1792 
L 135.827063 79.69536 
L 137.458492 79.69536 
L 139.089922 78.72768 
L 140.721352 79.21152 
L 142.352782 79.21152 
L 143.984212 79.69536 
L 145.615642 81.14688 
L 147.247072 78.72768 
L 148.878502 80.1792 
L 150.509931 79.21152 
L 152.141361 79.69536 
L 153.772791 78.72768 
L 155.404221 79.69536 
L 157.035651 78.72768 
L 158.667081 79.21152 
L 160.298511 79.21152 
L 161.929941 78.24384 
L 163.56137 79.21152 
L 165.1928 77.76 
L 166.82423 80.1792 
L 168.45566 78.72768 
L 170.08709 78.24384 
L 171.71852 79.21152 
L 173.34995 78.72768 
L 174.98138 78.72768 
L 176.61281 78.24384 
L 178.244239 78.24384 
L 179.875669 79.21152 
L 181.507099 78.72768 
L 184.769959 78.72768 
L 188.032819 79.69536 
L 189.664249 78.24384 
L 191.295678 78.72768 
L 192.927108 78.24384 
L 194.558538 78.72768 
L 196.189968 77.76 
L 197.821398 78.24384 
L 199.452828 78.24384 
L 201.084258 78.72768 
L 202.715688 78.72768 
L 204.347117 77.76 
L 205.978547 78.24384 
L 209.241407 78.24384 
L 210.872837 78.72768 
L 214.135697 77.76 
L 215.767127 77.76 
L 217.398556 78.72768 
L 219.029986 79.21152 
L 220.661416 77.76 
L 222.292846 78.24384 
L 223.924276 77.76 
L 225.555706 78.24384 
L 228.818566 78.24384 
L 230.449995 79.21152 
L 232.081425 78.24384 
L 233.712855 77.76 
L 235.344285 78.24384 
L 236.975715 77.76 
L 238.607145 78.72768 
L 240.238575 77.76 
L 241.870005 78.72768 
L 243.501434 78.24384 
L 250.027154 78.24384 
L 251.658584 77.76 
L 253.290014 78.24384 
L 254.921444 77.76 
L 259.815733 77.76 
L 261.447163 78.24384 
L 263.078593 77.76 
L 264.710023 78.24384 
L 266.341453 78.24384 
L 267.972883 77.76 
L 269.604312 77.76 
L 271.235742 78.24384 
L 272.867172 77.76 
L 277.761462 77.76 
L 279.392892 78.24384 
L 281.024322 78.24384 
L 282.655751 77.76 
L 284.287181 78.24384 
L 285.918611 77.76 
L 289.181471 77.76 
L 290.812901 78.24384 
L 292.444331 77.76 
L 294.075761 78.24384 
L 295.70719 77.76 
L 305.49577 77.76 
L 307.1272 78.24384 
L 308.75863 77.76 
L 310.390059 78.24384 
L 312.021489 77.76 
L 341.387227 77.76 
L 343.018657 78.24384 
L 344.650087 77.76 
L 369.121535 77.76 
L 370.752965 78.24384 
L 372.384395 77.76 
L 375.647254 77.76 
L 377.278684 78.24384 
L 378.910114 77.76 
L 398.487273 77.76 
L 398.487273 77.76 
" clip-path="url(#pe549406cc0)" style="fill: none; stroke: #000000; stroke-width: 1.5; stroke-linecap: square"/>
   </g>
   <g id="line2d_25">
    <path d="M 73.832727 295.488 
L 75.464157 133.4016 
L 77.095587 127.59552 
L 78.727017 127.59552 
L 80.358447 126.144 
L 81.989877 126.144 
L 83.621307 126.62784 
L 85.252736 126.144 
L 398.487273 126.144 
L 398.487273 126.144 
" clip-path="url(#pe549406cc0)" style="fill: none; stroke: #000000; stroke-width: 1.5; stroke-linecap: square"/>
   </g>
   <g id="line2d_26">
    <path d="M 73.832727 295.488 
L 75.464157 135.8208 
L 77.095587 125.17632 
L 78.727017 125.66016 
L 81.989877 121.78944 
L 83.621307 124.20864 
L 85.252736 122.27328 
L 86.884166 121.78944 
L 88.515596 122.27328 
L 90.147026 121.78944 
L 91.778456 121.78944 
L 93.409886 121.3056 
L 95.041316 121.3056 
L 96.672746 121.78944 
L 98.304175 121.3056 
L 99.935605 121.78944 
L 101.567035 121.3056 
L 398.487273 121.3056 
L 398.487273 121.3056 
" clip-path="url(#pe549406cc0)" style="fill: none; stroke: #000000; stroke-width: 1.5; stroke-linecap: square"/>
   </g>
   <g id="line2d_27">
    <path d="M 73.832727 295.488 
L 75.464157 130.9824 
L 77.095587 127.11168 
L 78.727017 126.62784 
L 81.989877 126.62784 
L 83.621307 126.144 
L 398.487273 126.144 
L 398.487273 126.144 
" clip-path="url(#pe549406cc0)" style="fill: none; stroke: #000000; stroke-width: 1.5; stroke-linecap: square"/>
   </g>
   <g id="line2d_28">
    <path d="M 73.832727 295.488 
L 75.464157 71.95392 
L 77.095587 64.21248 
L 78.727017 58.4064 
L 80.358447 55.50336 
L 81.989877 55.50336 
L 83.621307 54.53568 
L 85.252736 54.53568 
L 86.884166 53.568 
L 398.487273 53.568 
L 398.487273 53.568 
" clip-path="url(#pe549406cc0)" style="fill: none; stroke: #000000; stroke-width: 1.5; stroke-linecap: square"/>
   </g>
   <g id="line2d_29">
    <path d="M 73.832727 295.488 
L 75.464157 76.30848 
L 77.095587 67.59936 
L 78.727017 69.05088 
L 80.358447 65.18016 
L 81.989877 64.21248 
L 83.621307 63.72864 
L 85.252736 64.21248 
L 86.884166 63.72864 
L 90.147026 63.72864 
L 91.778456 62.76096 
L 93.409886 62.76096 
L 95.041316 63.72864 
L 96.672746 62.76096 
L 98.304175 62.76096 
L 99.935605 63.2448 
L 101.567035 62.27712 
L 103.198465 62.27712 
L 104.829895 62.76096 
L 106.461325 62.76096 
L 108.092755 62.27712 
L 109.724185 60.8256 
L 111.355614 61.79328 
L 112.987044 60.8256 
L 114.618474 62.27712 
L 116.249904 61.79328 
L 119.512764 61.79328 
L 121.144194 60.34176 
L 122.775624 61.79328 
L 124.407053 61.79328 
L 126.038483 60.8256 
L 127.669913 62.27712 
L 129.301343 61.30944 
L 130.932773 61.79328 
L 132.564203 62.76096 
L 135.827063 61.79328 
L 137.458492 61.79328 
L 139.089922 63.2448 
L 140.721352 60.8256 
L 142.352782 60.8256 
L 145.615642 61.79328 
L 147.247072 59.85792 
L 148.878502 62.27712 
L 150.509931 60.8256 
L 152.141361 60.34176 
L 153.772791 60.8256 
L 155.404221 62.27712 
L 157.035651 60.8256 
L 158.667081 60.34176 
L 160.298511 60.8256 
L 163.56137 60.8256 
L 165.1928 59.85792 
L 166.82423 60.8256 
L 168.45566 61.30944 
L 170.08709 62.27712 
L 171.71852 61.30944 
L 173.34995 61.30944 
L 174.98138 60.34176 
L 176.61281 59.85792 
L 178.244239 60.8256 
L 181.507099 60.8256 
L 183.138529 61.30944 
L 184.769959 62.76096 
L 186.401389 61.30944 
L 188.032819 60.8256 
L 189.664249 59.85792 
L 191.295678 61.30944 
L 192.927108 60.8256 
L 194.558538 60.8256 
L 197.821398 59.85792 
L 199.452828 59.85792 
L 201.084258 59.37408 
L 204.347117 60.34176 
L 205.978547 59.85792 
L 207.609977 61.79328 
L 209.241407 59.37408 
L 210.872837 61.30944 
L 212.504267 61.79328 
L 214.135697 60.8256 
L 215.767127 60.8256 
L 217.398556 58.89024 
L 219.029986 60.8256 
L 220.661416 60.8256 
L 222.292846 59.85792 
L 223.924276 60.34176 
L 225.555706 58.89024 
L 227.187136 59.85792 
L 228.818566 59.85792 
L 230.449995 59.37408 
L 232.081425 59.85792 
L 233.712855 59.85792 
L 235.344285 60.8256 
L 236.975715 59.37408 
L 238.607145 60.34176 
L 240.238575 60.8256 
L 241.870005 60.34176 
L 243.501434 60.34176 
L 245.132864 60.8256 
L 246.764294 60.34176 
L 250.027154 60.34176 
L 251.658584 60.8256 
L 253.290014 60.34176 
L 254.921444 58.89024 
L 256.552873 60.8256 
L 258.184303 60.34176 
L 259.815733 59.37408 
L 261.447163 60.34176 
L 263.078593 59.37408 
L 264.710023 60.34176 
L 266.341453 59.37408 
L 267.972883 60.8256 
L 269.604312 59.85792 
L 271.235742 59.85792 
L 272.867172 60.34176 
L 276.130032 59.37408 
L 279.392892 60.34176 
L 281.024322 60.34176 
L 282.655751 58.4064 
L 284.287181 59.85792 
L 285.918611 60.34176 
L 287.550041 58.4064 
L 289.181471 58.89024 
L 290.812901 58.89024 
L 292.444331 58.4064 
L 294.075761 59.85792 
L 295.70719 60.34176 
L 298.97005 59.37408 
L 300.60148 59.37408 
L 302.23291 58.89024 
L 303.86434 59.37408 
L 305.49577 60.34176 
L 307.1272 59.85792 
L 308.75863 58.89024 
L 310.390059 59.85792 
L 312.021489 58.89024 
L 313.652919 59.85792 
L 315.284349 58.89024 
L 316.915779 59.85792 
L 318.547209 59.37408 
L 320.178639 58.4064 
L 321.810069 59.85792 
L 323.441498 58.4064 
L 325.072928 59.37408 
L 326.704358 59.85792 
L 328.335788 58.89024 
L 329.967218 59.37408 
L 331.598648 58.4064 
L 333.230078 59.85792 
L 334.861508 60.34176 
L 336.492937 59.85792 
L 338.124367 58.89024 
L 339.755797 60.34176 
L 341.387227 59.85792 
L 343.018657 58.4064 
L 344.650087 58.4064 
L 346.281517 58.89024 
L 347.912947 58.4064 
L 351.175806 59.37408 
L 352.807236 60.34176 
L 354.438666 58.4064 
L 356.070096 59.85792 
L 357.701526 59.85792 
L 360.964386 58.89024 
L 362.595815 59.37408 
L 364.227245 58.4064 
L 365.858675 58.89024 
L 367.490105 58.4064 
L 369.121535 60.34176 
L 370.752965 58.89024 
L 372.384395 58.89024 
L 374.015825 58.4064 
L 375.647254 58.4064 
L 377.278684 59.85792 
L 378.910114 59.37408 
L 380.541544 58.4064 
L 382.172974 59.37408 
L 383.804404 58.89024 
L 385.435834 59.37408 
L 387.067264 58.89024 
L 390.330123 59.85792 
L 391.961553 58.89024 
L 393.592983 59.37408 
L 395.224413 59.37408 
L 396.855843 59.85792 
L 398.487273 59.37408 
L 398.487273 59.37408 
" clip-path="url(#pe549406cc0)" style="fill: none; stroke: #000000; stroke-width: 1.5; stroke-linecap: square"/>
   </g>
   <g id="line2d_30">
    <path d="M 73.832727 295.488 
L 75.464157 104.85504 
L 77.095587 103.88736 
L 78.727017 102.43584 
L 80.358447 101.952 
L 81.989877 102.43584 
L 83.621307 101.952 
L 398.487273 101.952 
L 398.487273 101.952 
" clip-path="url(#pe549406cc0)" style="fill: none; stroke: #000000; stroke-width: 1.5; stroke-linecap: square"/>
   </g>
   <g id="line2d_31">
    <path d="M 73.832727 295.488 
L 75.464157 93.24288 
L 77.095587 88.40448 
L 78.727017 85.0176 
L 80.358447 82.5984 
L 85.252736 82.5984 
L 90.147026 84.04992 
L 91.778456 82.5984 
L 398.487273 82.5984 
L 398.487273 82.5984 
" clip-path="url(#pe549406cc0)" style="fill: none; stroke: #000000; stroke-width: 1.5; stroke-linecap: square"/>
   </g>
   <g id="line2d_32">
    <path d="M 73.832727 295.488 
L 75.464157 127.59552 
L 77.095587 121.78944 
L 78.727017 121.78944 
L 80.358447 121.3056 
L 398.487273 121.3056 
L 398.487273 121.3056 
" clip-path="url(#pe549406cc0)" style="fill: none; stroke: #000000; stroke-width: 1.5; stroke-linecap: square"/>
   </g>
   <g id="line2d_33">
    <path d="M 73.832727 295.488 
L 75.464157 100.98432 
L 77.095587 99.5328 
L 78.727017 97.59744 
L 80.358447 97.59744 
L 81.989877 97.1136 
L 398.487273 97.1136 
L 398.487273 97.1136 
" clip-path="url(#pe549406cc0)" style="fill: none; stroke: #000000; stroke-width: 1.5; stroke-linecap: square"/>
   </g>
   <g id="line2d_34">
    <path d="M 73.832727 295.488 
L 75.464157 130.49856 
L 77.095587 127.11168 
L 78.727017 126.144 
L 398.487273 126.144 
L 398.487273 126.144 
" clip-path="url(#pe549406cc0)" style="fill: none; stroke: #000000; stroke-width: 1.5; stroke-linecap: square"/>
   </g>
   <g id="line2d_35">
    <path d="M 73.832727 295.488 
L 75.464157 120.82176 
L 77.095587 115.49952 
L 78.727017 115.01568 
L 80.358447 113.08032 
L 81.989877 113.56416 
L 83.621307 113.08032 
L 85.252736 113.08032 
L 88.515596 114.048 
L 90.147026 113.08032 
L 95.041316 111.6288 
L 96.672746 112.59648 
L 98.304175 111.6288 
L 99.935605 112.11264 
L 101.567035 111.6288 
L 106.461325 111.6288 
L 108.092755 112.59648 
L 109.724185 111.6288 
L 111.355614 112.11264 
L 112.987044 111.6288 
L 114.618474 112.59648 
L 116.249904 111.6288 
L 134.195633 111.6288 
L 135.827063 112.11264 
L 137.458492 111.6288 
L 398.487273 111.6288 
L 398.487273 111.6288 
" clip-path="url(#pe549406cc0)" style="fill: none; stroke: #000000; stroke-width: 1.5; stroke-linecap: square"/>
   </g>
   <g id="line2d_36">
    <path d="M 73.832727 295.488 
L 75.464157 87.92064 
L 77.095587 87.4368 
L 78.727017 83.56608 
L 81.989877 82.5984 
L 86.884166 82.5984 
L 88.515596 83.08224 
L 90.147026 82.5984 
L 398.487273 82.5984 
L 398.487273 82.5984 
" clip-path="url(#pe549406cc0)" style="fill: none; stroke: #000000; stroke-width: 1.5; stroke-linecap: square"/>
   </g>
   <g id="line2d_37">
    <path d="M 73.832727 295.488 
L 75.464157 86.46912 
L 77.095587 79.69536 
L 78.727017 79.21152 
L 80.358447 79.21152 
L 81.989877 78.24384 
L 83.621307 78.72768 
L 85.252736 79.69536 
L 86.884166 77.76 
L 88.515596 78.24384 
L 90.147026 77.76 
L 398.487273 77.76 
L 398.487273 77.76 
" clip-path="url(#pe549406cc0)" style="fill: none; stroke: #000000; stroke-width: 1.5; stroke-linecap: square"/>
   </g>
   <g id="line2d_38">
    <path d="M 73.832727 295.488 
L 75.464157 131.95008 
L 77.095587 127.59552 
L 78.727017 126.62784 
L 80.358447 126.62784 
L 83.621307 124.69248 
L 90.147026 124.69248 
L 91.778456 124.20864 
L 93.409886 123.24096 
L 95.041316 124.20864 
L 96.672746 124.20864 
L 98.304175 123.7248 
L 99.935605 124.20864 
L 101.567035 123.24096 
L 103.198465 124.20864 
L 104.829895 124.20864 
L 106.461325 122.75712 
L 108.092755 123.24096 
L 109.724185 122.27328 
L 112.987044 123.24096 
L 116.249904 122.27328 
L 117.881334 122.75712 
L 119.512764 122.27328 
L 124.407053 122.27328 
L 126.038483 123.24096 
L 127.669913 123.24096 
L 129.301343 122.75712 
L 130.932773 121.78944 
L 134.195633 121.78944 
L 135.827063 122.27328 
L 137.458492 123.7248 
L 139.089922 122.27328 
L 140.721352 121.78944 
L 142.352782 123.24096 
L 143.984212 121.3056 
L 145.615642 122.75712 
L 150.509931 121.3056 
L 152.141361 121.3056 
L 153.772791 122.75712 
L 155.404221 122.27328 
L 157.035651 122.27328 
L 158.667081 121.3056 
L 161.929941 122.27328 
L 163.56137 121.78944 
L 165.1928 121.78944 
L 166.82423 122.27328 
L 168.45566 122.27328 
L 170.08709 121.78944 
L 171.71852 121.78944 
L 173.34995 121.3056 
L 176.61281 121.3056 
L 178.244239 122.75712 
L 179.875669 121.3056 
L 181.507099 121.3056 
L 183.138529 121.78944 
L 184.769959 121.78944 
L 186.401389 121.3056 
L 188.032819 121.3056 
L 189.664249 121.78944 
L 191.295678 121.3056 
L 214.135697 121.3056 
L 215.767127 121.78944 
L 217.398556 121.3056 
L 219.029986 121.3056 
L 220.661416 121.78944 
L 223.924276 121.78944 
L 225.555706 121.3056 
L 228.818566 121.3056 
L 230.449995 121.78944 
L 232.081425 121.3056 
L 233.712855 121.78944 
L 235.344285 121.3056 
L 238.607145 121.3056 
L 240.238575 121.78944 
L 241.870005 121.3056 
L 325.072928 121.3056 
L 326.704358 121.78944 
L 328.335788 121.3056 
L 398.487273 121.3056 
L 398.487273 121.3056 
" clip-path="url(#pe549406cc0)" style="fill: none; stroke: #000000; stroke-width: 1.5; stroke-linecap: square"/>
   </g>
   <g id="patch_3">
    <path d="M 57.6 307.584 
L 57.6 41.472 
" style="fill: none; stroke: #000000; stroke-width: 0.8; stroke-linejoin: miter; stroke-linecap: square"/>
   </g>
   <g id="patch_4">
    <path d="M 414.72 307.584 
L 414.72 41.472 
" style="fill: none; stroke: #000000; stroke-width: 0.8; stroke-linejoin: miter; stroke-linecap: square"/>
   </g>
   <g id="patch_5">
    <path d="M 57.6 307.584 
L 414.72 307.584 
" style="fill: none; stroke: #000000; stroke-width: 0.8; stroke-linejoin: miter; stroke-linecap: square"/>
   </g>
   <g id="patch_6">
    <path d="M 57.6 41.472 
L 414.72 41.472 
" style="fill: none; stroke: #000000; stroke-width: 0.8; stroke-linejoin: miter; stroke-linecap: square"/>
   </g>
   <g id="text_15">
    <!-- Curva do coletor - tabela normalizada -->
    <g transform="translate(122.59875 35.472) scale(0.12 -0.12)">
     <defs>
      <path id="DejaVuSans-43" d="M 4122 4306 
L 4122 3641 
Q 3803 3938 3442 4084 
Q 3081 4231 2675 4231 
Q 1875 4231 1450 3742 
Q 1025 3253 1025 2328 
Q 1025 1406 1450 917 
Q 1875 428 2675 428 
Q 3081 428 3442 575 
Q 3803 722 4122 1019 
L 4122 359 
Q 3791 134 3420 21 
Q 3050 -91 2638 -91 
Q 1578 -91 968 557 
Q 359 1206 359 2328 
Q 359 3453 968 4101 
Q 1578 4750 2638 4750 
Q 3056 4750 3426 4639 
Q 3797 4528 4122 4306 
z
" transform="scale(0.015625)"/>
      <path id="DejaVuSans-76" d="M 191 3500 
L 800 3500 
L 1894 563 
L 2988 3500 
L 3597 3500 
L 2284 0 
L 1503 0 
L 191 3500 
z
" transform="scale(0.015625)"/>
      <path id="DejaVuSans-63" d="M 3122 3366 
L 3122 2828 
Q 2878 2963 2633 3030 
Q 2388 3097 2138 3097 
Q 1578 3097 1268 2742 
Q 959 2388 959 1747 
Q 959 1106 1268 751 
Q 1578 397 2138 397 
Q 2388 397 2633 464 
Q 2878 531 3122 666 
L 3122 134 
Q 2881 22 2623 -34 
Q 2366 -91 2075 -91 
Q 1284 -91 818 406 
Q 353 903 353 1747 
Q 353 2603 823 3093 
Q 1294 3584 2113 3584 
Q 2378 3584 2631 3529 
Q 2884 3475 3122 3366 
z
" transform="scale(0.015625)"/>
      <path id="DejaVuSans-6c" d="M 603 4863 
L 1178 4863 
L 1178 0 
L 603 0 
L 603 4863 
z
" transform="scale(0.015625)"/>
      <path id="DejaVuSans-2d" d="M 313 2009 
L 1997 2009 
L 1997 1497 
L 313 1497 
L 313 2009 
z
" transform="scale(0.015625)"/>
      <path id="DejaVuSans-62" d="M 3116 1747 
Q 3116 2381 2855 2742 
Q 2594 3103 2138 3103 
Q 1681 3103 1420 2742 
Q 1159 2381 1159 1747 
Q 1159 1113 1420 752 
Q 1681 391 2138 391 
Q 2594 391 2855 752 
Q 3116 1113 3116 1747 
z
M 1159 2969 
Q 1341 3281 1617 3432 
Q 1894 3584 2278 3584 
Q 2916 3584 3314 3078 
Q 3713 2572 3713 1747 
Q 3713 922 3314 415 
Q 2916 -91 2278 -91 
Q 1894 -91 1617 61 
Q 1341 213 1159 525 
L 1159 0 
L 581 0 
L 581 4863 
L 1159 4863 
L 1159 2969 
z
" transform="scale(0.015625)"/>
      <path id="DejaVuSans-6e" d="M 3513 2113 
L 3513 0 
L 2938 0 
L 2938 2094 
Q 2938 2591 2744 2837 
Q 2550 3084 2163 3084 
Q 1697 3084 1428 2787 
Q 1159 2491 1159 1978 
L 1159 0 
L 581 0 
L 581 3500 
L 1159 3500 
L 1159 2956 
Q 1366 3272 1645 3428 
Q 1925 3584 2291 3584 
Q 2894 3584 3203 3211 
Q 3513 2838 3513 2113 
z
" transform="scale(0.015625)"/>
     </defs>
     <use xlink:href="#DejaVuSans-43"/>
     <use xlink:href="#DejaVuSans-75" x="69.824219"/>
     <use xlink:href="#DejaVuSans-72" x="133.203125"/>
     <use xlink:href="#DejaVuSans-76" x="174.316406"/>
     <use xlink:href="#DejaVuSans-61" x="233.496094"/>
     <use xlink:href="#DejaVuSans-20" x="294.775391"/>
     <use xlink:href="#DejaVuSans-64" x="326.5625"/>
     <use xlink:href="#DejaVuSans-6f" x="390.039062"/>
     <use xlink:href="#DejaVuSans-20" x="451.220703"/>
     <use xlink:href="#DejaVuSans-63" x="483.007812"/>
     <use xlink:href="#DejaVuSans-6f" x="537.988281"/>
     <use xlink:href="#DejaVuSans-6c" x="599.169922"/>
     <use xlink:href="#DejaVuSans-65" x="626.953125"/>
     <use xlink:href="#DejaVuSans-74" x="688.476562"/>
     <use xlink:href="#DejaVuSans-6f" x="727.685547"/>
     <use xlink:href="#DejaVuSans-72" x="788.867188"/>
     <use xlink:href="#DejaVuSans-20" x="829.980469"/>
     <use xlink:href="#DejaVuSans-2d" x="861.767578"/>
     <use xlink:href="#DejaVuSans-20" x="897.851562"/>
     <use xlink:href="#DejaVuSans-74" x="929.638672"/>
     <use xlink:href="#DejaVuSans-61" x="968.847656"/>
     <use xlink:href="#DejaVuSans-62" x="1030.126953"/>
     <use xlink:href="#DejaVuSans-65" x="1093.603516"/>
     <use xlink:href="#DejaVuSans-6c" x="1155.126953"/>
     <use xlink:href="#DejaVuSans-61" x="1182.910156"/>
     <use xlink:href="#DejaVuSans-20" x="1244.189453"/>
     <use xlink:href="#DejaVuSans-6e" x="1275.976562"/>
     <use xlink:href="#DejaVuSans-6f" x="1339.355469"/>
     <use xlink:href="#DejaVuSans-72" x="1400.537109"/>
     <use xlink:href="#DejaVuSans-6d" x="1439.900391"/>
     <use xlink:href="#DejaVuSans-61" x="1537.3125"/>
     <use xlink:href="#DejaVuSans-6c" x="1598.591797"/>
     <use xlink:href="#DejaVuSans-69" x="1626.375"/>
     <use xlink:href="#DejaVuSans-7a" x="1654.158203"/>
     <use xlink:href="#DejaVuSans-61" x="1706.648438"/>
     <use xlink:href="#DejaVuSans-64" x="1767.927734"/>
     <use xlink:href="#DejaVuSans-61" x="1831.404297"/>
    </g>
   </g>
  </g>
 </g>
 <defs>
  <clipPath id="pe549406cc0">
   <rect x="57.6" y="41.472" width="357.12" height="266.112"/>
  </clipPath>
 </defs>
</svg>
