<?xml version="1.0" encoding="utf-8" standalone="no"?>
<!DOCTYPE svg PUBLIC "-//W3C//DTD SVG 1.1//EN"
  "http://www.w3.org/Graphics/SVG/1.1/DTD/svg11.dtd">
<svg xmlns:xlink="http://www.w3.org/1999/xlink" width="460.8pt" height="345.6pt" viewBox="0 0 460.8 345.6" xmlns="http://www.w3.org/2000/svg" version="1.1">
 <metadata>
  <rdf:RDF xmlns:dc="http://purl.org/dc/elements/1.1/" xmlns:cc="http://creativecommons.org/ns#" xmlns:rdf="http://www.w3.org/1999/02/22-rdf-syntax-ns#">
   <cc:Work>
    <dc:type rdf:resource="http://purl.org/dc/dcmitype/StillImage"/>
    <dc:date>2024-05-30T19:52:41.619253</dc:date>
    <dc:format>image/svg+xml</dc:format>
    <dc:creator>
     <cc:Agent>
      <dc:title>Matplotlib v3.9.0, https://matplotlib.org/</dc:title>
     </cc:Agent>
    </dc:creator>
   </cc:Work>
  </rdf:RDF>
 </metadata>
 <defs>
  <style type="text/css">*{stroke-linejoin: round; stroke-linecap: butt}</style>
 </defs>
 <g id="figure_1">
  <g id="patch_1">
   <path d="M 0 345.6 
L 460.8 345.6 
L 460.8 0 
L 0 0 
z
" style="fill: #ffffff"/>
  </g>
  <g id="axes_1">
   <g id="patch_2">
    <path d="M 57.6 307.584 
L 414.72 307.584 
L 414.72 41.472 
L 57.6 41.472 
z
" style="fill: #ffffff"/>
   </g>
   <g id="PolyCollection_1"/>
   <g id="PolyCollection_2"/>
   <g id="PolyCollection_3"/>
   <g id="PolyCollection_4"/>
   <g id="PolyCollection_5"/>
   <g id="PolyCollection_6"/>
   <g id="PolyCollection_7"/>
   <g id="PolyCollection_8"/>
   <g id="PolyCollection_9"/>
   <g id="PolyCollection_10"/>
   <g id="PolyCollection_11"/>
   <g id="PolyCollection_12"/>
   <g id="PolyCollection_13"/>
   <g id="PolyCollection_14"/>
   <g id="PolyCollection_15"/>
   <g id="PolyCollection_16"/>
   <g id="PolyCollection_17"/>
   <g id="PolyCollection_18"/>
   <g id="PolyCollection_19"/>
   <g id="PolyCollection_20"/>
   <g id="PolyCollection_21"/>
   <g id="PolyCollection_22"/>
   <g id="PolyCollection_23"/>
   <g id="PolyCollection_24"/>
   <g id="PolyCollection_25"/>
   <g id="PolyCollection_26"/>
   <g id="matplotlib.axis_1">
    <g id="xtick_1">
     <g id="line2d_1">
      <defs>
       <path id="m252ced808e" d="M 0 0 
L 0 3.5 
" style="stroke: #000000; stroke-width: 0.8"/>
      </defs>
      <g>
       <use xlink:href="#m252ced808e" x="73.832727" y="307.584" style="stroke: #000000; stroke-width: 0.8"/>
      </g>
     </g>
     <g id="text_1">
      <!-- 0 -->
      <g transform="translate(70.651477 322.182437) scale(0.1 -0.1)">
       <defs>
        <path id="DejaVuSans-30" d="M 2034 4250 
Q 1547 4250 1301 3770 
Q 1056 3291 1056 2328 
Q 1056 1369 1301 889 
Q 1547 409 2034 409 
Q 2525 409 2770 889 
Q 3016 1369 3016 2328 
Q 3016 3291 2770 3770 
Q 2525 4250 2034 4250 
z
M 2034 4750 
Q 2819 4750 3233 4129 
Q 3647 3509 3647 2328 
Q 3647 1150 3233 529 
Q 2819 -91 2034 -91 
Q 1250 -91 836 529 
Q 422 1150 422 2328 
Q 422 3509 836 4129 
Q 1250 4750 2034 4750 
z
" transform="scale(0.015625)"/>
       </defs>
       <use xlink:href="#DejaVuSans-30"/>
      </g>
     </g>
    </g>
    <g id="xtick_2">
     <g id="line2d_2">
      <g>
       <use xlink:href="#m252ced808e" x="139.089922" y="307.584" style="stroke: #000000; stroke-width: 0.8"/>
      </g>
     </g>
     <g id="text_2">
      <!-- 20000 -->
      <g transform="translate(123.183672 322.182437) scale(0.1 -0.1)">
       <defs>
        <path id="DejaVuSans-32" d="M 1228 531 
L 3431 531 
L 3431 0 
L 469 0 
L 469 531 
Q 828 903 1448 1529 
Q 2069 2156 2228 2338 
Q 2531 2678 2651 2914 
Q 2772 3150 2772 3378 
Q 2772 3750 2511 3984 
Q 2250 4219 1831 4219 
Q 1534 4219 1204 4116 
Q 875 4013 500 3803 
L 500 4441 
Q 881 4594 1212 4672 
Q 1544 4750 1819 4750 
Q 2544 4750 2975 4387 
Q 3406 4025 3406 3419 
Q 3406 3131 3298 2873 
Q 3191 2616 2906 2266 
Q 2828 2175 2409 1742 
Q 1991 1309 1228 531 
z
" transform="scale(0.015625)"/>
       </defs>
       <use xlink:href="#DejaVuSans-32"/>
       <use xlink:href="#DejaVuSans-30" x="63.623047"/>
       <use xlink:href="#DejaVuSans-30" x="127.246094"/>
       <use xlink:href="#DejaVuSans-30" x="190.869141"/>
       <use xlink:href="#DejaVuSans-30" x="254.492188"/>
      </g>
     </g>
    </g>
    <g id="xtick_3">
     <g id="line2d_3">
      <g>
       <use xlink:href="#m252ced808e" x="204.347117" y="307.584" style="stroke: #000000; stroke-width: 0.8"/>
      </g>
     </g>
     <g id="text_3">
      <!-- 40000 -->
      <g transform="translate(188.440867 322.182437) scale(0.1 -0.1)">
       <defs>
        <path id="DejaVuSans-34" d="M 2419 4116 
L 825 1625 
L 2419 1625 
L 2419 4116 
z
M 2253 4666 
L 3047 4666 
L 3047 1625 
L 3713 1625 
L 3713 1100 
L 3047 1100 
L 3047 0 
L 2419 0 
L 2419 1100 
L 313 1100 
L 313 1709 
L 2253 4666 
z
" transform="scale(0.015625)"/>
       </defs>
       <use xlink:href="#DejaVuSans-34"/>
       <use xlink:href="#DejaVuSans-30" x="63.623047"/>
       <use xlink:href="#DejaVuSans-30" x="127.246094"/>
       <use xlink:href="#DejaVuSans-30" x="190.869141"/>
       <use xlink:href="#DejaVuSans-30" x="254.492188"/>
      </g>
     </g>
    </g>
    <g id="xtick_4">
     <g id="line2d_4">
      <g>
       <use xlink:href="#m252ced808e" x="269.604312" y="307.584" style="stroke: #000000; stroke-width: 0.8"/>
      </g>
     </g>
     <g id="text_4">
      <!-- 60000 -->
      <g transform="translate(253.698062 322.182437) scale(0.1 -0.1)">
       <defs>
        <path id="DejaVuSans-36" d="M 2113 2584 
Q 1688 2584 1439 2293 
Q 1191 2003 1191 1497 
Q 1191 994 1439 701 
Q 1688 409 2113 409 
Q 2538 409 2786 701 
Q 3034 994 3034 1497 
Q 3034 2003 2786 2293 
Q 2538 2584 2113 2584 
z
M 3366 4563 
L 3366 3988 
Q 3128 4100 2886 4159 
Q 2644 4219 2406 4219 
Q 1781 4219 1451 3797 
Q 1122 3375 1075 2522 
Q 1259 2794 1537 2939 
Q 1816 3084 2150 3084 
Q 2853 3084 3261 2657 
Q 3669 2231 3669 1497 
Q 3669 778 3244 343 
Q 2819 -91 2113 -91 
Q 1303 -91 875 529 
Q 447 1150 447 2328 
Q 447 3434 972 4092 
Q 1497 4750 2381 4750 
Q 2619 4750 2861 4703 
Q 3103 4656 3366 4563 
z
" transform="scale(0.015625)"/>
       </defs>
       <use xlink:href="#DejaVuSans-36"/>
       <use xlink:href="#DejaVuSans-30" x="63.623047"/>
       <use xlink:href="#DejaVuSans-30" x="127.246094"/>
       <use xlink:href="#DejaVuSans-30" x="190.869141"/>
       <use xlink:href="#DejaVuSans-30" x="254.492188"/>
      </g>
     </g>
    </g>
    <g id="xtick_5">
     <g id="line2d_5">
      <g>
       <use xlink:href="#m252ced808e" x="334.861508" y="307.584" style="stroke: #000000; stroke-width: 0.8"/>
      </g>
     </g>
     <g id="text_5">
      <!-- 80000 -->
      <g transform="translate(318.955258 322.182437) scale(0.1 -0.1)">
       <defs>
        <path id="DejaVuSans-38" d="M 2034 2216 
Q 1584 2216 1326 1975 
Q 1069 1734 1069 1313 
Q 1069 891 1326 650 
Q 1584 409 2034 409 
Q 2484 409 2743 651 
Q 3003 894 3003 1313 
Q 3003 1734 2745 1975 
Q 2488 2216 2034 2216 
z
M 1403 2484 
Q 997 2584 770 2862 
Q 544 3141 544 3541 
Q 544 4100 942 4425 
Q 1341 4750 2034 4750 
Q 2731 4750 3128 4425 
Q 3525 4100 3525 3541 
Q 3525 3141 3298 2862 
Q 3072 2584 2669 2484 
Q 3125 2378 3379 2068 
Q 3634 1759 3634 1313 
Q 3634 634 3220 271 
Q 2806 -91 2034 -91 
Q 1263 -91 848 271 
Q 434 634 434 1313 
Q 434 1759 690 2068 
Q 947 2378 1403 2484 
z
M 1172 3481 
Q 1172 3119 1398 2916 
Q 1625 2713 2034 2713 
Q 2441 2713 2670 2916 
Q 2900 3119 2900 3481 
Q 2900 3844 2670 4047 
Q 2441 4250 2034 4250 
Q 1625 4250 1398 4047 
Q 1172 3844 1172 3481 
z
" transform="scale(0.015625)"/>
       </defs>
       <use xlink:href="#DejaVuSans-38"/>
       <use xlink:href="#DejaVuSans-30" x="63.623047"/>
       <use xlink:href="#DejaVuSans-30" x="127.246094"/>
       <use xlink:href="#DejaVuSans-30" x="190.869141"/>
       <use xlink:href="#DejaVuSans-30" x="254.492188"/>
      </g>
     </g>
    </g>
    <g id="xtick_6">
     <g id="line2d_6">
      <g>
       <use xlink:href="#m252ced808e" x="400.118703" y="307.584" style="stroke: #000000; stroke-width: 0.8"/>
      </g>
     </g>
     <g id="text_6">
      <!-- 100000 -->
      <g transform="translate(381.031203 322.182437) scale(0.1 -0.1)">
       <defs>
        <path id="DejaVuSans-31" d="M 794 531 
L 1825 531 
L 1825 4091 
L 703 3866 
L 703 4441 
L 1819 4666 
L 2450 4666 
L 2450 531 
L 3481 531 
L 3481 0 
L 794 0 
L 794 531 
z
" transform="scale(0.015625)"/>
       </defs>
       <use xlink:href="#DejaVuSans-31"/>
       <use xlink:href="#DejaVuSans-30" x="63.623047"/>
       <use xlink:href="#DejaVuSans-30" x="127.246094"/>
       <use xlink:href="#DejaVuSans-30" x="190.869141"/>
       <use xlink:href="#DejaVuSans-30" x="254.492188"/>
       <use xlink:href="#DejaVuSans-30" x="318.115234"/>
      </g>
     </g>
    </g>
    <g id="text_7">
     <!-- Nº de reads amostradas -->
     <g transform="translate(175.661563 335.860562) scale(0.1 -0.1)">
      <defs>
       <path id="DejaVuSans-4e" d="M 628 4666 
L 1478 4666 
L 3547 763 
L 3547 4666 
L 4159 4666 
L 4159 0 
L 3309 0 
L 1241 3903 
L 1241 0 
L 628 0 
L 628 4666 
z
" transform="scale(0.015625)"/>
       <path id="DejaVuSans-ba" d="M 434 1850 
L 2584 1850 
L 2584 1466 
L 434 1466 
L 434 1850 
z
M 1509 4750 
Q 2069 4750 2391 4404 
Q 2713 4059 2713 3463 
Q 2713 2866 2391 2523 
Q 2069 2181 1509 2181 
Q 950 2181 625 2525 
Q 300 2869 300 3463 
Q 300 4059 625 4404 
Q 950 4750 1509 4750 
z
M 1509 4391 
Q 1181 4391 984 4139 
Q 788 3888 788 3463 
Q 788 3047 986 2797 
Q 1184 2547 1509 2547 
Q 1838 2547 2033 2797 
Q 2228 3047 2228 3463 
Q 2228 3891 2034 4141 
Q 1841 4391 1509 4391 
z
" transform="scale(0.015625)"/>
       <path id="DejaVuSans-20" transform="scale(0.015625)"/>
       <path id="DejaVuSans-64" d="M 2906 2969 
L 2906 4863 
L 3481 4863 
L 3481 0 
L 2906 0 
L 2906 525 
Q 2725 213 2448 61 
Q 2172 -91 1784 -91 
Q 1150 -91 751 415 
Q 353 922 353 1747 
Q 353 2572 751 3078 
Q 1150 3584 1784 3584 
Q 2172 3584 2448 3432 
Q 2725 3281 2906 2969 
z
M 947 1747 
Q 947 1113 1208 752 
Q 1469 391 1925 391 
Q 2381 391 2643 752 
Q 2906 1113 2906 1747 
Q 2906 2381 2643 2742 
Q 2381 3103 1925 3103 
Q 1469 3103 1208 2742 
Q 947 2381 947 1747 
z
" transform="scale(0.015625)"/>
       <path id="DejaVuSans-65" d="M 3597 1894 
L 3597 1613 
L 953 1613 
Q 991 1019 1311 708 
Q 1631 397 2203 397 
Q 2534 397 2845 478 
Q 3156 559 3463 722 
L 3463 178 
Q 3153 47 2828 -22 
Q 2503 -91 2169 -91 
Q 1331 -91 842 396 
Q 353 884 353 1716 
Q 353 2575 817 3079 
Q 1281 3584 2069 3584 
Q 2775 3584 3186 3129 
Q 3597 2675 3597 1894 
z
M 3022 2063 
Q 3016 2534 2758 2815 
Q 2500 3097 2075 3097 
Q 1594 3097 1305 2825 
Q 1016 2553 972 2059 
L 3022 2063 
z
" transform="scale(0.015625)"/>
       <path id="DejaVuSans-72" d="M 2631 2963 
Q 2534 3019 2420 3045 
Q 2306 3072 2169 3072 
Q 1681 3072 1420 2755 
Q 1159 2438 1159 1844 
L 1159 0 
L 581 0 
L 581 3500 
L 1159 3500 
L 1159 2956 
Q 1341 3275 1631 3429 
Q 1922 3584 2338 3584 
Q 2397 3584 2469 3576 
Q 2541 3569 2628 3553 
L 2631 2963 
z
" transform="scale(0.015625)"/>
       <path id="DejaVuSans-61" d="M 2194 1759 
Q 1497 1759 1228 1600 
Q 959 1441 959 1056 
Q 959 750 1161 570 
Q 1363 391 1709 391 
Q 2188 391 2477 730 
Q 2766 1069 2766 1631 
L 2766 1759 
L 2194 1759 
z
M 3341 1997 
L 3341 0 
L 2766 0 
L 2766 531 
Q 2569 213 2275 61 
Q 1981 -91 1556 -91 
Q 1019 -91 701 211 
Q 384 513 384 1019 
Q 384 1609 779 1909 
Q 1175 2209 1959 2209 
L 2766 2209 
L 2766 2266 
Q 2766 2663 2505 2880 
Q 2244 3097 1772 3097 
Q 1472 3097 1187 3025 
Q 903 2953 641 2809 
L 641 3341 
Q 956 3463 1253 3523 
Q 1550 3584 1831 3584 
Q 2591 3584 2966 3190 
Q 3341 2797 3341 1997 
z
" transform="scale(0.015625)"/>
       <path id="DejaVuSans-73" d="M 2834 3397 
L 2834 2853 
Q 2591 2978 2328 3040 
Q 2066 3103 1784 3103 
Q 1356 3103 1142 2972 
Q 928 2841 928 2578 
Q 928 2378 1081 2264 
Q 1234 2150 1697 2047 
L 1894 2003 
Q 2506 1872 2764 1633 
Q 3022 1394 3022 966 
Q 3022 478 2636 193 
Q 2250 -91 1575 -91 
Q 1294 -91 989 -36 
Q 684 19 347 128 
L 347 722 
Q 666 556 975 473 
Q 1284 391 1588 391 
Q 1994 391 2212 530 
Q 2431 669 2431 922 
Q 2431 1156 2273 1281 
Q 2116 1406 1581 1522 
L 1381 1569 
Q 847 1681 609 1914 
Q 372 2147 372 2553 
Q 372 3047 722 3315 
Q 1072 3584 1716 3584 
Q 2034 3584 2315 3537 
Q 2597 3491 2834 3397 
z
" transform="scale(0.015625)"/>
       <path id="DejaVuSans-6d" d="M 3328 2828 
Q 3544 3216 3844 3400 
Q 4144 3584 4550 3584 
Q 5097 3584 5394 3201 
Q 5691 2819 5691 2113 
L 5691 0 
L 5113 0 
L 5113 2094 
Q 5113 2597 4934 2840 
Q 4756 3084 4391 3084 
Q 3944 3084 3684 2787 
Q 3425 2491 3425 1978 
L 3425 0 
L 2847 0 
L 2847 2094 
Q 2847 2600 2669 2842 
Q 2491 3084 2119 3084 
Q 1678 3084 1418 2786 
Q 1159 2488 1159 1978 
L 1159 0 
L 581 0 
L 581 3500 
L 1159 3500 
L 1159 2956 
Q 1356 3278 1631 3431 
Q 1906 3584 2284 3584 
Q 2666 3584 2933 3390 
Q 3200 3197 3328 2828 
z
" transform="scale(0.015625)"/>
       <path id="DejaVuSans-6f" d="M 1959 3097 
Q 1497 3097 1228 2736 
Q 959 2375 959 1747 
Q 959 1119 1226 758 
Q 1494 397 1959 397 
Q 2419 397 2687 759 
Q 2956 1122 2956 1747 
Q 2956 2369 2687 2733 
Q 2419 3097 1959 3097 
z
M 1959 3584 
Q 2709 3584 3137 3096 
Q 3566 2609 3566 1747 
Q 3566 888 3137 398 
Q 2709 -91 1959 -91 
Q 1206 -91 779 398 
Q 353 888 353 1747 
Q 353 2609 779 3096 
Q 1206 3584 1959 3584 
z
" transform="scale(0.015625)"/>
       <path id="DejaVuSans-74" d="M 1172 4494 
L 1172 3500 
L 2356 3500 
L 2356 3053 
L 1172 3053 
L 1172 1153 
Q 1172 725 1289 603 
Q 1406 481 1766 481 
L 2356 481 
L 2356 0 
L 1766 0 
Q 1100 0 847 248 
Q 594 497 594 1153 
L 594 3053 
L 172 3053 
L 172 3500 
L 594 3500 
L 594 4494 
L 1172 4494 
z
" transform="scale(0.015625)"/>
      </defs>
      <use xlink:href="#DejaVuSans-4e"/>
      <use xlink:href="#DejaVuSans-ba" x="74.804688"/>
      <use xlink:href="#DejaVuSans-20" x="121.923828"/>
      <use xlink:href="#DejaVuSans-64" x="153.710938"/>
      <use xlink:href="#DejaVuSans-65" x="217.1875"/>
      <use xlink:href="#DejaVuSans-20" x="278.710938"/>
      <use xlink:href="#DejaVuSans-72" x="310.498047"/>
      <use xlink:href="#DejaVuSans-65" x="349.361328"/>
      <use xlink:href="#DejaVuSans-61" x="410.884766"/>
      <use xlink:href="#DejaVuSans-64" x="472.164062"/>
      <use xlink:href="#DejaVuSans-73" x="535.640625"/>
      <use xlink:href="#DejaVuSans-20" x="587.740234"/>
      <use xlink:href="#DejaVuSans-61" x="619.527344"/>
      <use xlink:href="#DejaVuSans-6d" x="680.806641"/>
      <use xlink:href="#DejaVuSans-6f" x="778.21875"/>
      <use xlink:href="#DejaVuSans-73" x="839.400391"/>
      <use xlink:href="#DejaVuSans-74" x="891.5"/>
      <use xlink:href="#DejaVuSans-72" x="930.708984"/>
      <use xlink:href="#DejaVuSans-61" x="971.822266"/>
      <use xlink:href="#DejaVuSans-64" x="1033.101562"/>
      <use xlink:href="#DejaVuSans-61" x="1096.578125"/>
      <use xlink:href="#DejaVuSans-73" x="1157.857422"/>
     </g>
    </g>
   </g>
   <g id="matplotlib.axis_2">
    <g id="ytick_1">
     <g id="line2d_7">
      <defs>
       <path id="mc83017f0ad" d="M 0 0 
L -3.5 0 
" style="stroke: #000000; stroke-width: 0.8"/>
      </defs>
      <g>
       <use xlink:href="#mc83017f0ad" x="57.6" y="295.488" style="stroke: #000000; stroke-width: 0.8"/>
      </g>
     </g>
     <g id="text_8">
      <!-- 0 -->
      <g transform="translate(44.2375 299.287219) scale(0.1 -0.1)">
       <use xlink:href="#DejaVuSans-30"/>
      </g>
     </g>
    </g>
    <g id="ytick_2">
     <g id="line2d_8">
      <g>
       <use xlink:href="#mc83017f0ad" x="57.6" y="247.104" style="stroke: #000000; stroke-width: 0.8"/>
      </g>
     </g>
     <g id="text_9">
      <!-- 10 -->
      <g transform="translate(37.875 250.903219) scale(0.1 -0.1)">
       <use xlink:href="#DejaVuSans-31"/>
       <use xlink:href="#DejaVuSans-30" x="63.623047"/>
      </g>
     </g>
    </g>
    <g id="ytick_3">
     <g id="line2d_9">
      <g>
       <use xlink:href="#mc83017f0ad" x="57.6" y="198.72" style="stroke: #000000; stroke-width: 0.8"/>
      </g>
     </g>
     <g id="text_10">
      <!-- 20 -->
      <g transform="translate(37.875 202.519219) scale(0.1 -0.1)">
       <use xlink:href="#DejaVuSans-32"/>
       <use xlink:href="#DejaVuSans-30" x="63.623047"/>
      </g>
     </g>
    </g>
    <g id="ytick_4">
     <g id="line2d_10">
      <g>
       <use xlink:href="#mc83017f0ad" x="57.6" y="150.336" style="stroke: #000000; stroke-width: 0.8"/>
      </g>
     </g>
     <g id="text_11">
      <!-- 30 -->
      <g transform="translate(37.875 154.135219) scale(0.1 -0.1)">
       <defs>
        <path id="DejaVuSans-33" d="M 2597 2516 
Q 3050 2419 3304 2112 
Q 3559 1806 3559 1356 
Q 3559 666 3084 287 
Q 2609 -91 1734 -91 
Q 1441 -91 1130 -33 
Q 819 25 488 141 
L 488 750 
Q 750 597 1062 519 
Q 1375 441 1716 441 
Q 2309 441 2620 675 
Q 2931 909 2931 1356 
Q 2931 1769 2642 2001 
Q 2353 2234 1838 2234 
L 1294 2234 
L 1294 2753 
L 1863 2753 
Q 2328 2753 2575 2939 
Q 2822 3125 2822 3475 
Q 2822 3834 2567 4026 
Q 2313 4219 1838 4219 
Q 1578 4219 1281 4162 
Q 984 4106 628 3988 
L 628 4550 
Q 988 4650 1302 4700 
Q 1616 4750 1894 4750 
Q 2613 4750 3031 4423 
Q 3450 4097 3450 3541 
Q 3450 3153 3228 2886 
Q 3006 2619 2597 2516 
z
" transform="scale(0.015625)"/>
       </defs>
       <use xlink:href="#DejaVuSans-33"/>
       <use xlink:href="#DejaVuSans-30" x="63.623047"/>
      </g>
     </g>
    </g>
    <g id="ytick_5">
     <g id="line2d_11">
      <g>
       <use xlink:href="#mc83017f0ad" x="57.6" y="101.952" style="stroke: #000000; stroke-width: 0.8"/>
      </g>
     </g>
     <g id="text_12">
      <!-- 40 -->
      <g transform="translate(37.875 105.751219) scale(0.1 -0.1)">
       <use xlink:href="#DejaVuSans-34"/>
       <use xlink:href="#DejaVuSans-30" x="63.623047"/>
      </g>
     </g>
    </g>
    <g id="ytick_6">
     <g id="line2d_12">
      <g>
       <use xlink:href="#mc83017f0ad" x="57.6" y="53.568" style="stroke: #000000; stroke-width: 0.8"/>
      </g>
     </g>
     <g id="text_13">
      <!-- 50 -->
      <g transform="translate(37.875 57.367219) scale(0.1 -0.1)">
       <defs>
        <path id="DejaVuSans-35" d="M 691 4666 
L 3169 4666 
L 3169 4134 
L 1269 4134 
L 1269 2991 
Q 1406 3038 1543 3061 
Q 1681 3084 1819 3084 
Q 2600 3084 3056 2656 
Q 3513 2228 3513 1497 
Q 3513 744 3044 326 
Q 2575 -91 1722 -91 
Q 1428 -91 1123 -41 
Q 819 9 494 109 
L 494 744 
Q 775 591 1075 516 
Q 1375 441 1709 441 
Q 2250 441 2565 725 
Q 2881 1009 2881 1497 
Q 2881 1984 2565 2268 
Q 2250 2553 1709 2553 
Q 1456 2553 1204 2497 
Q 953 2441 691 2322 
L 691 4666 
z
" transform="scale(0.015625)"/>
       </defs>
       <use xlink:href="#DejaVuSans-35"/>
       <use xlink:href="#DejaVuSans-30" x="63.623047"/>
      </g>
     </g>
    </g>
    <g id="text_14">
     <!-- Riqueza média -->
     <g transform="translate(31.795312 211.662375) rotate(-90) scale(0.1 -0.1)">
      <defs>
       <path id="DejaVuSans-52" d="M 2841 2188 
Q 3044 2119 3236 1894 
Q 3428 1669 3622 1275 
L 4263 0 
L 3584 0 
L 2988 1197 
Q 2756 1666 2539 1819 
Q 2322 1972 1947 1972 
L 1259 1972 
L 1259 0 
L 628 0 
L 628 4666 
L 2053 4666 
Q 2853 4666 3247 4331 
Q 3641 3997 3641 3322 
Q 3641 2881 3436 2590 
Q 3231 2300 2841 2188 
z
M 1259 4147 
L 1259 2491 
L 2053 2491 
Q 2509 2491 2742 2702 
Q 2975 2913 2975 3322 
Q 2975 3731 2742 3939 
Q 2509 4147 2053 4147 
L 1259 4147 
z
" transform="scale(0.015625)"/>
       <path id="DejaVuSans-69" d="M 603 3500 
L 1178 3500 
L 1178 0 
L 603 0 
L 603 3500 
z
M 603 4863 
L 1178 4863 
L 1178 4134 
L 603 4134 
L 603 4863 
z
" transform="scale(0.015625)"/>
       <path id="DejaVuSans-71" d="M 947 1747 
Q 947 1113 1208 752 
Q 1469 391 1925 391 
Q 2381 391 2643 752 
Q 2906 1113 2906 1747 
Q 2906 2381 2643 2742 
Q 2381 3103 1925 3103 
Q 1469 3103 1208 2742 
Q 947 2381 947 1747 
z
M 2906 525 
Q 2725 213 2448 61 
Q 2172 -91 1784 -91 
Q 1150 -91 751 415 
Q 353 922 353 1747 
Q 353 2572 751 3078 
Q 1150 3584 1784 3584 
Q 2172 3584 2448 3432 
Q 2725 3281 2906 2969 
L 2906 3500 
L 3481 3500 
L 3481 -1331 
L 2906 -1331 
L 2906 525 
z
" transform="scale(0.015625)"/>
       <path id="DejaVuSans-75" d="M 544 1381 
L 544 3500 
L 1119 3500 
L 1119 1403 
Q 1119 906 1312 657 
Q 1506 409 1894 409 
Q 2359 409 2629 706 
Q 2900 1003 2900 1516 
L 2900 3500 
L 3475 3500 
L 3475 0 
L 2900 0 
L 2900 538 
Q 2691 219 2414 64 
Q 2138 -91 1772 -91 
Q 1169 -91 856 284 
Q 544 659 544 1381 
z
M 1991 3584 
L 1991 3584 
z
" transform="scale(0.015625)"/>
       <path id="DejaVuSans-7a" d="M 353 3500 
L 3084 3500 
L 3084 2975 
L 922 459 
L 3084 459 
L 3084 0 
L 275 0 
L 275 525 
L 2438 3041 
L 353 3041 
L 353 3500 
z
" transform="scale(0.015625)"/>
       <path id="DejaVuSans-e9" d="M 3597 1894 
L 3597 1613 
L 953 1613 
Q 991 1019 1311 708 
Q 1631 397 2203 397 
Q 2534 397 2845 478 
Q 3156 559 3463 722 
L 3463 178 
Q 3153 47 2828 -22 
Q 2503 -91 2169 -91 
Q 1331 -91 842 396 
Q 353 884 353 1716 
Q 353 2575 817 3079 
Q 1281 3584 2069 3584 
Q 2775 3584 3186 3129 
Q 3597 2675 3597 1894 
z
M 3022 2063 
Q 3016 2534 2758 2815 
Q 2500 3097 2075 3097 
Q 1594 3097 1305 2825 
Q 1016 2553 972 2059 
L 3022 2063 
z
M 2466 5119 
L 3088 5119 
L 2070 3944 
L 1591 3944 
L 2466 5119 
z
" transform="scale(0.015625)"/>
      </defs>
      <use xlink:href="#DejaVuSans-52"/>
      <use xlink:href="#DejaVuSans-69" x="69.482422"/>
      <use xlink:href="#DejaVuSans-71" x="97.265625"/>
      <use xlink:href="#DejaVuSans-75" x="160.742188"/>
      <use xlink:href="#DejaVuSans-65" x="224.121094"/>
      <use xlink:href="#DejaVuSans-7a" x="285.644531"/>
      <use xlink:href="#DejaVuSans-61" x="338.134766"/>
      <use xlink:href="#DejaVuSans-20" x="399.414062"/>
      <use xlink:href="#DejaVuSans-6d" x="431.201172"/>
      <use xlink:href="#DejaVuSans-e9" x="528.613281"/>
      <use xlink:href="#DejaVuSans-64" x="590.136719"/>
      <use xlink:href="#DejaVuSans-69" x="653.613281"/>
      <use xlink:href="#DejaVuSans-61" x="681.396484"/>
     </g>
    </g>
   </g>
   <g id="line2d_13">
    <path d="M 73.832727 295.488 
L 75.464157 94.21056 
L 77.095587 85.98528 
L 78.727017 84.04992 
L 80.358447 83.08224 
L 81.989877 83.08224 
L 83.621307 82.5984 
L 338.124367 82.5984 
L 338.124367 82.5984 
" clip-path="url(#p498dcd1ca8)" style="fill: none; stroke: #000000; stroke-width: 1.5; stroke-linecap: square"/>
   </g>
   <g id="line2d_14">
    <path d="M 73.832727 295.488 
L 75.464157 111.6288 
L 77.095587 107.27424 
L 78.727017 106.7904 
L 80.358447 106.7904 
L 81.989877 107.27424 
L 83.621307 106.7904 
L 292.444331 106.7904 
L 292.444331 106.7904 
" clip-path="url(#p498dcd1ca8)" style="fill: none; stroke: #000000; stroke-width: 1.5; stroke-linecap: square"/>
   </g>
   <g id="line2d_15">
    <path d="M 73.832727 295.488 
L 75.464157 114.048 
L 77.095587 109.2096 
L 78.727017 106.7904 
L 80.358447 106.30656 
L 81.989877 107.27424 
L 83.621307 104.3712 
L 85.252736 105.82272 
L 86.884166 103.88736 
L 90.147026 103.88736 
L 91.778456 103.40352 
L 93.409886 104.85504 
L 95.041316 102.43584 
L 96.672746 102.91968 
L 98.304175 102.43584 
L 99.935605 102.91968 
L 101.567035 102.91968 
L 103.198465 102.43584 
L 104.829895 102.91968 
L 109.724185 102.91968 
L 111.355614 103.40352 
L 112.987044 102.43584 
L 114.618474 101.952 
L 116.249904 101.952 
L 119.512764 102.91968 
L 121.144194 101.952 
L 127.669913 101.952 
L 129.301343 102.43584 
L 130.932773 101.952 
L 135.827063 101.952 
L 137.458492 102.43584 
L 139.089922 101.952 
L 140.721352 101.952 
L 142.352782 102.91968 
L 143.984212 101.952 
L 153.772791 101.952 
L 155.404221 102.91968 
L 157.035651 101.952 
L 320.178639 101.952 
L 320.178639 101.952 
" clip-path="url(#p498dcd1ca8)" style="fill: none; stroke: #000000; stroke-width: 1.5; stroke-linecap: square"/>
   </g>
   <g id="line2d_16">
    <path d="M 73.832727 295.488 
L 75.464157 121.3056 
L 77.095587 116.4672 
L 78.727017 112.11264 
L 80.358447 111.14496 
L 81.989877 109.2096 
L 83.621307 109.69344 
L 85.252736 109.69344 
L 86.884166 108.24192 
L 88.515596 108.24192 
L 90.147026 107.27424 
L 91.778456 108.72576 
L 95.041316 106.7904 
L 96.672746 106.7904 
L 98.304175 107.75808 
L 99.935605 106.7904 
L 101.567035 107.27424 
L 103.198465 108.24192 
L 104.829895 106.7904 
L 106.461325 106.7904 
L 108.092755 107.27424 
L 109.724185 106.7904 
L 139.089922 106.7904 
L 140.721352 107.27424 
L 142.352782 106.7904 
L 323.441498 106.7904 
L 323.441498 106.7904 
" clip-path="url(#p498dcd1ca8)" style="fill: none; stroke: #000000; stroke-width: 1.5; stroke-linecap: square"/>
   </g>
   <g id="line2d_17">
    <path d="M 73.832727 295.488 
L 75.464157 108.24192 
L 77.095587 95.66208 
L 78.727017 93.24288 
L 80.358447 94.21056 
L 81.989877 92.2752 
L 83.621307 92.75904 
L 85.252736 92.75904 
L 86.884166 92.2752 
L 297.33862 92.2752 
L 297.33862 92.2752 
" clip-path="url(#p498dcd1ca8)" style="fill: none; stroke: #000000; stroke-width: 1.5; stroke-linecap: square"/>
   </g>
   <g id="line2d_18">
    <path d="M 73.832727 295.488 
L 75.464157 72.43776 
L 77.095587 69.05088 
L 78.727017 69.05088 
L 80.358447 68.0832 
L 81.989877 68.56704 
L 83.621307 68.0832 
L 362.595815 68.0832 
L 362.595815 68.0832 
" clip-path="url(#p498dcd1ca8)" style="fill: none; stroke: #000000; stroke-width: 1.5; stroke-linecap: square"/>
   </g>
   <g id="line2d_19">
    <path d="M 73.832727 295.488 
L 75.464157 136.78848 
L 77.095587 132.43392 
L 78.727017 131.95008 
L 80.358447 131.95008 
L 81.989877 130.9824 
L 83.621307 130.9824 
L 85.252736 130.9824 
L 86.884166 130.9824 
L 88.515596 130.9824 
L 90.147026 130.9824 
L 91.778456 130.9824 
L 93.409886 130.9824 
L 95.041316 130.9824 
L 96.672746 130.9824 
L 98.304175 130.9824 
L 99.935605 130.9824 
L 101.567035 130.9824 
L 103.198465 130.9824 
L 104.829895 130.9824 
L 106.461325 130.9824 
L 108.092755 130.9824 
L 109.724185 130.9824 
L 111.355614 130.9824 
L 112.987044 130.9824 
L 114.618474 130.9824 
L 116.249904 130.9824 
L 117.881334 130.9824 
L 119.512764 130.9824 
L 121.144194 130.9824 
L 122.775624 130.9824 
L 124.407053 130.9824 
L 126.038483 130.9824 
L 127.669913 130.9824 
L 129.301343 130.9824 
L 130.932773 130.9824 
L 132.564203 130.9824 
L 134.195633 130.9824 
L 135.827063 130.9824 
L 137.458492 130.9824 
L 139.089922 130.9824 
L 140.721352 130.9824 
L 142.352782 130.9824 
L 143.984212 130.9824 
L 145.615642 130.9824 
L 147.247072 130.9824 
L 148.878502 130.9824 
L 150.509931 130.9824 
L 152.141361 130.9824 
L 153.772791 130.9824 
L 155.404221 130.9824 
L 157.035651 130.9824 
L 158.667081 130.9824 
L 160.298511 130.9824 
L 161.929941 130.9824 
L 163.56137 130.9824 
L 165.1928 130.9824 
L 166.82423 130.9824 
L 168.45566 130.9824 
L 170.08709 130.9824 
L 171.71852 130.9824 
L 173.34995 130.9824 
L 174.98138 130.9824 
L 176.61281 130.9824 
L 178.244239 130.9824 
L 179.875669 130.9824 
L 181.507099 130.9824 
L 183.138529 130.9824 
L 184.769959 130.9824 
L 186.401389 130.9824 
L 188.032819 130.9824 
L 189.664249 130.9824 
L 191.295678 130.9824 
L 192.927108 130.9824 
L 194.558538 130.9824 
L 196.189968 130.9824 
L 197.821398 130.9824 
L 199.452828 130.9824 
L 201.084258 130.9824 
L 202.715688 130.9824 
L 204.347117 130.9824 
L 205.978547 130.9824 
L 207.609977 130.9824 
L 209.241407 130.9824 
L 210.872837 130.9824 
L 212.504267 130.9824 
L 214.135697 130.9824 
L 215.767127 130.9824 
L 217.398556 130.9824 
L 219.029986 130.9824 
L 220.661416 130.9824 
L 222.292846 130.9824 
L 223.924276 130.9824 
L 225.555706 130.9824 
L 227.187136 130.9824 
L 228.818566 130.9824 
L 230.449995 130.9824 
L 232.081425 130.9824 
L 233.712855 130.9824 
L 235.344285 130.9824 
L 236.975715 130.9824 
L 238.607145 130.9824 
L 240.238575 130.9824 
L 241.870005 130.9824 
L 243.501434 130.9824 
L 245.132864 130.9824 
L 246.764294 130.9824 
L 248.395724 130.9824 
L 250.027154 130.9824 
L 251.658584 130.9824 
L 253.290014 130.9824 
L 254.921444 130.9824 
L 256.552873 130.9824 
L 258.184303 130.9824 
L 259.815733 130.9824 
" clip-path="url(#p498dcd1ca8)" style="fill: none; stroke: #000000; stroke-width: 1.5; stroke-linecap: square"/>
   </g>
   <g id="line2d_20">
    <path d="M 73.832727 295.488 
L 75.464157 109.69344 
L 77.095587 107.75808 
L 80.358447 107.75808 
L 81.989877 106.7904 
L 328.335788 106.7904 
L 328.335788 106.7904 
" clip-path="url(#p498dcd1ca8)" style="fill: none; stroke: #000000; stroke-width: 1.5; stroke-linecap: square"/>
   </g>
   <g id="line2d_21">
    <path d="M 73.832727 295.488 
L 75.464157 88.40448 
L 77.095587 80.1792 
L 78.727017 79.21152 
L 80.358447 77.76 
L 81.989877 77.76 
L 83.621307 78.24384 
L 85.252736 77.76 
L 388.698693 77.76 
L 388.698693 77.76 
" clip-path="url(#p498dcd1ca8)" style="fill: none; stroke: #000000; stroke-width: 1.5; stroke-linecap: square"/>
   </g>
   <g id="line2d_22">
    <path d="M 73.832727 295.488 
L 75.464157 111.14496 
L 77.095587 108.72576 
L 78.727017 108.24192 
L 80.358447 106.7904 
L 83.621307 107.75808 
L 85.252736 105.82272 
L 86.884166 106.30656 
L 88.515596 105.82272 
L 90.147026 104.85504 
L 91.778456 105.82272 
L 96.672746 104.3712 
L 98.304175 103.40352 
L 99.935605 104.85504 
L 101.567035 105.82272 
L 103.198465 103.40352 
L 104.829895 104.3712 
L 106.461325 106.30656 
L 109.724185 103.40352 
L 111.355614 104.85504 
L 112.987044 103.88736 
L 114.618474 104.85504 
L 116.249904 104.3712 
L 117.881334 102.91968 
L 119.512764 104.85504 
L 121.144194 105.33888 
L 122.775624 103.88736 
L 124.407053 104.3712 
L 126.038483 104.3712 
L 127.669913 102.91968 
L 129.301343 102.91968 
L 132.564203 103.88736 
L 134.195633 103.40352 
L 135.827063 102.43584 
L 139.089922 103.40352 
L 140.721352 103.40352 
L 142.352782 102.91968 
L 143.984212 103.40352 
L 147.247072 102.43584 
L 148.878502 102.91968 
L 150.509931 103.88736 
L 152.141361 103.40352 
L 153.772791 103.40352 
L 155.404221 102.91968 
L 157.035651 102.91968 
L 158.667081 103.40352 
L 160.298511 102.43584 
L 161.929941 103.40352 
L 163.56137 102.91968 
L 165.1928 102.91968 
L 166.82423 102.43584 
L 170.08709 103.40352 
L 171.71852 102.91968 
L 173.34995 102.91968 
L 174.98138 102.43584 
L 176.61281 102.91968 
L 178.244239 102.43584 
L 179.875669 102.91968 
L 181.507099 101.952 
L 183.138529 101.952 
L 186.401389 102.91968 
L 188.032819 102.43584 
L 189.664249 102.91968 
L 191.295678 101.952 
L 192.927108 103.40352 
L 194.558538 102.43584 
L 196.189968 101.952 
L 197.821398 101.952 
L 201.084258 102.91968 
L 202.715688 102.43584 
L 204.347117 102.43584 
L 205.978547 102.91968 
L 209.241407 101.952 
L 210.872837 101.952 
L 212.504267 102.43584 
L 214.135697 101.952 
L 219.029986 101.952 
L 220.661416 102.43584 
L 222.292846 101.952 
L 225.555706 102.91968 
L 227.187136 101.952 
L 228.818566 101.952 
L 230.449995 102.43584 
L 232.081425 101.952 
L 233.712855 102.43584 
L 235.344285 102.43584 
L 236.975715 101.952 
L 238.607145 102.43584 
L 240.238575 101.952 
L 245.132864 101.952 
L 246.764294 102.43584 
L 248.395724 101.952 
L 254.921444 101.952 
L 256.552873 102.43584 
L 258.184303 101.952 
L 271.235742 101.952 
L 272.867172 102.43584 
L 274.498602 101.952 
L 281.024322 101.952 
L 282.655751 102.43584 
L 284.287181 101.952 
L 289.181471 101.952 
L 290.812901 102.43584 
L 292.444331 101.952 
L 297.33862 101.952 
L 298.97005 102.43584 
L 300.60148 101.952 
L 312.021489 101.952 
L 313.652919 102.43584 
L 315.284349 101.952 
L 325.072928 101.952 
L 325.072928 101.952 
" clip-path="url(#p498dcd1ca8)" style="fill: none; stroke: #000000; stroke-width: 1.5; stroke-linecap: square"/>
   </g>
   <g id="line2d_23">
    <path d="M 73.832727 295.488 
L 75.464157 66.63168 
L 77.095587 61.79328 
L 78.727017 61.30944 
L 81.989877 59.37408 
L 83.621307 59.85792 
L 85.252736 58.89024 
L 86.884166 58.89024 
L 88.515596 58.4064 
L 90.147026 58.4064 
L 91.778456 58.89024 
L 93.409886 58.4064 
L 398.487273 58.4064 
L 398.487273 58.4064 
" clip-path="url(#p498dcd1ca8)" style="fill: none; stroke: #000000; stroke-width: 1.5; stroke-linecap: square"/>
   </g>
   <g id="line2d_24">
    <path d="M 73.832727 295.488 
L 75.464157 87.4368 
L 77.095587 84.04992 
L 78.727017 83.08224 
L 80.358447 83.08224 
L 81.989877 82.5984 
L 83.621307 81.63072 
L 85.252736 82.11456 
L 86.884166 81.63072 
L 88.515596 82.11456 
L 90.147026 81.14688 
L 91.778456 81.14688 
L 93.409886 81.63072 
L 95.041316 80.1792 
L 98.304175 81.14688 
L 99.935605 80.1792 
L 101.567035 80.1792 
L 103.198465 79.21152 
L 104.829895 81.63072 
L 106.461325 82.11456 
L 109.724185 81.14688 
L 111.355614 79.69536 
L 112.987044 81.14688 
L 114.618474 80.66304 
L 116.249904 82.11456 
L 119.512764 79.21152 
L 122.775624 80.1792 
L 124.407053 80.1792 
L 126.038483 79.69536 
L 129.301343 79.69536 
L 130.932773 81.14688 
L 132.564203 79.69536 
L 134.195633 79.21152 
L 135.827063 80.1792 
L 137.458492 78.72768 
L 139.089922 78.72768 
L 140.721352 80.1792 
L 142.352782 80.1792 
L 143.984212 78.24384 
L 147.247072 78.24384 
L 150.509931 79.21152 
L 152.141361 78.72768 
L 155.404221 78.72768 
L 157.035651 78.24384 
L 158.667081 80.1792 
L 160.298511 79.21152 
L 161.929941 80.1792 
L 163.56137 78.72768 
L 165.1928 79.69536 
L 171.71852 77.76 
L 173.34995 79.21152 
L 174.98138 78.72768 
L 176.61281 77.76 
L 178.244239 78.72768 
L 179.875669 78.72768 
L 181.507099 79.69536 
L 183.138529 77.76 
L 184.769959 78.24384 
L 189.664249 78.24384 
L 191.295678 78.72768 
L 192.927108 78.24384 
L 194.558538 78.24384 
L 196.189968 79.21152 
L 197.821398 77.76 
L 199.452828 78.72768 
L 202.715688 78.72768 
L 204.347117 78.24384 
L 205.978547 78.72768 
L 207.609977 78.24384 
L 209.241407 78.72768 
L 210.872837 78.24384 
L 212.504267 78.72768 
L 214.135697 78.72768 
L 215.767127 78.24384 
L 217.398556 78.24384 
L 219.029986 77.76 
L 220.661416 78.72768 
L 222.292846 77.76 
L 225.555706 77.76 
L 227.187136 78.24384 
L 228.818566 78.24384 
L 230.449995 77.76 
L 233.712855 77.76 
L 235.344285 78.24384 
L 236.975715 77.76 
L 240.238575 77.76 
L 243.501434 78.72768 
L 245.132864 78.72768 
L 246.764294 77.76 
L 248.395724 78.72768 
L 251.658584 77.76 
L 253.290014 78.24384 
L 254.921444 78.24384 
L 256.552873 77.76 
L 258.184303 78.24384 
L 259.815733 78.24384 
L 261.447163 77.76 
L 263.078593 77.76 
L 264.710023 78.24384 
L 266.341453 77.76 
L 267.972883 78.24384 
L 269.604312 77.76 
L 282.655751 77.76 
L 285.918611 78.72768 
L 289.181471 77.76 
L 290.812901 77.76 
L 292.444331 78.24384 
L 294.075761 77.76 
L 298.97005 77.76 
L 300.60148 78.72768 
L 303.86434 77.76 
L 307.1272 77.76 
L 308.75863 78.24384 
L 310.390059 77.76 
L 364.227245 77.76 
L 365.858675 78.24384 
L 367.490105 77.76 
L 375.647254 77.76 
L 375.647254 77.76 
" clip-path="url(#p498dcd1ca8)" style="fill: none; stroke: #000000; stroke-width: 1.5; stroke-linecap: square"/>
   </g>
   <g id="line2d_25">
    <path d="M 73.832727 295.488 
L 75.464157 131.95008 
L 77.095587 126.144 
L 78.727017 126.62784 
L 80.358447 127.11168 
L 81.989877 126.144 
L 83.621307 126.144 
L 85.252736 126.144 
L 86.884166 126.144 
L 88.515596 126.144 
L 90.147026 126.144 
L 91.778456 126.144 
L 93.409886 126.144 
L 95.041316 126.144 
L 96.672746 126.144 
L 98.304175 126.144 
L 99.935605 126.144 
L 101.567035 126.144 
L 103.198465 126.144 
L 104.829895 126.144 
L 106.461325 126.144 
L 108.092755 126.144 
L 109.724185 126.144 
L 111.355614 126.144 
L 112.987044 126.144 
L 114.618474 126.144 
L 116.249904 126.144 
L 117.881334 126.144 
L 119.512764 126.144 
L 121.144194 126.144 
L 122.775624 126.144 
L 124.407053 126.144 
L 126.038483 126.144 
L 127.669913 126.144 
L 129.301343 126.144 
L 130.932773 126.144 
L 132.564203 126.144 
L 134.195633 126.144 
L 135.827063 126.144 
L 137.458492 126.144 
L 139.089922 126.144 
L 140.721352 126.144 
L 142.352782 126.144 
L 143.984212 126.144 
L 145.615642 126.144 
L 147.247072 126.144 
L 148.878502 126.144 
L 150.509931 126.144 
L 152.141361 126.144 
L 153.772791 126.144 
L 155.404221 126.144 
L 157.035651 126.144 
L 158.667081 126.144 
L 160.298511 126.144 
L 161.929941 126.144 
L 163.56137 126.144 
L 165.1928 126.144 
L 166.82423 126.144 
L 168.45566 126.144 
L 170.08709 126.144 
L 171.71852 126.144 
L 173.34995 126.144 
L 174.98138 126.144 
L 176.61281 126.144 
L 178.244239 126.144 
L 179.875669 126.144 
L 181.507099 126.144 
L 183.138529 126.144 
L 184.769959 126.144 
L 186.401389 126.144 
L 188.032819 126.144 
L 189.664249 126.144 
L 191.295678 126.144 
L 192.927108 126.144 
L 194.558538 126.144 
L 196.189968 126.144 
L 197.821398 126.144 
L 199.452828 126.144 
L 201.084258 126.144 
L 202.715688 126.144 
L 204.347117 126.144 
L 205.978547 126.144 
L 207.609977 126.144 
L 209.241407 126.144 
L 210.872837 126.144 
L 212.504267 126.144 
L 214.135697 126.144 
L 215.767127 126.144 
L 217.398556 126.144 
L 219.029986 126.144 
L 220.661416 126.144 
L 222.292846 126.144 
L 223.924276 126.144 
L 225.555706 126.144 
L 227.187136 126.144 
L 228.818566 126.144 
L 230.449995 126.144 
L 232.081425 126.144 
L 233.712855 126.144 
L 235.344285 126.144 
L 236.975715 126.144 
L 238.607145 126.144 
L 240.238575 126.144 
L 241.870005 126.144 
L 243.501434 126.144 
L 245.132864 126.144 
L 246.764294 126.144 
L 248.395724 126.144 
L 250.027154 126.144 
L 251.658584 126.144 
L 253.290014 126.144 
L 254.921444 126.144 
L 256.552873 126.144 
L 258.184303 126.144 
L 259.815733 126.144 
L 261.447163 126.144 
L 263.078593 126.144 
L 264.710023 126.144 
L 266.341453 126.144 
L 267.972883 126.144 
L 269.604312 126.144 
L 271.235742 126.144 
" clip-path="url(#p498dcd1ca8)" style="fill: none; stroke: #000000; stroke-width: 1.5; stroke-linecap: square"/>
   </g>
   <g id="line2d_26">
    <path d="M 73.832727 295.488 
L 75.464157 137.75616 
L 77.095587 128.5632 
L 78.727017 124.69248 
L 80.358447 122.27328 
L 81.989877 123.24096 
L 83.621307 122.75712 
L 85.252736 121.78944 
L 86.884166 122.75712 
L 88.515596 122.27328 
L 90.147026 121.78944 
L 91.778456 121.78944 
L 93.409886 121.3056 
L 95.041316 121.3056 
L 96.672746 121.3056 
L 98.304175 121.3056 
L 99.935605 121.3056 
L 101.567035 121.78944 
L 103.198465 121.3056 
L 104.829895 121.3056 
L 106.461325 121.3056 
L 108.092755 121.3056 
L 109.724185 121.3056 
L 111.355614 121.3056 
L 112.987044 121.3056 
L 114.618474 121.3056 
L 116.249904 121.3056 
L 117.881334 121.3056 
L 119.512764 121.3056 
L 121.144194 121.3056 
L 122.775624 121.3056 
L 124.407053 121.3056 
L 126.038483 121.3056 
L 127.669913 121.3056 
L 129.301343 121.3056 
L 130.932773 121.3056 
L 132.564203 121.3056 
L 134.195633 121.3056 
L 135.827063 121.3056 
L 137.458492 121.3056 
L 139.089922 121.3056 
L 140.721352 121.3056 
L 142.352782 121.3056 
L 143.984212 121.3056 
L 145.615642 121.3056 
L 147.247072 121.3056 
L 148.878502 121.3056 
L 150.509931 121.3056 
L 152.141361 121.3056 
L 153.772791 121.3056 
L 155.404221 121.3056 
L 157.035651 121.3056 
L 158.667081 121.3056 
L 160.298511 121.3056 
L 161.929941 121.3056 
L 163.56137 121.3056 
L 165.1928 121.3056 
L 166.82423 121.3056 
L 168.45566 121.3056 
L 170.08709 121.3056 
L 171.71852 121.3056 
L 173.34995 121.3056 
L 174.98138 121.3056 
L 176.61281 121.3056 
L 178.244239 121.3056 
L 179.875669 121.3056 
L 181.507099 121.3056 
L 183.138529 121.3056 
L 184.769959 121.3056 
L 186.401389 121.3056 
L 188.032819 121.3056 
L 189.664249 121.3056 
L 191.295678 121.3056 
L 192.927108 121.3056 
L 194.558538 121.3056 
L 196.189968 121.3056 
L 197.821398 121.3056 
L 199.452828 121.3056 
L 201.084258 121.3056 
L 202.715688 121.3056 
L 204.347117 121.3056 
L 205.978547 121.3056 
L 207.609977 121.3056 
L 209.241407 121.3056 
L 210.872837 121.3056 
L 212.504267 121.3056 
L 214.135697 121.3056 
L 215.767127 121.3056 
L 217.398556 121.3056 
L 219.029986 121.3056 
L 220.661416 121.3056 
L 222.292846 121.3056 
L 223.924276 121.3056 
L 225.555706 121.3056 
L 227.187136 121.3056 
L 228.818566 121.3056 
L 230.449995 121.3056 
L 232.081425 121.3056 
L 233.712855 121.3056 
L 235.344285 121.3056 
L 236.975715 121.3056 
L 238.607145 121.3056 
L 240.238575 121.3056 
L 241.870005 121.3056 
L 243.501434 121.3056 
L 245.132864 121.3056 
L 246.764294 121.3056 
L 248.395724 121.3056 
L 250.027154 121.3056 
L 251.658584 121.3056 
L 253.290014 121.3056 
L 254.921444 121.3056 
L 256.552873 121.3056 
L 258.184303 121.3056 
L 259.815733 121.3056 
L 261.447163 121.3056 
L 263.078593 121.3056 
L 264.710023 121.3056 
L 266.341453 121.3056 
L 267.972883 121.3056 
L 269.604312 121.3056 
L 271.235742 121.3056 
" clip-path="url(#p498dcd1ca8)" style="fill: none; stroke: #000000; stroke-width: 1.5; stroke-linecap: square"/>
   </g>
   <g id="line2d_27">
    <path d="M 73.832727 295.488 
L 75.464157 132.91776 
L 77.095587 127.59552 
L 80.358447 126.62784 
L 81.989877 126.62784 
L 83.621307 126.144 
L 298.97005 126.144 
L 298.97005 126.144 
" clip-path="url(#p498dcd1ca8)" style="fill: none; stroke: #000000; stroke-width: 1.5; stroke-linecap: square"/>
   </g>
   <g id="line2d_28">
    <path d="M 73.832727 295.488 
L 75.464157 73.40544 
L 77.095587 61.30944 
L 78.727017 57.92256 
L 80.358447 56.95488 
L 81.989877 55.01952 
L 83.621307 54.53568 
L 88.515596 54.53568 
L 90.147026 53.568 
L 91.778456 54.05184 
L 93.409886 53.568 
L 383.804404 53.568 
L 383.804404 53.568 
" clip-path="url(#p498dcd1ca8)" style="fill: none; stroke: #000000; stroke-width: 1.5; stroke-linecap: square"/>
   </g>
   <g id="line2d_29">
    <path d="M 73.832727 295.488 
L 75.464157 74.37312 
L 77.095587 67.59936 
L 78.727017 66.14784 
L 80.358447 65.18016 
L 81.989877 63.72864 
L 83.621307 65.664 
L 85.252736 64.21248 
L 86.884166 63.72864 
L 88.515596 64.69632 
L 90.147026 62.76096 
L 91.778456 62.76096 
L 93.409886 62.27712 
L 95.041316 63.72864 
L 96.672746 62.76096 
L 98.304175 62.27712 
L 99.935605 62.27712 
L 101.567035 62.76096 
L 104.829895 62.76096 
L 106.461325 61.30944 
L 108.092755 62.76096 
L 109.724185 62.27712 
L 111.355614 62.76096 
L 112.987044 61.79328 
L 114.618474 60.34176 
L 116.249904 61.79328 
L 117.881334 62.27712 
L 119.512764 62.27712 
L 121.144194 61.30944 
L 124.407053 62.27712 
L 126.038483 63.2448 
L 127.669913 62.27712 
L 129.301343 61.79328 
L 130.932773 62.76096 
L 132.564203 61.30944 
L 134.195633 61.30944 
L 135.827063 60.8256 
L 137.458492 62.27712 
L 140.721352 61.30944 
L 142.352782 59.85792 
L 143.984212 62.27712 
L 145.615642 61.30944 
L 147.247072 61.30944 
L 148.878502 60.8256 
L 150.509931 60.8256 
L 152.141361 61.79328 
L 153.772791 61.79328 
L 155.404221 62.27712 
L 157.035651 62.27712 
L 158.667081 60.8256 
L 160.298511 61.30944 
L 161.929941 61.30944 
L 163.56137 62.27712 
L 165.1928 60.8256 
L 166.82423 60.8256 
L 168.45566 61.30944 
L 170.08709 59.85792 
L 171.71852 60.8256 
L 174.98138 59.85792 
L 176.61281 60.34176 
L 178.244239 61.79328 
L 179.875669 60.34176 
L 181.507099 59.85792 
L 183.138529 59.85792 
L 184.769959 60.34176 
L 186.401389 61.30944 
L 188.032819 60.34176 
L 189.664249 60.34176 
L 191.295678 59.37408 
L 192.927108 61.79328 
L 196.189968 60.8256 
L 197.821398 62.27712 
L 199.452828 59.85792 
L 201.084258 59.85792 
L 202.715688 59.37408 
L 204.347117 61.30944 
L 205.978547 60.34176 
L 207.609977 61.30944 
L 209.241407 60.34176 
L 210.872837 59.85792 
L 212.504267 59.85792 
L 214.135697 61.30944 
L 215.767127 60.34176 
L 219.029986 60.34176 
L 220.661416 60.8256 
L 222.292846 59.37408 
L 223.924276 59.37408 
L 225.555706 59.85792 
L 227.187136 59.37408 
L 228.818566 60.8256 
L 230.449995 59.85792 
L 233.712855 58.89024 
L 235.344285 59.37408 
L 240.238575 59.37408 
L 241.870005 60.8256 
L 245.132864 58.89024 
L 246.764294 60.34176 
L 248.395724 58.89024 
L 250.027154 58.89024 
L 251.658584 59.37408 
L 253.290014 58.89024 
L 254.921444 59.85792 
L 256.552873 59.37408 
L 258.184303 61.30944 
L 259.815733 58.89024 
L 261.447163 60.8256 
L 263.078593 59.85792 
L 264.710023 59.37408 
L 266.341453 60.34176 
L 267.972883 60.34176 
L 269.604312 59.37408 
L 272.867172 60.34176 
L 274.498602 58.4064 
L 276.130032 59.37408 
L 277.761462 58.89024 
L 279.392892 59.85792 
L 281.024322 58.89024 
L 282.655751 59.85792 
L 284.287181 58.89024 
L 285.918611 59.37408 
L 287.550041 60.8256 
L 289.181471 59.37408 
L 290.812901 58.89024 
L 292.444331 60.34176 
L 297.33862 58.89024 
L 298.97005 60.8256 
L 300.60148 60.8256 
L 302.23291 58.89024 
L 303.86434 59.85792 
L 305.49577 59.37408 
L 307.1272 59.85792 
L 310.390059 58.89024 
L 312.021489 58.89024 
L 315.284349 59.85792 
L 318.547209 58.89024 
L 323.441498 58.89024 
L 326.704358 59.85792 
L 328.335788 58.89024 
L 329.967218 59.37408 
L 331.598648 59.37408 
L 333.230078 58.89024 
L 336.492937 58.89024 
L 338.124367 58.4064 
L 339.755797 58.89024 
L 349.544376 58.89024 
L 351.175806 59.37408 
L 352.807236 59.37408 
L 354.438666 59.85792 
L 356.070096 59.37408 
L 357.701526 58.4064 
L 359.332956 58.4064 
L 360.964386 58.89024 
L 360.964386 58.89024 
" clip-path="url(#p498dcd1ca8)" style="fill: none; stroke: #000000; stroke-width: 1.5; stroke-linecap: square"/>
   </g>
   <g id="line2d_30">
    <path d="M 73.832727 295.488 
L 75.464157 106.7904 
L 78.727017 102.91968 
L 81.989877 101.952 
L 86.884166 101.952 
L 88.515596 102.43584 
L 90.147026 101.952 
L 323.441498 101.952 
L 323.441498 101.952 
" clip-path="url(#p498dcd1ca8)" style="fill: none; stroke: #000000; stroke-width: 1.5; stroke-linecap: square"/>
   </g>
   <g id="line2d_31">
    <path d="M 73.832727 295.488 
L 75.464157 92.75904 
L 78.727017 84.04992 
L 80.358447 82.5984 
L 81.989877 83.56608 
L 83.621307 83.08224 
L 85.252736 83.08224 
L 86.884166 82.5984 
L 88.515596 82.5984 
L 90.147026 83.08224 
L 91.778456 83.08224 
L 93.409886 82.5984 
L 372.384395 82.5984 
L 372.384395 82.5984 
" clip-path="url(#p498dcd1ca8)" style="fill: none; stroke: #000000; stroke-width: 1.5; stroke-linecap: square"/>
   </g>
   <g id="line2d_32">
    <path d="M 73.832727 295.488 
L 75.464157 124.69248 
L 77.095587 121.78944 
L 78.727017 121.78944 
L 80.358447 121.3056 
L 318.547209 121.3056 
L 318.547209 121.3056 
" clip-path="url(#p498dcd1ca8)" style="fill: none; stroke: #000000; stroke-width: 1.5; stroke-linecap: square"/>
   </g>
   <g id="line2d_33">
    <path d="M 73.832727 295.488 
L 75.464157 102.43584 
L 77.095587 98.08128 
L 78.727017 97.1136 
L 343.018657 97.1136 
L 343.018657 97.1136 
" clip-path="url(#p498dcd1ca8)" style="fill: none; stroke: #000000; stroke-width: 1.5; stroke-linecap: square"/>
   </g>
   <g id="line2d_34">
    <path d="M 73.832727 295.488 
L 75.464157 128.07936 
L 77.095587 126.62784 
L 78.727017 126.144 
L 315.284349 126.144 
L 315.284349 126.144 
" clip-path="url(#p498dcd1ca8)" style="fill: none; stroke: #000000; stroke-width: 1.5; stroke-linecap: square"/>
   </g>
   <g id="line2d_35">
    <path d="M 73.832727 295.488 
L 75.464157 118.40256 
L 78.727017 114.53184 
L 80.358447 113.08032 
L 81.989877 114.048 
L 83.621307 113.08032 
L 85.252736 113.56416 
L 86.884166 112.59648 
L 88.515596 112.11264 
L 90.147026 113.08032 
L 91.778456 112.59648 
L 93.409886 111.6288 
L 95.041316 112.59648 
L 96.672746 112.11264 
L 98.304175 112.11264 
L 99.935605 111.6288 
L 101.567035 112.11264 
L 103.198465 112.11264 
L 104.829895 111.6288 
L 111.355614 111.6288 
L 112.987044 112.11264 
L 114.618474 111.6288 
L 318.547209 111.6288 
L 318.547209 111.6288 
" clip-path="url(#p498dcd1ca8)" style="fill: none; stroke: #000000; stroke-width: 1.5; stroke-linecap: square"/>
   </g>
   <g id="line2d_36">
    <path d="M 73.832727 295.488 
L 75.464157 89.37216 
L 77.095587 87.4368 
L 78.727017 83.56608 
L 80.358447 82.5984 
L 81.989877 82.5984 
L 83.621307 83.08224 
L 85.252736 82.5984 
L 91.778456 82.5984 
L 93.409886 83.08224 
L 95.041316 82.5984 
L 341.387227 82.5984 
L 341.387227 82.5984 
" clip-path="url(#p498dcd1ca8)" style="fill: none; stroke: #000000; stroke-width: 1.5; stroke-linecap: square"/>
   </g>
   <g id="line2d_37">
    <path d="M 73.832727 295.488 
L 75.464157 83.56608 
L 77.095587 80.1792 
L 78.727017 80.1792 
L 80.358447 77.76 
L 81.989877 79.21152 
L 83.621307 78.24384 
L 85.252736 78.24384 
L 86.884166 77.76 
L 360.964386 77.76 
L 360.964386 77.76 
" clip-path="url(#p498dcd1ca8)" style="fill: none; stroke: #000000; stroke-width: 1.5; stroke-linecap: square"/>
   </g>
   <g id="line2d_38">
    <path d="M 73.832727 295.488 
L 75.464157 133.88544 
L 77.095587 126.62784 
L 78.727017 126.62784 
L 80.358447 124.69248 
L 81.989877 126.62784 
L 83.621307 124.69248 
L 85.252736 125.66016 
L 86.884166 124.69248 
L 88.515596 125.66016 
L 90.147026 124.69248 
L 91.778456 125.66016 
L 93.409886 124.69248 
L 95.041316 124.20864 
L 96.672746 124.69248 
L 98.304175 122.27328 
L 99.935605 123.24096 
L 101.567035 122.27328 
L 103.198465 122.75712 
L 104.829895 121.78944 
L 106.461325 123.7248 
L 108.092755 123.7248 
L 109.724185 121.78944 
L 111.355614 122.75712 
L 112.987044 123.24096 
L 114.618474 123.24096 
L 116.249904 122.27328 
L 117.881334 122.75712 
L 121.144194 121.78944 
L 122.775624 123.7248 
L 124.407053 123.24096 
L 126.038483 122.27328 
L 127.669913 122.75712 
L 129.301343 122.75712 
L 130.932773 121.78944 
L 132.564203 122.27328 
L 134.195633 123.24096 
L 135.827063 122.75712 
L 137.458492 122.75712 
L 139.089922 121.78944 
L 140.721352 121.78944 
L 142.352782 122.27328 
L 143.984212 121.78944 
L 148.878502 121.78944 
L 150.509931 121.3056 
L 153.772791 122.27328 
L 155.404221 122.27328 
L 157.035651 121.78944 
L 158.667081 122.27328 
L 161.929941 121.3056 
L 163.56137 121.78944 
L 165.1928 121.3056 
L 168.45566 121.3056 
L 170.08709 121.78944 
L 171.71852 121.3056 
L 173.34995 121.3056 
L 174.98138 121.78944 
L 176.61281 121.3056 
L 178.244239 121.78944 
L 179.875669 121.78944 
L 181.507099 121.3056 
L 197.821398 121.3056 
L 199.452828 121.78944 
L 201.084258 121.3056 
L 205.978547 121.3056 
L 207.609977 121.78944 
L 209.241407 121.3056 
L 210.872837 121.3056 
L 212.504267 122.75712 
L 214.135697 121.3056 
L 228.818566 121.3056 
L 230.449995 121.78944 
L 232.081425 121.3056 
L 246.764294 121.3056 
L 250.027154 122.27328 
L 251.658584 121.3056 
L 256.552873 121.3056 
L 258.184303 121.78944 
L 259.815733 121.3056 
L 281.024322 121.3056 
L 282.655751 121.78944 
L 284.287181 121.3056 
L 302.23291 121.3056 
L 303.86434 121.78944 
L 305.49577 121.3056 
L 339.755797 121.3056 
L 339.755797 121.3056 
" clip-path="url(#p498dcd1ca8)" style="fill: none; stroke: #000000; stroke-width: 1.5; stroke-linecap: square"/>
   </g>
   <g id="patch_3">
    <path d="M 57.6 307.584 
L 57.6 41.472 
" style="fill: none; stroke: #000000; stroke-width: 0.8; stroke-linejoin: miter; stroke-linecap: square"/>
   </g>
   <g id="patch_4">
    <path d="M 414.72 307.584 
L 414.72 41.472 
" style="fill: none; stroke: #000000; stroke-width: 0.8; stroke-linejoin: miter; stroke-linecap: square"/>
   </g>
   <g id="patch_5">
    <path d="M 57.6 307.584 
L 414.72 307.584 
" style="fill: none; stroke: #000000; stroke-width: 0.8; stroke-linejoin: miter; stroke-linecap: square"/>
   </g>
   <g id="patch_6">
    <path d="M 57.6 41.472 
L 414.72 41.472 
" style="fill: none; stroke: #000000; stroke-width: 0.8; stroke-linejoin: miter; stroke-linecap: square"/>
   </g>
   <g id="text_15">
    <!-- Curva do coletor - tabela original -->
    <g transform="translate(137.174062 35.472) scale(0.12 -0.12)">
     <defs>
      <path id="DejaVuSans-43" d="M 4122 4306 
L 4122 3641 
Q 3803 3938 3442 4084 
Q 3081 4231 2675 4231 
Q 1875 4231 1450 3742 
Q 1025 3253 1025 2328 
Q 1025 1406 1450 917 
Q 1875 428 2675 428 
Q 3081 428 3442 575 
Q 3803 722 4122 1019 
L 4122 359 
Q 3791 134 3420 21 
Q 3050 -91 2638 -91 
Q 1578 -91 968 557 
Q 359 1206 359 2328 
Q 359 3453 968 4101 
Q 1578 4750 2638 4750 
Q 3056 4750 3426 4639 
Q 3797 4528 4122 4306 
z
" transform="scale(0.015625)"/>
      <path id="DejaVuSans-76" d="M 191 3500 
L 800 3500 
L 1894 563 
L 2988 3500 
L 3597 3500 
L 2284 0 
L 1503 0 
L 191 3500 
z
" transform="scale(0.015625)"/>
      <path id="DejaVuSans-63" d="M 3122 3366 
L 3122 2828 
Q 2878 2963 2633 3030 
Q 2388 3097 2138 3097 
Q 1578 3097 1268 2742 
Q 959 2388 959 1747 
Q 959 1106 1268 751 
Q 1578 397 2138 397 
Q 2388 397 2633 464 
Q 2878 531 3122 666 
L 3122 134 
Q 2881 22 2623 -34 
Q 2366 -91 2075 -91 
Q 1284 -91 818 406 
Q 353 903 353 1747 
Q 353 2603 823 3093 
Q 1294 3584 2113 3584 
Q 2378 3584 2631 3529 
Q 2884 3475 3122 3366 
z
" transform="scale(0.015625)"/>
      <path id="DejaVuSans-6c" d="M 603 4863 
L 1178 4863 
L 1178 0 
L 603 0 
L 603 4863 
z
" transform="scale(0.015625)"/>
      <path id="DejaVuSans-2d" d="M 313 2009 
L 1997 2009 
L 1997 1497 
L 313 1497 
L 313 2009 
z
" transform="scale(0.015625)"/>
      <path id="DejaVuSans-62" d="M 3116 1747 
Q 3116 2381 2855 2742 
Q 2594 3103 2138 3103 
Q 1681 3103 1420 2742 
Q 1159 2381 1159 1747 
Q 1159 1113 1420 752 
Q 1681 391 2138 391 
Q 2594 391 2855 752 
Q 3116 1113 3116 1747 
z
M 1159 2969 
Q 1341 3281 1617 3432 
Q 1894 3584 2278 3584 
Q 2916 3584 3314 3078 
Q 3713 2572 3713 1747 
Q 3713 922 3314 415 
Q 2916 -91 2278 -91 
Q 1894 -91 1617 61 
Q 1341 213 1159 525 
L 1159 0 
L 581 0 
L 581 4863 
L 1159 4863 
L 1159 2969 
z
" transform="scale(0.015625)"/>
      <path id="DejaVuSans-67" d="M 2906 1791 
Q 2906 2416 2648 2759 
Q 2391 3103 1925 3103 
Q 1463 3103 1205 2759 
Q 947 2416 947 1791 
Q 947 1169 1205 825 
Q 1463 481 1925 481 
Q 2391 481 2648 825 
Q 2906 1169 2906 1791 
z
M 3481 434 
Q 3481 -459 3084 -895 
Q 2688 -1331 1869 -1331 
Q 1566 -1331 1297 -1286 
Q 1028 -1241 775 -1147 
L 775 -588 
Q 1028 -725 1275 -790 
Q 1522 -856 1778 -856 
Q 2344 -856 2625 -561 
Q 2906 -266 2906 331 
L 2906 616 
Q 2728 306 2450 153 
Q 2172 0 1784 0 
Q 1141 0 747 490 
Q 353 981 353 1791 
Q 353 2603 747 3093 
Q 1141 3584 1784 3584 
Q 2172 3584 2450 3431 
Q 2728 3278 2906 2969 
L 2906 3500 
L 3481 3500 
L 3481 434 
z
" transform="scale(0.015625)"/>
      <path id="DejaVuSans-6e" d="M 3513 2113 
L 3513 0 
L 2938 0 
L 2938 2094 
Q 2938 2591 2744 2837 
Q 2550 3084 2163 3084 
Q 1697 3084 1428 2787 
Q 1159 2491 1159 1978 
L 1159 0 
L 581 0 
L 581 3500 
L 1159 3500 
L 1159 2956 
Q 1366 3272 1645 3428 
Q 1925 3584 2291 3584 
Q 2894 3584 3203 3211 
Q 3513 2838 3513 2113 
z
" transform="scale(0.015625)"/>
     </defs>
     <use xlink:href="#DejaVuSans-43"/>
     <use xlink:href="#DejaVuSans-75" x="69.824219"/>
     <use xlink:href="#DejaVuSans-72" x="133.203125"/>
     <use xlink:href="#DejaVuSans-76" x="174.316406"/>
     <use xlink:href="#DejaVuSans-61" x="233.496094"/>
     <use xlink:href="#DejaVuSans-20" x="294.775391"/>
     <use xlink:href="#DejaVuSans-64" x="326.5625"/>
     <use xlink:href="#DejaVuSans-6f" x="390.039062"/>
     <use xlink:href="#DejaVuSans-20" x="451.220703"/>
     <use xlink:href="#DejaVuSans-63" x="483.007812"/>
     <use xlink:href="#DejaVuSans-6f" x="537.988281"/>
     <use xlink:href="#DejaVuSans-6c" x="599.169922"/>
     <use xlink:href="#DejaVuSans-65" x="626.953125"/>
     <use xlink:href="#DejaVuSans-74" x="688.476562"/>
     <use xlink:href="#DejaVuSans-6f" x="727.685547"/>
     <use xlink:href="#DejaVuSans-72" x="788.867188"/>
     <use xlink:href="#DejaVuSans-20" x="829.980469"/>
     <use xlink:href="#DejaVuSans-2d" x="861.767578"/>
     <use xlink:href="#DejaVuSans-20" x="897.851562"/>
     <use xlink:href="#DejaVuSans-74" x="929.638672"/>
     <use xlink:href="#DejaVuSans-61" x="968.847656"/>
     <use xlink:href="#DejaVuSans-62" x="1030.126953"/>
     <use xlink:href="#DejaVuSans-65" x="1093.603516"/>
     <use xlink:href="#DejaVuSans-6c" x="1155.126953"/>
     <use xlink:href="#DejaVuSans-61" x="1182.910156"/>
     <use xlink:href="#DejaVuSans-20" x="1244.189453"/>
     <use xlink:href="#DejaVuSans-6f" x="1275.976562"/>
     <use xlink:href="#DejaVuSans-72" x="1337.158203"/>
     <use xlink:href="#DejaVuSans-69" x="1378.271484"/>
     <use xlink:href="#DejaVuSans-67" x="1406.054688"/>
     <use xlink:href="#DejaVuSans-69" x="1469.53125"/>
     <use xlink:href="#DejaVuSans-6e" x="1497.314453"/>
     <use xlink:href="#DejaVuSans-61" x="1560.693359"/>
     <use xlink:href="#DejaVuSans-6c" x="1621.972656"/>
    </g>
   </g>
  </g>
 </g>
 <defs>
  <clipPath id="p498dcd1ca8">
   <rect x="57.6" y="41.472" width="357.12" height="266.112"/>
  </clipPath>
 </defs>
</svg>
